<svg width="51" height="20" viewBox="0 0 51 20" fill="none" xmlns="http://www.w3.org/2000/svg">
<g opacity="0.4">
<path d="M43.4978 13.9102L42.5145 19.8097H38.7454L40.4934 9.32162H44.0714L43.7436 11.3155H43.8529C44.1852 10.6463 44.67 10.1251 45.3073 9.7518C45.9491 9.37397 46.657 9.18506 47.4308 9.18506C48.1728 9.18506 48.7896 9.35349 49.2813 9.69035C49.7729 10.0272 50.1211 10.4915 50.326 11.0833C50.5308 11.6751 50.5673 12.3533 50.4352 13.1181L49.3154 19.8097H45.5463L46.5295 13.9102C46.616 13.3912 46.5523 12.9838 46.3383 12.6879C46.1289 12.392 45.783 12.2441 45.3004 12.2441C44.9954 12.2441 44.7155 12.3124 44.4606 12.4489C44.2102 12.581 44.0008 12.7721 43.8324 13.0225C43.6685 13.2683 43.557 13.5642 43.4978 13.9102Z" fill="#12153A"/>
<path d="M31.2155 19.9736C30.5509 19.9736 29.9796 19.8644 29.5016 19.6459C29.0282 19.4228 28.6822 19.086 28.4637 18.6353C28.2498 18.1801 28.202 17.6065 28.3203 16.9146C28.4159 16.341 28.5957 15.8517 28.8597 15.4465C29.1238 15.0414 29.4515 14.7091 29.843 14.4496C30.2345 14.1901 30.6738 13.9921 31.1608 13.8556C31.6525 13.7144 32.1714 13.6234 32.7177 13.5824C33.3095 13.5369 33.7897 13.48 34.1584 13.4117C34.5272 13.3434 34.8026 13.2501 34.9846 13.1318C35.1667 13.0134 35.276 12.8541 35.3124 12.6538V12.6265C35.3534 12.3533 35.2805 12.1439 35.0939 11.9983C34.9118 11.8526 34.6569 11.7798 34.3291 11.7798C33.9741 11.7798 33.6668 11.8572 33.4073 12.0119C33.1524 12.1667 32.9771 12.408 32.8816 12.7357H29.4128C29.5585 12.0984 29.8567 11.5112 30.3073 10.974C30.7625 10.4323 31.3657 9.99989 32.1168 9.67669C32.8724 9.34894 33.7738 9.18506 34.8208 9.18506C35.5673 9.18506 36.2228 9.27383 36.7873 9.45136C37.3517 9.62434 37.8183 9.86788 38.1871 10.182C38.5603 10.4915 38.8221 10.8557 38.9723 11.2745C39.1271 11.6887 39.1635 12.1394 39.0816 12.6265L37.8798 19.8097H34.3564L34.6023 18.3349H34.5203C34.2472 18.7263 33.9399 19.0427 33.5985 19.284C33.2617 19.5252 32.8929 19.7005 32.4923 19.8097C32.0963 19.919 31.6707 19.9736 31.2155 19.9736ZM32.8542 17.5974C33.1365 17.5974 33.4142 17.5382 33.6873 17.4199C33.9604 17.3015 34.1948 17.1308 34.3906 16.9078C34.5863 16.6847 34.7115 16.4139 34.7661 16.0952L34.9027 15.2212C34.8026 15.2622 34.691 15.3009 34.5681 15.3373C34.4498 15.3691 34.3246 15.401 34.1926 15.4329C34.0651 15.4647 33.9285 15.4943 33.7829 15.5216C33.6418 15.5489 33.4961 15.5763 33.3459 15.6036C33.0454 15.6491 32.7928 15.7242 32.5879 15.8289C32.3831 15.929 32.2238 16.0542 32.11 16.2045C31.9962 16.3501 31.9256 16.514 31.8983 16.6961C31.8573 16.9829 31.9233 17.2059 32.0963 17.3652C32.2738 17.52 32.5265 17.5974 32.8542 17.5974Z" fill="#12153A"/>
<path d="M13.4724 11.0681H9.67589C9.7032 10.7449 9.68499 10.4535 9.62126 10.1941C9.55753 9.93458 9.44828 9.71153 9.29351 9.52489C9.13873 9.3337 8.93616 9.18803 8.6858 9.08788C8.43543 8.98774 8.13726 8.93766 7.7913 8.93766C7.12669 8.93766 6.53264 9.10382 6.00914 9.43612C5.48564 9.76388 5.05092 10.235 4.70495 10.8496C4.35899 11.4595 4.11318 12.1879 3.96751 13.0346C3.84005 13.854 3.8355 14.5345 3.95385 15.0762C4.07676 15.6179 4.31575 16.0231 4.67081 16.2916C5.03043 16.5602 5.49703 16.6945 6.07059 16.6945C6.45297 16.6945 6.80349 16.649 7.12214 16.5579C7.44534 16.4669 7.73212 16.3372 7.98249 16.1687C8.23741 15.9957 8.45364 15.7909 8.63117 15.5542C8.81326 15.3129 8.9521 15.0466 9.04769 14.7553H12.8715C12.7258 15.3471 12.4663 15.9525 12.0931 16.5716C11.7198 17.1861 11.2373 17.7529 10.6455 18.2718C10.0537 18.7862 9.35724 19.2027 8.55606 19.5214C7.75488 19.84 6.85356 19.9993 5.85209 19.9993C4.54108 19.9993 3.40987 19.7126 2.45847 19.139C1.51163 18.5654 0.824257 17.7278 0.396357 16.6262C-0.026992 15.5246 -0.111207 14.1817 0.143713 12.5976C0.398633 11.0681 0.901644 9.78664 1.65275 8.7533C2.40385 7.71997 3.31655 6.94155 4.39086 6.41806C5.46516 5.89456 6.60775 5.63281 7.81861 5.63281C8.73359 5.63281 9.55298 5.75344 10.2768 5.99471C11.0051 6.23597 11.6174 6.58876 12.1136 7.05308C12.6143 7.51284 12.983 8.07959 13.2197 8.7533C13.4564 9.42702 13.5406 10.1986 13.4724 11.0681Z" fill="#12153A"/>
<path fill-rule="evenodd" clip-rule="evenodd" d="M17.7926 12.7703L18.9456 5.8252H15.1764L12.8549 19.8094H16.624L17.5962 13.9531L16.9533 13.5245C16.8255 13.4393 16.8374 13.2479 16.9748 13.1792L17.7926 12.7703Z" fill="#12153A"/>
<path fill-rule="evenodd" clip-rule="evenodd" d="M19.7954 19.3586C20.5328 19.7865 21.4615 20.0004 22.5813 20.0004C23.5554 20.0004 24.4272 19.8548 25.1965 19.5634C25.9703 19.2676 26.6213 18.8533 27.1493 18.3207C27.6819 17.7836 28.0711 17.1508 28.317 16.4225H24.8756C24.7663 16.6228 24.6206 16.7935 24.4385 16.9346C24.261 17.0711 24.0562 17.1758 23.824 17.2487C23.5964 17.317 23.3551 17.3511 23.1002 17.3511C22.7269 17.3511 22.422 17.276 22.1852 17.1258C21.9485 16.9756 21.7824 16.7684 21.6868 16.5044C21.5912 16.2404 21.5707 15.9399 21.6253 15.6031L21.6561 15.4392H28.4808L28.6174 14.5652C28.754 13.7322 28.754 12.9856 28.6174 12.3255C28.4854 11.6609 28.2305 11.0942 27.8526 10.6253C27.4748 10.1565 26.9855 9.79911 26.3846 9.55329C25.7883 9.30748 25.0941 9.18457 24.302 9.18457C23.2186 9.18457 22.2399 9.4099 21.3659 9.86056C20.4964 10.3112 19.7749 10.9417 19.2013 11.752C18.9993 12.0397 18.8216 12.3446 18.6684 12.6667L19.6033 13.1342C19.6953 13.1802 19.7292 13.2782 19.7075 13.3634C19.6928 13.4211 19.6528 13.4729 19.5881 13.4987L19.4075 13.571L18.1821 14.0612C18.1409 14.2345 18.1051 14.4116 18.0747 14.5925C17.8835 15.7214 17.9381 16.691 18.2385 17.5013C18.539 18.3071 19.0579 18.9261 19.7954 19.3586ZM22.0466 13.3634H25.3399C25.3854 13.063 25.3558 12.799 25.2511 12.5714C25.151 12.3392 24.9894 12.1594 24.7663 12.0319C24.5478 11.8999 24.2838 11.8339 23.9742 11.8339C23.6647 11.8339 23.3733 11.8999 23.1002 12.0319C22.8316 12.1639 22.6018 12.3483 22.4106 12.585C22.2347 12.8081 22.1134 13.0676 22.0466 13.3634Z" fill="#12153A"/>
<path d="M21.6615 5.66219C21.7031 5.4908 21.93 5.45322 22.0246 5.60206L22.3669 6.14053C22.3947 6.18419 22.4383 6.2154 22.4885 6.2276L23.1086 6.37804C23.28 6.41963 23.3176 6.64658 23.1687 6.74119L22.6303 7.08348C22.5866 7.11123 22.5554 7.15482 22.5432 7.2051L22.3927 7.82516C22.3512 7.99655 22.1242 8.03413 22.0296 7.88529L21.6873 7.34683C21.6596 7.30316 21.616 7.27196 21.5657 7.25976L20.9456 7.10931C20.7742 7.06772 20.7367 6.84078 20.8855 6.74616L21.424 6.40388C21.4676 6.37612 21.4988 6.33253 21.511 6.28225L21.6615 5.66219Z" fill="#12153A"/>
<path d="M24.5723 0.967009C24.6138 0.795615 24.8408 0.758035 24.9354 0.906876L25.9155 2.44872C25.9433 2.49238 25.9869 2.52359 26.0371 2.53579L27.8126 2.96658C27.984 3.00816 28.0216 3.23511 27.8727 3.32972L26.3309 4.30982C26.2872 4.33758 26.256 4.38117 26.2438 4.43145L25.813 6.20692C25.7714 6.37831 25.5445 6.41589 25.4499 6.26705L24.4698 4.72521C24.442 4.68155 24.3984 4.65034 24.3482 4.63814L22.5727 4.20735C22.4013 4.16576 22.3637 3.93882 22.5126 3.8442L24.0544 2.8641C24.0981 2.83635 24.1293 2.79275 24.1415 2.74248L24.5723 0.967009Z" fill="#12153A"/>
</g>
</svg>
