<svg width="25" height="24" viewBox="0 0 25 24" fill="none" xmlns="http://www.w3.org/2000/svg">
<g id="Calendar / Alarm">
<path id="Vector" d="M13.5 7C13.5 6.44772 13.0523 6 12.5 6C11.9477 6 11.5 6.44772 11.5 7H13.5ZM12.5 12H11.5C11.5 12.5523 11.9477 13 12.5 13V12ZM17.5 13C18.0523 13 18.5 12.5523 18.5 12C18.5 11.4477 18.0523 11 17.5 11V13ZM20.8608 5.33719C21.2839 5.6922 21.9147 5.63701 22.2697 5.21394C22.6247 4.79086 22.5695 4.16011 22.1464 3.80511L20.8608 5.33719ZM19.0822 1.23396C18.6592 0.878954 18.0284 0.934138 17.6734 1.35721C17.3184 1.78029 17.3736 2.41104 17.7967 2.76604L19.0822 1.23396ZM7.20697 2.76617C7.63004 2.41116 7.68522 1.78041 7.33022 1.35733C6.97522 0.93426 6.34446 0.879076 5.92139 1.23408L7.20697 2.76617ZM2.85721 3.80523C2.43414 4.16023 2.37895 4.79099 2.73396 5.21406C3.08896 5.63713 3.71971 5.69232 4.14279 5.33732L2.85721 3.80523ZM11.5 7V12H13.5V7H11.5ZM12.5 13H17.5V11H12.5V13ZM12.5 19C8.63401 19 5.5 15.866 5.5 12H3.5C3.5 16.9706 7.52944 21 12.5 21V19ZM5.5 12C5.5 8.13401 8.63401 5 12.5 5V3C7.52944 3 3.5 7.02944 3.5 12H5.5ZM12.5 5C16.366 5 19.5 8.13401 19.5 12H21.5C21.5 7.02944 17.4706 3 12.5 3V5ZM19.5 12C19.5 15.866 16.366 19 12.5 19V21C17.4706 21 21.5 16.9706 21.5 12H19.5ZM22.1464 3.80511L19.0822 1.23396L17.7967 2.76604L20.8608 5.33719L22.1464 3.80511ZM5.92139 1.23408L2.85721 3.80523L4.14279 5.33732L7.20697 2.76617L5.92139 1.23408Z" fill="#88939D"/>
</g>
</svg>
