<svg width="25" height="24" viewBox="0 0 25 24" fill="none" xmlns="http://www.w3.org/2000/svg">
<g id="Navigation / House_01">
<path id="Vector" d="M20.5 17.0002V11.4522V11.4515C20.5 10.9176 20.5 10.6506 20.4351 10.4021C20.3775 10.1817 20.2827 9.97275 20.1548 9.78432C20.0104 9.5717 19.8096 9.39581 19.4074 9.04395L14.6074 4.84395C13.8608 4.19066 13.4875 3.86406 13.0674 3.73982C12.6972 3.63035 12.3028 3.63035 11.9326 3.73982C11.5127 3.864 11.1398 4.19031 10.394 4.84288L10.3928 4.84395L5.59277 9.04395L5.59182 9.04479C5.19032 9.39609 4.98944 9.57187 4.84521 9.78433C4.7173 9.97275 4.62255 10.1817 4.56497 10.4021C4.5 10.6507 4.5 10.9179 4.5 11.4522V17.0002C4.5 17.932 4.5 18.3979 4.65224 18.7654C4.85523 19.2555 5.24481 19.6449 5.73486 19.8479C6.10241 20.0001 6.56835 20.0001 7.50023 20.0001C8.43211 20.0001 8.89782 20.0001 9.26537 19.8479C9.75542 19.6449 10.1447 19.2555 10.3477 18.7654C10.4999 18.3979 10.5 17.932 10.5 17.0001V16.0001C10.5 14.8955 11.3954 14.0001 12.5 14.0001C13.6046 14.0001 14.5 14.8955 14.5 16.0001V17.0001C14.5 17.932 14.5 18.3979 14.6522 18.7654C14.8552 19.2555 15.2448 19.6449 15.7349 19.8479C16.1024 20.0001 16.5683 20.0001 17.5002 20.0001C18.4321 20.0001 18.8978 20.0001 19.2654 19.8479C19.7554 19.6449 20.1447 19.2555 20.3477 18.7654C20.4999 18.3979 20.5 17.932 20.5 17.0002Z" stroke="#88939D" stroke-width="2" stroke-linecap="round" stroke-linejoin="round"/>
</g>
</svg>
