<svg width="30" height="28" viewBox="0 0 30 28" fill="none" xmlns="http://www.w3.org/2000/svg">
<g id="Group 3811">
<g id="Group 10">
<path id="Stroke 3059" d="M13.5692 18.0908H10.0435C9.70584 18.0908 9.3966 18.2798 9.24258 18.5803L7.64884 21.6894C7.34185 22.2883 7.77675 22.9999 8.44975 22.9999H22.2805C22.9535 22.9999 23.3884 22.2883 23.0814 21.6894L21.4877 18.5803C21.3337 18.2798 21.0244 18.0908 20.6868 18.0908H17.161" stroke="#88939D" stroke-width="1.5" stroke-linecap="round" stroke-linejoin="round"/>
<path id="Stroke 3169" fill-rule="evenodd" clip-rule="evenodd" d="M21.2365 10.7273C21.2365 13.2273 18.299 16.8468 16.5794 18.7514C15.9213 19.4804 14.8083 19.4804 14.1502 18.7514C12.4306 16.8468 9.49316 13.2273 9.49316 10.7273C9.49316 7.10273 12.5271 5 15.3648 5C18.2025 5 21.2365 7.10273 21.2365 10.7273Z" stroke="#88939D" stroke-width="1.5" stroke-linecap="round" stroke-linejoin="round"/>
<path id="Stroke 3171" fill-rule="evenodd" clip-rule="evenodd" d="M13.6875 10.7272C13.6875 9.82309 14.4382 9.09082 15.3651 9.09082C16.292 9.09082 17.0427 9.82309 17.0427 10.7272C17.0427 11.6313 16.292 12.3635 15.3651 12.3635C14.4382 12.3635 13.6875 11.6313 13.6875 10.7272V10.7272Z" stroke="#88939D" stroke-width="1.5" stroke-linecap="round" stroke-linejoin="round"/>
</g>
</g>
</svg>
