<svg width="1440" height="723" viewBox="0 0 1440 723" fill="none" xmlns="http://www.w3.org/2000/svg">
<path fill-rule="evenodd" clip-rule="evenodd" d="M0 0H1440V723H0V0Z" fill="#12153A"/>
<mask id="mask0_73_13" style="mask-type:luminance" maskUnits="userSpaceOnUse" x="0" y="0" width="1440" height="723">
<path fill-rule="evenodd" clip-rule="evenodd" d="M0 0H1440V723H0V0Z" fill="white"/>
</mask>
<g mask="url(#mask0_73_13)">
<g opacity="0.501618">
<path opacity="0.3" d="M0 468.395C0 468.395 338.557 647.082 699.311 328.203C699.311 328.203 998.088 28.261 1258.01 200.984C1517.93 373.708 1452.99 -42.3799 1452.99 -42.3799" stroke="#6896D1"/>
<path opacity="0.3" d="M0 477.265C0 477.265 338.557 662.082 699.311 343.203C699.311 343.203 998.194 48.4924 1258.11 221.216C1518.03 393.939 1452.99 -27.3799 1452.99 -27.3799" stroke="#6896D1"/>
<path opacity="0.3" d="M0 485.319C0 485.319 338.557 677.082 699.311 358.203C699.311 358.203 997.201 69.6077 1257.12 242.331C1517.04 415.055 1452.99 -12.3799 1452.99 -12.3799" stroke="#6896D1"/>
<path opacity="0.3" d="M0 494.524C0 494.524 338.557 690.082 699.311 371.203C699.311 371.203 996.657 89.2491 1256.58 261.973C1516.49 434.696 1452.99 0.620117 1452.99 0.620117" stroke="#6896D1"/>
<path opacity="0.3" d="M0 503.886C0 503.886 338.557 705.082 699.311 386.203C699.311 386.203 996.525 108.682 1256.44 281.405C1516.36 454.129 1452.99 15.6201 1452.99 15.6201" stroke="#6896D1"/>
<path opacity="0.3" d="M0 512.921C0 512.921 338.557 718.082 699.311 399.203C699.311 399.203 996.507 128.39 1256.43 301.113C1516.35 473.837 1452.99 28.6201 1452.99 28.6201" stroke="#6896D1"/>
<path opacity="0.3" d="M0 521.722C0 521.722 338.183 733.056 699.311 410.203C699.311 410.203 996.979 150.667 1256.9 323.39C1516.82 496.113 1452.99 39.6201 1452.99 39.6201" stroke="#6896D1"/>
<path opacity="0.3" d="M0 407.454C0 407.454 338.557 554.615 699.311 235.736C699.311 235.736 998.088 -113.739 1258.01 58.9844C1517.93 231.708 1452.99 -184.38 1452.99 -184.38" stroke="#6896D1"/>
<path opacity="0.3" d="M0 415.751C0 415.751 338.557 569.615 699.311 250.736C699.311 250.736 998.194 -93.5076 1258.11 79.2159C1518.03 251.939 1452.99 -169.38 1452.99 -169.38" stroke="#6896D1"/>
<path opacity="0.3" d="M0 424.288C0 424.288 338.557 584.615 699.311 265.736C699.311 265.736 997.201 -72.3923 1257.12 100.331C1517.04 273.055 1452.99 -154.38 1452.99 -154.38" stroke="#6896D1"/>
<path opacity="0.3" d="M0 432.978C0 432.978 338.557 597.615 699.311 278.736C699.311 278.736 996.657 -52.7509 1256.58 119.973C1516.49 292.696 1452.99 -141.38 1452.99 -141.38" stroke="#6896D1"/>
<path opacity="0.3" d="M0 440.85C0 440.85 338.557 612.615 699.311 293.736C699.311 293.736 996.525 -33.318 1256.44 139.405C1516.36 312.129 1452.99 -126.38 1452.99 -126.38" stroke="#6896D1"/>
<path opacity="0.3" d="M0 450.528C0 450.528 338.557 625.615 699.311 306.736C699.311 306.736 996.507 -13.6103 1256.43 159.113C1516.35 331.837 1452.99 -113.38 1452.99 -113.38" stroke="#6896D1"/>
<path opacity="0.3" d="M0 458.902C0 458.902 338.557 636.615 699.311 317.736C699.311 317.736 996.979 8.6666 1256.9 181.39C1516.82 354.113 1452.99 -102.38 1452.99 -102.38" stroke="#6896D1"/>
<path opacity="0.3" d="M0 593.6C0 593.6 338.557 843.509 699.311 524.63C699.311 524.63 998.088 312.261 1258.01 484.984C1517.93 657.708 1452.99 241.62 1452.99 241.62" stroke="#6896D1"/>
<path opacity="0.3" d="M0 602.469C0 602.469 338.557 858.509 699.311 539.63C699.311 539.63 998.194 332.492 1258.11 505.216C1518.03 677.939 1452.99 256.62 1452.99 256.62" stroke="#6896D1"/>
<path opacity="0.3" d="M0 610.523C0 610.523 338.557 873.509 699.311 554.63C699.311 554.63 997.201 353.608 1257.12 526.331C1517.04 699.055 1452.99 271.62 1452.99 271.62" stroke="#6896D1"/>
<path opacity="0.3" d="M0 619.729C0 619.729 338.557 886.509 699.311 567.63C699.311 567.63 996.657 373.249 1256.58 545.973C1516.49 718.696 1452.99 284.62 1452.99 284.62" stroke="#6896D1"/>
<path opacity="0.3" d="M0 629.091C0 629.091 338.557 901.509 699.311 582.63C699.311 582.63 996.525 392.682 1256.44 565.405C1516.36 738.129 1452.99 299.62 1452.99 299.62" stroke="#6896D1"/>
<path opacity="0.3" d="M0 638.126C0 638.126 338.557 914.509 699.311 595.63C699.311 595.63 996.507 412.39 1256.43 585.113C1516.35 757.837 1452.99 312.62 1452.99 312.62" stroke="#6896D1"/>
<path opacity="0.3" d="M0 646.927C0 646.927 338.557 925.509 699.311 606.63C699.311 606.63 996.979 434.667 1256.9 607.39C1516.82 780.113 1452.99 323.62 1452.99 323.62" stroke="#6896D1"/>
<path opacity="0.3" d="M0 532.659C0 532.659 338.557 751.041 699.311 432.162C699.311 432.162 998.088 170.261 1258.01 342.984C1517.93 515.708 1452.99 99.6201 1452.99 99.6201" stroke="#6896D1"/>
<path opacity="0.3" d="M0 540.956C0 540.956 338.557 766.041 699.311 447.162C699.311 447.162 998.194 190.492 1258.11 363.216C1518.03 535.939 1452.99 114.62 1452.99 114.62" stroke="#6896D1"/>
<path opacity="0.3" d="M0 549.493C0 549.493 338.557 781.041 699.311 462.162C699.311 462.162 997.201 211.608 1257.12 384.331C1517.04 557.055 1452.99 129.62 1452.99 129.62" stroke="#6896D1"/>
<path opacity="0.3" d="M0 558.183C0 558.183 338.557 794.041 699.311 475.162C699.311 475.162 996.657 231.249 1256.58 403.973C1516.49 576.696 1452.99 142.62 1452.99 142.62" stroke="#6896D1"/>
<path opacity="0.3" d="M0 566.055C0 566.055 338.557 809.041 699.311 490.162C699.311 490.162 996.525 250.682 1256.44 423.405C1516.36 596.129 1452.99 157.62 1452.99 157.62" stroke="#6896D1"/>
<path opacity="0.3" d="M0 302.471C0 302.471 338.557 374.089 699.311 55.2101C699.311 55.2101 998.088 -355.739 1258.01 -183.016C1517.93 -10.2924 1452.99 -426.38 1452.99 -426.38" stroke="#6896D1"/>
<path opacity="0.3" d="M0 311.34C0 311.34 338.557 389.089 699.311 70.2101C699.311 70.2101 998.194 -335.508 1258.11 -162.784C1518.03 9.93904 1452.99 -411.38 1452.99 -411.38" stroke="#6896D1"/>
<path opacity="0.3" d="M0 319.394C0 319.394 338.557 404.089 699.311 85.2101C699.311 85.2101 997.201 -314.393 1257.12 -141.669C1517.04 31.0543 1452.99 -396.38 1452.99 -396.38" stroke="#6896D1"/>
<path opacity="0.3" d="M0 328.599C0 328.599 338.557 417.089 699.311 98.2101C699.311 98.2101 996.657 -294.751 1256.58 -122.028C1516.49 50.6957 1452.99 -383.38 1452.99 -383.38" stroke="#6896D1"/>
<path opacity="0.3" d="M0 337.962C0 337.962 338.557 432.089 699.311 113.21C699.311 113.21 996.525 -275.318 1256.44 -102.595C1516.36 70.1286 1452.99 -368.38 1452.99 -368.38" stroke="#6896D1"/>
<path opacity="0.3" d="M0 346.996C0 346.996 338.557 445.089 699.311 126.21C699.311 126.21 996.507 -255.611 1256.43 -82.8871C1516.35 89.8363 1452.99 -355.38 1452.99 -355.38" stroke="#6896D1"/>
<path opacity="0.3" d="M0 355.798C0 355.798 338.852 461.975 699.98 139.123C699.98 139.123 996.979 -233.334 1256.9 -60.6102C1516.82 112.113 1452.99 -344.38 1452.99 -344.38" stroke="#6896D1"/>
<path opacity="0.3" d="M0 241.53C0 241.53 338.557 281.622 699.311 -37.2572C699.311 -37.2572 998.088 -497.739 1258.01 -325.016C1517.93 -152.292 1452.99 -568.38 1452.99 -568.38" stroke="#6896D1"/>
<path opacity="0.3" d="M0 249.827C0 249.827 338.557 296.622 699.311 -22.2572C699.311 -22.2572 998.194 -477.508 1258.11 -304.784C1518.03 -132.061 1452.99 -553.38 1452.99 -553.38" stroke="#6896D1"/>
<path opacity="0.3" d="M0 258.363C0 258.363 338.557 311.622 699.311 -7.2572C699.311 -7.2572 997.201 -456.393 1257.12 -283.669C1517.04 -110.946 1452.99 -538.38 1452.99 -538.38" stroke="#6896D1"/>
<path opacity="0.3" d="M0 267.054C0 267.054 338.557 324.622 699.311 5.7428C699.311 5.7428 996.657 -436.751 1256.58 -264.028C1516.49 -91.3043 1452.99 -525.38 1452.99 -525.38" stroke="#6896D1"/>
<path opacity="0.3" d="M0 274.926C0 274.926 338.557 339.622 699.311 20.7428C699.311 20.7428 996.525 -417.318 1256.44 -244.595C1516.36 -71.8714 1452.99 -510.38 1452.99 -510.38" stroke="#6896D1"/>
<path opacity="0.3" d="M0 284.603C0 284.603 338.557 352.622 699.311 33.7428C699.311 33.7428 996.507 -397.611 1256.43 -224.887C1516.35 -52.1637 1452.99 -497.38 1452.99 -497.38" stroke="#6896D1"/>
<path opacity="0.3" d="M0 292.977C0 292.977 338.557 363.622 699.311 44.7428C699.311 44.7428 996.979 -375.334 1256.9 -202.61C1516.82 -29.8868 1452.99 -486.38 1452.99 -486.38" stroke="#6896D1"/>
<path opacity="0.3" d="M0 366.735C0 366.735 336.226 476.513 696.98 157.634C696.98 157.634 998.088 -213.739 1258.01 -41.0158C1517.93 131.708 1452.99 -284.38 1452.99 -284.38" stroke="#6896D1"/>
<path opacity="0.3" d="M0 375.032C0 375.032 338.557 493.048 699.311 174.169C699.311 174.169 998.194 -193.508 1258.11 -20.7841C1518.03 151.939 1452.99 -269.38 1452.99 -269.38" stroke="#6896D1"/>
<path opacity="0.3" d="M0 383.569C0 383.569 338.557 508.048 699.311 189.169C699.311 189.169 997.201 -172.392 1257.12 0.331146C1517.04 173.055 1452.99 -254.38 1452.99 -254.38" stroke="#6896D1"/>
<path opacity="0.3" d="M0 392.259C0 392.259 338.557 521.048 699.311 202.169C699.311 202.169 996.657 -152.751 1256.58 19.9725C1516.49 192.696 1452.99 -241.38 1452.99 -241.38" stroke="#6896D1"/>
<path opacity="0.3" d="M0 400.131C0 400.131 338.557 536.048 699.311 217.169C699.311 217.169 996.525 -133.318 1256.44 39.4054C1516.36 212.129 1452.99 -226.38 1452.99 -226.38" stroke="#6896D1"/>
<path opacity="0.3" d="M0 225.587C0 225.587 338.557 251.615 699.311 -67.2642C699.311 -67.2642 998.088 -416.739 1258.01 -244.016C1517.93 -71.2924 1452.99 -487.38 1452.99 -487.38" stroke="#6896D1"/>
<path opacity="0.3" d="M0 233.883C0 233.883 338.557 266.615 699.311 -52.2642C699.311 -52.2642 998.194 -396.508 1258.11 -223.784C1518.03 -51.061 1452.99 -472.38 1452.99 -472.38" stroke="#6896D1"/>
<path opacity="0.3" d="M0 120.603C0 120.603 338.557 71.0891 699.311 -247.79C699.311 -247.79 998.088 -658.739 1258.01 -486.016C1517.93 -313.292 1452.99 -729.38 1452.99 -729.38" stroke="#6896D1"/>
<path opacity="0.3" d="M0 129.473C0 129.473 338.557 86.0891 699.311 -232.79C699.311 -232.79 998.194 -638.508 1258.11 -465.784C1518.03 -293.061 1452.99 -714.38 1452.99 -714.38" stroke="#6896D1"/>
<path opacity="0.3" d="M0 137.527C0 137.527 338.557 101.089 699.311 -217.79C699.311 -217.79 997.201 -617.393 1257.12 -444.669C1517.04 -271.946 1452.99 -699.38 1452.99 -699.38" stroke="#6896D1"/>
<path opacity="0.3" d="M0 146.732C0 146.732 338.557 114.089 699.311 -204.79C699.311 -204.79 996.657 -597.751 1256.58 -425.028C1516.49 -252.304 1452.99 -686.38 1452.99 -686.38" stroke="#6896D1"/>
<path opacity="0.3" d="M0 156.094C0 156.094 338.557 129.089 699.311 -189.79C699.311 -189.79 996.525 -578.318 1256.44 -405.595C1516.36 -232.871 1452.99 -671.38 1452.99 -671.38" stroke="#6896D1"/>
<path opacity="0.3" d="M0 165.129C0 165.129 338.557 142.089 699.311 -176.79C699.311 -176.79 996.507 -558.611 1256.43 -385.887C1516.35 -213.164 1452.99 -658.38 1452.99 -658.38" stroke="#6896D1"/>
<path opacity="0.3" d="M0 173.93C0 173.93 338.183 157.062 699.311 -165.79C699.311 -165.79 996.979 -536.334 1256.9 -363.61C1516.82 -190.887 1452.99 -647.38 1452.99 -647.38" stroke="#6896D1"/>
<path opacity="0.3" d="M0 59.6624C0 59.6624 338.557 -21.3782 699.311 -340.257C699.311 -340.257 998.088 -800.739 1258.01 -628.016C1517.93 -455.292 1452.99 -871.38 1452.99 -871.38" stroke="#6896D1"/>
<path opacity="0.3" d="M0 67.959C0 67.959 338.557 -6.37817 699.311 -325.257C699.311 -325.257 998.194 -780.508 1258.11 -607.784C1518.03 -435.061 1452.99 -856.38 1452.99 -856.38" stroke="#6896D1"/>
<path opacity="0.3" d="M0 76.4959C0 76.4959 338.557 8.62183 699.311 -310.257C699.311 -310.257 997.201 -759.393 1257.12 -586.669C1517.04 -413.946 1452.99 -841.38 1452.99 -841.38" stroke="#6896D1"/>
<path opacity="0.3" d="M0 85.1859C0 85.1859 338.557 21.6218 699.311 -297.257C699.311 -297.257 996.657 -739.751 1256.58 -567.028C1516.49 -394.304 1452.99 -828.38 1452.99 -828.38" stroke="#6896D1"/>
<path opacity="0.3" d="M0 93.0585C0 93.0585 338.557 36.6218 699.311 -282.257C699.311 -282.257 996.525 -720.318 1256.44 -547.595C1516.36 -374.871 1452.99 -813.38 1452.99 -813.38" stroke="#6896D1"/>
<path opacity="0.3" d="M0 102.736C0 102.736 338.557 49.6218 699.311 -269.257C699.311 -269.257 996.507 -700.611 1256.43 -527.887C1516.35 -355.164 1452.99 -800.38 1452.99 -800.38" stroke="#6896D1"/>
<path opacity="0.3" d="M0 111.11C0 111.11 338.557 60.6218 699.311 -258.257C699.311 -258.257 996.979 -678.334 1256.9 -505.61C1516.82 -332.887 1452.99 -789.38 1452.99 -789.38" stroke="#6896D1"/>
<path opacity="0.3" d="M0 51.6971C0 51.6971 338.557 -34.9109 699.311 -353.79C699.311 -353.79 998.088 -764.739 1258.01 -592.016C1517.93 -419.292 1452.99 -835.38 1452.99 -835.38" stroke="#6896D1"/>
<path opacity="0.3" d="M0 7.5899C0 7.5899 338.557 -97.3782 699.311 -416.257C699.311 -416.257 997.201 -865.393 1257.12 -692.669C1517.04 -519.946 1452.99 -947.38 1452.99 -947.38" stroke="#6896D1"/>
<path opacity="0.3" d="M0 16.2799C0 16.2799 338.557 -84.3782 699.311 -403.257C699.311 -403.257 996.657 -845.751 1256.58 -673.028C1516.49 -500.304 1452.99 -934.38 1452.99 -934.38" stroke="#6896D1"/>
<path opacity="0.3" d="M0 24.1525C0 24.1525 338.557 -69.3782 699.311 -388.257C699.311 -388.257 996.525 -826.318 1256.44 -653.595C1516.36 -480.871 1452.99 -919.38 1452.99 -919.38" stroke="#6896D1"/>
<path opacity="0.3" d="M0 33.8298C0 33.8298 338.557 -56.3782 699.311 -375.257C699.311 -375.257 996.507 -806.611 1256.43 -633.887C1516.35 -461.164 1452.99 -906.38 1452.99 -906.38" stroke="#6896D1"/>
<path opacity="0.3" d="M0 42.2037C0 42.2037 338.557 -45.3782 699.311 -364.257C699.311 -364.257 996.979 -784.334 1256.9 -611.61C1516.82 -438.887 1452.99 -895.38 1452.99 -895.38" stroke="#6896D1"/>
<path opacity="0.3" d="M0 184.867C0 184.867 338.557 175.048 699.311 -143.831C699.311 -143.831 998.088 -516.739 1258.01 -344.016C1517.93 -171.292 1452.99 -587.38 1452.99 -587.38" stroke="#6896D1"/>
<path opacity="0.3" d="M0 193.164C0 193.164 338.557 190.048 699.311 -128.831C699.311 -128.831 998.194 -496.508 1258.11 -323.784C1518.03 -151.061 1452.99 -572.38 1452.99 -572.38" stroke="#6896D1"/>
<path opacity="0.3" d="M0 201.701C0 201.701 338.557 205.048 699.311 -113.831C699.311 -113.831 997.201 -475.393 1257.12 -302.669C1517.04 -129.946 1452.99 -557.38 1452.99 -557.38" stroke="#6896D1"/>
<path opacity="0.3" d="M0 210.391C0 210.391 338.557 218.048 699.311 -100.831C699.311 -100.831 996.657 -455.751 1256.58 -283.028C1516.49 -110.304 1452.99 -544.38 1452.99 -544.38" stroke="#6896D1"/>
<path opacity="0.3" d="M0 218.263C0 218.263 338.557 233.048 699.311 -85.8308C699.311 -85.8308 996.525 -436.318 1256.44 -263.595C1516.36 -90.8714 1452.99 -529.38 1452.99 -529.38" stroke="#6896D1"/>
<path opacity="0.3" d="M0 575.733C0 575.733 338.557 822.041 699.311 503.162C699.311 503.162 996.507 270.39 1256.43 443.113C1516.35 615.837 1452.99 170.62 1452.99 170.62" stroke="#6896D1"/>
<path opacity="0.3" d="M0 584.107C0 584.107 338.557 833.041 699.311 514.162C699.311 514.162 996.979 292.667 1256.9 465.39C1516.82 638.113 1452.99 181.62 1452.99 181.62" stroke="#6896D1"/>
<path opacity="0.3" d="M0 716.598C0 716.598 338.557 1030.8 699.311 711.924C699.311 711.924 998.088 596.261 1258.01 768.984C1517.93 941.708 1452.99 525.62 1452.99 525.62" stroke="#6896D1"/>
<path opacity="0.3" d="M0 725.467C0 725.467 338.557 1045.8 699.311 726.924C699.311 726.924 998.194 616.492 1258.11 789.216C1518.03 961.939 1452.99 540.62 1452.99 540.62" stroke="#6896D1"/>
<path opacity="0.3" d="M0 733.521C0 733.521 338.557 1060.8 699.311 741.924C699.311 741.924 997.201 637.608 1257.12 810.331C1517.04 983.055 1452.99 555.62 1452.99 555.62" stroke="#6896D1"/>
<path opacity="0.3" d="M0 742.726C0 742.726 338.557 1073.8 699.311 754.924C699.311 754.924 996.657 657.249 1256.58 829.973C1516.49 1002.7 1452.99 568.62 1452.99 568.62" stroke="#6896D1"/>
<path opacity="0.3" d="M0 752.088C0 752.088 338.557 1088.8 699.311 769.924C699.311 769.924 996.525 676.682 1256.44 849.405C1516.36 1022.13 1452.99 583.62 1452.99 583.62" stroke="#6896D1"/>
<path opacity="0.3" d="M0 761.123C0 761.123 338.557 1101.8 699.311 782.924C699.311 782.924 996.507 696.39 1256.43 869.113C1516.35 1041.84 1452.99 596.62 1452.99 596.62" stroke="#6896D1"/>
<path opacity="0.3" d="M0 769.924C0 769.924 338.557 1112.8 699.311 793.924C699.311 793.924 996.979 718.667 1256.9 891.39C1516.82 1064.11 1452.99 607.62 1452.99 607.62" stroke="#6896D1"/>
<path opacity="0.3" d="M0 655.657C0 655.657 338.557 938.336 699.311 619.457C699.311 619.457 998.088 454.261 1258.01 626.984C1517.93 799.708 1452.99 383.62 1452.99 383.62" stroke="#6896D1"/>
<path opacity="0.3" d="M0 663.953C0 663.953 338.557 953.336 699.311 634.457C699.311 634.457 998.194 474.492 1258.11 647.216C1518.03 819.939 1452.99 398.62 1452.99 398.62" stroke="#6896D1"/>
<path opacity="0.3" d="M0 672.49C0 672.49 338.557 968.336 699.311 649.457C699.311 649.457 997.201 495.608 1257.12 668.331C1517.04 841.055 1452.99 413.62 1452.99 413.62" stroke="#6896D1"/>
<path opacity="0.3" d="M0 681.18C0 681.18 338.557 981.336 699.311 662.457C699.311 662.457 996.657 515.249 1256.58 687.973C1516.49 860.696 1452.99 426.62 1452.99 426.62" stroke="#6896D1"/>
<path opacity="0.3" d="M0 689.053C0 689.053 338.557 996.336 699.311 677.457C699.311 677.457 996.525 534.682 1256.44 707.405C1516.36 880.129 1452.99 441.62 1452.99 441.62" stroke="#6896D1"/>
<path opacity="0.3" d="M0 698.73C0 698.73 338.557 1009.34 699.311 690.457C699.311 690.457 996.507 554.39 1256.43 727.113C1516.35 899.837 1452.99 454.62 1452.99 454.62" stroke="#6896D1"/>
<path opacity="0.3" d="M0 707.104C0 707.104 338.557 1020.34 699.311 701.457C699.311 701.457 996.979 576.667 1256.9 749.39C1516.82 922.113 1452.99 465.62 1452.99 465.62" stroke="#6896D1"/>
</g>
</g>
</svg>
