<svg width="1440" height="274" viewBox="0 0 1440 274" fill="none" xmlns="http://www.w3.org/2000/svg">
<rect width="1440" height="274" fill="#D3D8DD"/>
<mask id="mask0_73_574" style="mask-type:luminance" maskUnits="userSpaceOnUse" x="0" y="0" width="1440" height="274">
<rect width="1440" height="274" fill="white"/>
</mask>
<g mask="url(#mask0_73_574)">
<path fill-rule="evenodd" clip-rule="evenodd" d="M599.057 163.123C599.057 164.304 598.105 165.262 596.931 165.262C595.757 165.262 594.805 164.304 594.805 163.123C594.805 161.942 595.757 160.984 596.931 160.984C598.105 160.984 599.057 161.942 599.057 163.123ZM607.989 166.973C609.163 166.973 610.115 166.016 610.115 164.834C610.115 163.653 609.163 162.695 607.989 162.695C606.814 162.695 605.862 163.653 605.862 164.834C605.862 166.016 606.814 166.973 607.989 166.973ZM615.644 172.962C615.644 174.616 614.311 175.957 612.667 175.957C611.023 175.957 609.69 174.616 609.69 172.962C609.69 171.309 611.023 169.968 612.667 169.968C614.311 169.968 615.644 171.309 615.644 172.962ZM591.828 177.668C593.472 177.668 594.805 176.328 594.805 174.674C594.805 173.02 593.472 171.679 591.828 171.679C590.183 171.679 588.851 173.02 588.851 174.674C588.851 176.328 590.183 177.668 591.828 177.668ZM579.494 185.797C581.138 185.797 582.471 184.456 582.471 182.802C582.471 181.148 581.138 179.807 579.494 179.807C577.85 179.807 576.517 181.148 576.517 182.802C576.517 184.456 577.85 185.797 579.494 185.797ZM569.287 204.62C570.932 204.62 572.264 203.279 572.264 201.626C572.264 199.972 570.932 198.631 569.287 198.631C567.643 198.631 566.31 199.972 566.31 201.626C566.31 203.279 567.643 204.62 569.287 204.62ZM588.851 195.208C588.851 196.862 587.518 198.203 585.874 198.203C584.229 198.203 582.897 196.862 582.897 195.208C582.897 193.555 584.229 192.214 585.874 192.214C587.518 192.214 588.851 193.555 588.851 195.208ZM591.402 187.508C592.577 187.508 593.529 186.55 593.529 185.369C593.529 184.188 592.577 183.23 591.402 183.23C590.228 183.23 589.276 184.188 589.276 185.369C589.276 186.55 590.228 187.508 591.402 187.508ZM578.644 191.786C578.644 192.967 577.692 193.925 576.517 193.925C575.343 193.925 574.391 192.967 574.391 191.786C574.391 190.605 575.343 189.647 576.517 189.647C577.692 189.647 578.644 190.605 578.644 191.786ZM581.195 205.904C582.37 205.904 583.322 204.946 583.322 203.765C583.322 202.583 582.37 201.626 581.195 201.626C580.021 201.626 579.069 202.583 579.069 203.765C579.069 204.946 580.021 205.904 581.195 205.904ZM564.184 194.353C564.184 195.534 563.232 196.492 562.057 196.492C560.883 196.492 559.931 195.534 559.931 194.353C559.931 193.172 560.883 192.214 562.057 192.214C563.232 192.214 564.184 193.172 564.184 194.353ZM604.586 183.658C605.761 183.658 606.713 182.7 606.713 181.519C606.713 180.337 605.761 179.38 604.586 179.38C603.412 179.38 602.46 180.337 602.46 181.519C602.46 182.7 603.412 183.658 604.586 183.658Z" fill="white"/>
<path fill-rule="evenodd" clip-rule="evenodd" d="M560.608 211.371C554.261 206.295 549.529 198.148 552.304 191.631C555.079 185.113 566.977 180.787 574.82 174.512C582.663 168.237 587.449 155.566 594.808 153.128C602.168 150.689 611.045 153.982 616.612 159.341C622.179 164.7 627.141 170.991 623.529 178.436C619.918 185.88 608.144 187.877 600.891 194.907C593.638 201.938 588.524 213.718 582.181 216.151C575.839 218.584 566.954 216.446 560.608 211.371Z" stroke="white" stroke-width="2.5"/>
<path d="M551.323 211.684C551.323 211.684 554.101 221.48 561.31 226.416C568.519 231.352 573.65 233.146 581.526 230.679C589.401 228.213 593.278 216.212 599.76 210.676C609.805 202.099 625.895 197.452 624.759 187.313" stroke="white" stroke-width="2.5" stroke-linecap="round"/>
<path d="M843.758 86.9655L826.316 38.1337C825.413 35.6058 826.693 32.8193 829.199 31.8576V31.8576C831.772 30.8701 834.656 32.1785 835.607 34.7653L839.319 44.8545" stroke="white" stroke-width="2.5" stroke-linecap="round"/>
<path d="M839.465 45.2587L832.363 25.7011C831.446 23.1739 832.722 20.3773 835.232 19.414V19.414C837.798 18.4292 840.674 19.7326 841.625 22.3114L846.918 36.6604" stroke="white" stroke-width="2.5" stroke-linecap="round"/>
<path d="M845.42 32.0925L841.124 20.2636C840.208 17.7404 841.482 14.9482 843.988 13.9864V13.9864C846.556 13.001 849.433 14.3102 850.377 16.8935L857.113 35.3295" stroke="white" stroke-width="2.5" stroke-linecap="round"/>
<path d="M854.179 26.8813L851.318 19.0029C850.403 16.4832 851.675 13.6949 854.178 12.7345V12.7345C856.747 11.7486 859.625 13.063 860.562 15.6503L889.284 94.9432" stroke="white" stroke-width="2.5" stroke-linecap="round"/>
<path d="M866.531 79.0369L848.21 52.3536C846.535 49.9142 846.921 46.6123 849.113 44.6246V44.6246C851.327 42.617 854.69 42.5765 856.952 44.5303L865.988 52.3369" stroke="white" stroke-width="2.5" stroke-linecap="round"/>
<path d="M876.249 38.2601L888.649 23.7953C890.413 21.7369 893.507 21.4855 895.581 23.232V23.232C897.653 24.9776 897.932 28.0669 896.207 30.1558L881.637 47.791" stroke="white" stroke-width="2.5" stroke-linecap="round"/>
<path d="M894.083 32.9961L895.072 31.8426C896.809 29.8157 899.858 29.573 901.894 31.2996V31.2996C903.924 33.021 904.189 36.0565 902.487 38.1032L889.211 54.0691" stroke="white" stroke-width="2.5" stroke-linecap="round"/>
<path d="M895.632 46.3489L896.616 45.2006C898.356 43.1708 901.409 42.9278 903.448 44.6568V44.6568C905.477 46.3771 905.745 49.4092 904.05 51.4594L888.355 70.4428" stroke="white" stroke-width="2.5" stroke-linecap="round"/>
<path d="M872.544 27.3396L880.057 18.7849C881.751 16.8556 884.676 16.6314 886.644 18.2797V18.2797C888.637 19.9481 888.909 22.9122 887.254 24.9158L881.872 31.4307" stroke="white" stroke-width="2.5" stroke-linecap="round"/>
<path d="M59.6663 232.292C59.6663 232.292 69.6183 232.454 70.8227 223.728H115.682L112.978 250.519" stroke="white" stroke-width="2.5" stroke-linecap="round" stroke-linejoin="round"/>
<path d="M114.696 236.998C114.696 236.998 126.775 251.579 118.57 257.285C115.173 259.647 108.095 258.586 98.4781 252.527C92.3379 248.659 76.7897 234.971 76.7897 234.971" stroke="white" stroke-width="2.5" stroke-linecap="round" stroke-linejoin="round"/>
<path d="M63.8027 232.202L68.5861 275.759H110.25L112.275 258.524" stroke="white" stroke-width="2.5" stroke-linecap="round" stroke-linejoin="round"/>
<path d="M74.9375 217.774C74.9375 217.774 72.5812 209.453 78.6771 206.397C84.7729 203.341 90.6919 210.599 90.6919 210.599" stroke="white" stroke-width="2.5" stroke-linecap="round" stroke-linejoin="round"/>
<path d="M85.9861 206.181C85.9861 206.181 88.4335 199.555 94.1556 199.408C99.8777 199.262 102.19 205.055 102.19 205.055C102.19 205.055 107.262 203.007 110.286 204.835C113.31 206.663 113.164 210.735 113.164 210.735C113.164 210.735 119.402 211.473 120.2 216.408C120.999 221.344 115.891 223.827 115.891 223.827" stroke="white" stroke-width="2.5" stroke-linecap="round" stroke-linejoin="round"/>
<path d="M64.6376 241.515C64.6376 241.515 56.0176 244.564 52.7067 239.4C49.3958 234.235 54.2964 229.161 54.2964 229.161C54.2964 229.161 51.3646 224.076 53.3981 219.799C55.4317 215.522 61.3631 213.564 66.0567 216.354" stroke="white" stroke-width="2.5" stroke-linecap="round" stroke-linejoin="round"/>
<path d="M60.6648 214.896C60.6648 214.896 59.9774 209.266 62.8092 206.48C65.641 203.694 70.6886 204.681 70.6886 204.681" stroke="white" stroke-width="2.5" stroke-linecap="round" stroke-linejoin="round"/>
<path fill-rule="evenodd" clip-rule="evenodd" d="M264.966 49.4178C265.857 49.9321 266.994 49.6307 267.505 48.7446C268.017 47.8584 267.709 46.723 266.818 46.2086C265.928 45.6942 264.791 45.9956 264.279 46.8818C263.767 47.768 264.075 48.9034 264.966 49.4178ZM257.401 47.6177C258.292 48.1321 259.429 47.8307 259.941 46.9445C260.452 46.0584 260.145 44.923 259.254 44.4086C258.363 43.8942 257.226 44.1956 256.714 45.0818C256.203 45.968 256.51 47.1034 257.401 47.6177ZM254.437 52.7523C255.328 53.2667 256.465 52.9653 256.976 52.0792C257.488 51.193 257.181 50.0576 256.29 49.5432C255.399 49.0288 254.262 49.3302 253.75 50.2164C253.238 51.1026 253.546 52.238 254.437 52.7523ZM253.827 57.5347C253.315 58.4208 252.178 58.7222 251.287 58.2079C250.396 57.6935 250.089 56.5581 250.6 55.6719C251.112 54.7858 252.249 54.4844 253.14 54.9987C254.031 55.5131 254.338 56.6485 253.827 57.5347ZM263.429 55.8046C262.917 56.6908 261.78 56.9922 260.89 56.4778C259.999 55.9635 259.691 54.8281 260.203 53.9419C260.714 53.0557 261.851 52.7543 262.742 53.2687C263.633 53.7831 263.941 54.9185 263.429 55.8046ZM256.628 63.8588C257.519 64.3732 258.656 64.0718 259.168 63.1856C259.679 62.2995 259.372 61.1641 258.481 60.6497C257.59 60.1353 256.453 60.4367 255.941 61.3229C255.43 62.2091 255.737 63.3445 256.628 63.8588Z" fill="white"/>
<path d="M217.72 44.8185L226.754 50.0342" stroke="white" stroke-width="2.5" stroke-linecap="round"/>
<path d="M213.273 52.5201L222.307 57.7358" stroke="white" stroke-width="2.5" stroke-linecap="round"/>
<path fill-rule="evenodd" clip-rule="evenodd" d="M212.847 52.2906L217.141 44.8538L210.236 40.8675L209.078 35.9436L222.849 30.331C224.554 29.636 226.484 29.7681 228.079 30.6887L249.484 43.047C250.019 43.3557 250.202 44.0392 249.893 44.5738L246.638 50.2117C246.329 50.7462 245.646 50.9294 245.111 50.6208L238.641 46.8851C234.899 44.7247 230.114 46.0068 227.954 49.7487L219.289 64.7563C218.17 66.6947 217.892 69.0063 218.521 71.1546L221.359 80.8617C221.987 83.0099 221.709 85.3216 220.59 87.26L213.48 99.5744L185.626 83.4928C185.626 83.4928 191.658 71.202 198.104 63.8131C204.55 56.4242 212.847 52.2906 212.847 52.2906Z" stroke="white" stroke-width="2.5" stroke-linecap="round" stroke-linejoin="round"/>
<path d="M242.845 40.925C237.243 49.7304 235.453 56.4462 237.474 61.0723" stroke="white" stroke-width="2.5" stroke-linecap="round"/>
<path d="M1199.22 174.443L1227.77 203.393L1244.41 186.924L1262.04 191.436L1293 222.667L1300.94 214.625L1270.25 183.694L1265.68 165.358L1281.93 149.08L1253.21 120.041" stroke="white" stroke-width="2.5" stroke-linecap="round" stroke-linejoin="round"/>
<path d="M1217.07 190.939L1270.19 137.878" stroke="white" stroke-width="2.5" stroke-linecap="round" stroke-linejoin="round"/>
<path d="M1244.94 187.108L1240.7 182.917L1261.73 161.786L1265.66 165.928" stroke="white" stroke-width="2.5" stroke-linecap="round" stroke-linejoin="round"/>
<path d="M1262.37 191.953L1270.14 184.305" stroke="white" stroke-width="2.5" stroke-linecap="round" stroke-linejoin="round"/>
<path d="M1284.68 213.834L1292.46 206.186" stroke="white" stroke-width="2.5" stroke-linecap="round" stroke-linejoin="round"/>
<path d="M1274.06 203.16L1281.83 195.512" stroke="white" stroke-width="2.5" stroke-linecap="round" stroke-linejoin="round"/>
<path d="M1220.61 211.216L1231.92 222.669" stroke="white" stroke-width="2.5" stroke-linecap="round" stroke-linejoin="round"/>
<path d="M1236.01 211.216L1247.33 222.669" stroke="white" stroke-width="2.5" stroke-linecap="round" stroke-linejoin="round"/>
<path d="M1282.23 164.786L1293.55 176.238" stroke="white" stroke-width="2.5" stroke-linecap="round" stroke-linejoin="round"/>
<path d="M1282.23 133.832L1293.55 145.285" stroke="white" stroke-width="2.5" stroke-linecap="round" stroke-linejoin="round"/>
<path d="M1367.32 63.2357L1342.27 54.1178C1340.35 53.4207 1339.36 51.3027 1340.06 49.3872V49.3872C1340.76 47.4717 1342.88 46.4841 1344.79 47.1813L1366.26 54.9938C1372.73 57.3487 1376.06 64.5027 1373.71 70.9728V70.9728C1373.21 72.3315 1371.71 73.032 1370.35 72.5375L1336.16 60.0941" stroke="white" stroke-width="2.5" stroke-linecap="round"/>
<path d="M1339.87 49.9172L1348.57 26.0091C1349.46 23.5557 1352.18 22.2908 1354.63 23.1837L1379.06 32.0762C1383.36 33.6389 1385.57 38.3861 1384.01 42.6795L1375.33 66.5272" stroke="white" stroke-width="2.5"/>
<path fill-rule="evenodd" clip-rule="evenodd" d="M510.888 55.8599C510.888 55.8599 490.683 62.6611 487.189 79.957C487.189 79.957 481.326 59.6475 463 55.8599C463 55.8599 482.521 49.7168 487.189 32C487.189 32 490.254 41.8337 496.35 47.752C501.29 52.5483 510.888 55.8599 510.888 55.8599Z" stroke="white" stroke-width="2.5" stroke-linecap="round" stroke-linejoin="round"/>
<path fill-rule="evenodd" clip-rule="evenodd" d="M1157 40.8961C1157 40.8961 1139.28 46.8525 1136.22 62C1136.22 62 1131.07 44.2132 1115 40.8961C1115 40.8961 1132.12 35.5161 1136.22 20C1136.22 20 1138.9 28.6122 1144.25 33.7953C1148.58 37.9959 1157 40.8961 1157 40.8961Z" stroke="white" stroke-width="2.5" stroke-linecap="round" stroke-linejoin="round"/>
<path fill-rule="evenodd" clip-rule="evenodd" d="M272 217.931C272 217.931 260.186 221.902 258.143 232C258.143 232 254.715 220.142 244 217.931C244 217.931 255.414 214.344 258.143 204C258.143 204 259.935 209.741 263.499 213.197C266.388 215.997 272 217.931 272 217.931Z" stroke="white" stroke-width="2.5" stroke-linecap="round" stroke-linejoin="round"/>
<path fill-rule="evenodd" clip-rule="evenodd" d="M881 232.941C881 232.941 870.874 236.344 869.123 245C869.123 245 866.184 234.836 857 232.941C857 232.941 866.783 229.866 869.123 221C869.123 221 870.659 225.921 873.714 228.883C876.189 231.283 881 232.941 881 232.941Z" stroke="white" stroke-width="2.5" stroke-linecap="round" stroke-linejoin="round"/>
<path fill-rule="evenodd" clip-rule="evenodd" d="M1369 143.965C1369 143.965 1363.09 145.951 1362.07 151C1362.07 151 1360.36 145.071 1355 143.965C1355 143.965 1360.71 142.172 1362.07 137C1362.07 137 1362.97 139.871 1364.75 141.598C1366.19 142.999 1369 143.965 1369 143.965Z" stroke="white" stroke-width="2.5" stroke-linecap="round" stroke-linejoin="round"/>
<path d="M646 48.8647H651.754" stroke="white" stroke-width="3" stroke-linecap="round" stroke-linejoin="round"/>
<path d="M648.877 46V51.7297" stroke="white" stroke-width="3" stroke-linecap="round" stroke-linejoin="round"/>
<path d="M1016 48.8647H1021.75" stroke="white" stroke-width="3" stroke-linecap="round" stroke-linejoin="round"/>
<path d="M1018.88 46V51.7297" stroke="white" stroke-width="3" stroke-linecap="round" stroke-linejoin="round"/>
<path d="M1394 98.7749H1403.59" stroke="white" stroke-width="3" stroke-linecap="round" stroke-linejoin="round"/>
<path d="M1398.8 94V103.55" stroke="white" stroke-width="3" stroke-linecap="round" stroke-linejoin="round"/>
<path d="M1256 38.8647H1261.75" stroke="white" stroke-width="3" stroke-linecap="round" stroke-linejoin="round"/>
<path d="M1258.88 36V41.7297" stroke="white" stroke-width="3" stroke-linecap="round" stroke-linejoin="round"/>
<path d="M1153 237.729H1164.51" stroke="white" stroke-width="3" stroke-linecap="round" stroke-linejoin="round"/>
<path d="M1158.75 232V243.459" stroke="white" stroke-width="3" stroke-linecap="round" stroke-linejoin="round"/>
<path d="M776 208.865H781.754" stroke="white" stroke-width="3" stroke-linecap="round" stroke-linejoin="round"/>
<path d="M778.877 206V211.73" stroke="white" stroke-width="3" stroke-linecap="round" stroke-linejoin="round"/>
<path d="M425 228.82H432.673" stroke="white" stroke-width="3" stroke-linecap="round" stroke-linejoin="round"/>
<path d="M428.836 225V232.64" stroke="white" stroke-width="3" stroke-linecap="round" stroke-linejoin="round"/>
<path d="M356 78.8647H361.754" stroke="white" stroke-width="3" stroke-linecap="round" stroke-linejoin="round"/>
<path d="M358.877 76V81.7297" stroke="white" stroke-width="3" stroke-linecap="round" stroke-linejoin="round"/>
<path d="M63 49H75" stroke="white" stroke-width="3" stroke-linecap="round" stroke-linejoin="round"/>
<path d="M69 43V55" stroke="white" stroke-width="3" stroke-linecap="round" stroke-linejoin="round"/>
<path d="M126 138.865H131.754" stroke="white" stroke-width="3" stroke-linecap="round" stroke-linejoin="round"/>
<path d="M128.877 136V141.73" stroke="white" stroke-width="3" stroke-linecap="round" stroke-linejoin="round"/>
<ellipse cx="720" cy="46.6104" rx="14" ry="20.3897" stroke="white" stroke-width="2.5"/>
<path d="M713.786 47.877C713.786 47.877 711.137 52.0335 712.373 55.7456C713.609 59.4578 716.449 60.926 716.449 60.926" stroke="white" stroke-width="2.5" stroke-linecap="round"/>
<ellipse cx="46" cy="114.578" rx="10" ry="14.422" stroke="white" stroke-width="2.5"/>
<path d="M42.5614 115.474C42.5614 115.474 40.8646 118.684 41.5522 121.04C42.2397 123.395 44.27 124.106 44.27 124.106" stroke="white" stroke-width="2.5" stroke-linecap="round"/>
<ellipse cx="386" cy="265.578" rx="10" ry="14.422" stroke="white" stroke-width="2.5"/>
<path d="M382.561 266.474C382.561 266.474 380.865 269.684 381.552 272.04C382.24 274.395 384.27 275.106 384.27 275.106" stroke="white" stroke-width="2.5" stroke-linecap="round"/>
<ellipse cx="1385" cy="210.086" rx="11" ry="15.9139" stroke="white" stroke-width="2.5"/>
<path d="M1380.12 211.075C1380.12 211.075 1378.04 214.319 1379.01 217.216C1379.98 220.113 1382.21 221.259 1382.21 221.259" stroke="white" stroke-width="2.5" stroke-linecap="round"/>
<path d="M1008.3 206.428C1016.41 206.428 1015.23 211.935 1022.96 211.935C1030.7 211.935 1030.95 206.428 1039.2 206.428C1047.44 206.428 1047.75 211.935 1055.92 211.935C1064.09 211.935 1063.78 206.428 1071.91 206.428C1080.03 206.428 1080.44 211.935 1088.4 211.935C1096.35 211.935 1095.62 206.428 1103.78 206.428" stroke="white" stroke-width="2.5"/>
<path d="M1008.3 222.285C1016.41 222.285 1015.23 227.792 1022.96 227.792C1030.7 227.792 1030.95 222.285 1039.2 222.285C1047.44 222.285 1047.75 227.792 1055.92 227.792C1064.09 227.792 1063.78 222.285 1071.91 222.285C1080.03 222.285 1080.44 227.792 1088.4 227.792C1096.35 227.792 1095.62 222.285 1103.78 222.285" stroke="white" stroke-width="2.5"/>
<path d="M1008.3 237.261C1016.41 237.261 1015.23 242.768 1022.96 242.768C1030.7 242.768 1030.95 237.261 1039.2 237.261C1047.44 237.261 1047.75 242.768 1055.92 242.768C1064.09 242.768 1063.78 237.261 1071.91 237.261C1080.03 237.261 1080.44 242.768 1088.4 242.768C1096.35 242.768 1095.62 237.261 1103.78 237.261" stroke="white" stroke-width="2.5"/>
</g>
</svg>
