<svg width="29" height="31" viewBox="0 0 29 31" fill="none" xmlns="http://www.w3.org/2000/svg">
<g id="icon">
<path id="Path 107" opacity="0.78" fill-rule="evenodd" clip-rule="evenodd" d="M13.564 9.80882C13.5841 9.54832 13.8013 9.34717 14.0626 9.34717H14.4804C14.7373 9.34717 14.9523 9.54182 14.9779 9.79742L15.5995 16.0138L20.0143 18.5365C20.1701 18.6256 20.2662 18.7912 20.2662 18.9707V19.3592C20.2662 19.6889 19.9527 19.9283 19.6346 19.8416L13.3315 18.1226C13.1002 18.0595 12.9462 17.841 12.9646 17.6018L13.564 9.80882Z" fill="#FF564F"/>
<path id="Combined Shape" opacity="0.901274" fill-rule="evenodd" clip-rule="evenodd" d="M7.65462 0.984587C7.39051 0.669838 6.88057 0.790308 6.78524 1.18997L5.15177 8.03811C5.0741 8.36376 5.33217 8.67226 5.66642 8.65332L12.7112 8.2541C13.1221 8.23082 13.3305 7.74879 13.0659 7.43351L11.2645 5.28667C12.4293 4.88862 13.6645 4.68072 14.9329 4.68072C21.1921 4.68072 26.2662 9.75482 26.2662 16.014C26.2662 22.2733 21.1921 27.3474 14.9329 27.3474C8.67363 27.3474 3.59953 22.2733 3.59953 16.014C3.59953 14.9633 3.74182 13.9341 4.01928 12.945L1.45171 12.2248C1.11365 13.43 0.932861 14.7009 0.932861 16.014C0.932861 23.746 7.20087 30.014 14.9329 30.014C22.6648 30.014 28.9329 23.746 28.9329 16.014C28.9329 8.28206 22.6648 2.01405 14.9329 2.01405C12.988 2.01405 11.1358 2.41063 9.45259 3.12733L7.65462 0.984587Z" fill="#FF564F"/>
</g>
</svg>
