<svg width="33" height="24" viewBox="0 0 33 24" fill="none" xmlns="http://www.w3.org/2000/svg">
<g id="Group">
<path id="Combined Shape" opacity="0.587821" fill-rule="evenodd" clip-rule="evenodd" d="M7.30164 5.33333C7.30164 8.27885 9.68945 10.6667 12.635 10.6667C15.5805 10.6667 17.9683 8.27885 17.9683 5.33333C17.9683 2.38781 15.5805 0 12.635 0C9.68945 0 7.30164 2.38781 7.30164 5.33333ZM20.635 10.6667C20.635 12.8758 22.4258 14.6667 24.635 14.6667C26.8441 14.6667 28.635 12.8758 28.635 10.6667C28.635 8.45753 26.8441 6.66667 24.635 6.66667C22.4258 6.66667 20.635 8.45753 20.635 10.6667Z" fill="#00A7E7"/>
<path id="Combined Shape_2" fill-rule="evenodd" clip-rule="evenodd" d="M12.6128 13.3335C6.31756 13.3335 1.15269 16.5689 0.635879 22.9324C0.607727 23.2791 1.27063 24.0002 1.60501 24.0002H23.6306C24.6322 24.0002 24.6478 23.1941 24.6322 22.9335C24.2415 16.3911 18.9966 13.3335 12.6128 13.3335ZM31.9096 24.0002L26.7683 24.0002C26.7683 20.9989 25.7767 18.2293 24.1033 16.001C28.6453 16.0506 32.3539 18.347 32.633 23.2002C32.6442 23.3956 32.633 24.0002 31.9096 24.0002Z" fill="#00A7E7"/>
</g>
</svg>
