<svg width="31" height="34" viewBox="0 0 31 34" fill="none" xmlns="http://www.w3.org/2000/svg">
<g id="icon">
<path id="Combined Shape" fill-rule="evenodd" clip-rule="evenodd" d="M0.63501 11.3167L13.5355 18.7648C13.6744 18.845 13.8201 18.9029 13.9683 18.9397V33.3849L1.55507 26.0387C0.984794 25.7012 0.63501 25.0878 0.63501 24.4251V11.3167ZM30.635 11.1187V24.4251C30.635 25.0878 30.2852 25.7012 29.7149 26.0387L17.3017 33.3849V18.8131C17.3319 18.798 17.3619 18.7819 17.3916 18.7648L30.635 11.1187Z" fill="#FF912C"/>
<path id="Path" opacity="0.499209" fill-rule="evenodd" clip-rule="evenodd" d="M1.04028 7.70142C1.19786 7.50244 1.39675 7.33426 1.62863 7.21076L14.7536 0.2201C15.3046 -0.0733665 15.9655 -0.0733665 16.5165 0.2201L29.6415 7.21076C29.8202 7.30596 29.9794 7.42771 30.1151 7.56966L15.725 15.8778C15.6303 15.9325 15.5431 15.995 15.4636 16.064C15.3841 15.995 15.2968 15.9325 15.2022 15.8778L1.04028 7.70142Z" fill="#FF912C"/>
</g>
</svg>
