<svg width="29" height="28" viewBox="0 0 29 28" fill="none" xmlns="http://www.w3.org/2000/svg">
<g id="icon">
<path id="Path 95" d="M4.04397 24.8889H27.3773C28.2364 24.8889 28.9329 25.5853 28.9329 26.4444C28.9329 27.3036 28.2364 28 27.3773 28H2.48842C1.62931 28 0.932861 27.3036 0.932861 26.4444V1.55556C0.932861 0.696446 1.62931 0 2.48842 0C3.34753 0 4.04397 0.696446 4.04397 1.55556V24.8889Z" fill="#34C759"/>
<path id="Path 97" opacity="0.5" d="M9.84543 18.175C9.25785 18.8017 8.27343 18.8335 7.64668 18.2459C7.01993 17.6583 6.98817 16.6739 7.57575 16.0472L13.4091 9.82494C13.9773 9.21879 14.9216 9.16623 15.5537 9.70555L20.1577 13.6343L26.1563 6.03606C26.6887 5.36176 27.6668 5.24668 28.3411 5.77903C29.0154 6.31137 29.1305 7.28955 28.5982 7.96385L21.5982 16.8305C21.0514 17.5231 20.0387 17.6227 19.3675 17.0499L14.6634 13.0358L9.84543 18.175Z" fill="#34C759"/>
</g>
</svg>
