<svg width="114" height="45" viewBox="0 0 114 45" fill="none" xmlns="http://www.w3.org/2000/svg">
<path d="M97.862 31.2966L95.6498 44.5696H87.1699L91.1026 20.9732H99.1524L98.415 25.459H98.6608C99.4085 23.9535 100.499 22.7808 101.933 21.941C103.377 21.091 104.97 20.666 106.711 20.666C108.38 20.666 109.768 21.0449 110.874 21.8028C111.98 22.5607 112.763 23.6053 113.224 24.9367C113.685 26.2681 113.767 27.794 113.47 29.5146L110.951 44.5696H102.471L104.683 31.2966C104.877 30.1291 104.734 29.2125 104.253 28.5468C103.782 27.8811 103.003 27.5482 101.918 27.5482C101.231 27.5482 100.602 27.7019 100.028 28.0091C99.4648 28.3061 98.9937 28.7363 98.6148 29.2995C98.2461 29.8526 97.9951 30.5183 97.862 31.2966Z" fill="#12153A"/>
<path d="M70.2232 44.9382C68.728 44.9382 67.4427 44.6924 66.3673 44.2009C65.3022 43.699 64.5238 42.9412 64.0322 41.9273C63.5509 40.9031 63.4434 39.6127 63.7096 38.056C63.9247 36.7656 64.3293 35.6646 64.9233 34.7531C65.5173 33.8416 66.2546 33.094 67.1354 32.5102C68.0162 31.9265 69.0045 31.481 70.1003 31.1737C71.2064 30.8562 72.3739 30.6514 73.6029 30.5592C74.9343 30.4568 76.0148 30.3288 76.8443 30.1752C77.6739 30.0216 78.2935 29.8116 78.7031 29.5453C79.1128 29.2791 79.3586 28.9206 79.4405 28.47V28.4085C79.5327 27.794 79.3688 27.3229 78.9489 26.9952C78.5393 26.6675 77.9658 26.5036 77.2284 26.5036C76.4295 26.5036 75.7382 26.6777 75.1545 27.0259C74.581 27.3741 74.1867 27.9169 73.9716 28.6543H66.1676C66.4953 27.2205 67.1661 25.8994 68.18 24.6909C69.2042 23.4721 70.5612 22.4992 72.251 21.7721C73.9511 21.0347 75.9789 20.666 78.3344 20.666C80.014 20.666 81.4888 20.8657 82.7588 21.2651C84.0287 21.6543 85.0785 22.2022 85.908 22.9089C86.7478 23.6053 87.3367 24.4246 87.6747 25.3668C88.0229 26.2988 88.1048 27.3127 87.9205 28.4085L85.2167 44.5696H77.2898L77.8429 41.2513H77.6585C77.044 42.1321 76.3527 42.8439 75.5846 43.3867C74.8268 43.9295 73.9972 44.3238 73.0959 44.5696C72.2049 44.8153 71.2474 44.9382 70.2232 44.9382ZM73.9101 39.5922C74.5451 39.5922 75.1698 39.4591 75.7843 39.1928C76.3988 38.9265 76.9262 38.5425 77.3666 38.0406C77.807 37.5388 78.0887 36.9294 78.2116 36.2125L78.5188 34.2462C78.2935 34.3383 78.0426 34.4254 77.7661 34.5073C77.4998 34.579 77.2181 34.6507 76.9211 34.7224C76.6344 34.7941 76.3271 34.8607 75.9994 34.9221C75.6819 34.9835 75.3542 35.045 75.0162 35.1064C74.3403 35.2089 73.7719 35.3778 73.311 35.6134C72.8501 35.8387 72.4917 36.1203 72.2357 36.4583C71.9796 36.786 71.8209 37.1547 71.7594 37.5644C71.6673 38.2096 71.8158 38.7114 72.2049 39.0699C72.6044 39.4181 73.1728 39.5922 73.9101 39.5922Z" fill="#12153A"/>
<path d="M30.3103 24.906H21.769C21.8304 24.1789 21.7894 23.5234 21.6461 22.9396C21.5027 22.3559 21.2569 21.8541 20.9087 21.4342C20.5605 21.004 20.1047 20.6763 19.5414 20.451C18.9782 20.2257 18.3073 20.113 17.529 20.113C16.0337 20.113 14.6972 20.4868 13.5195 21.2344C12.3417 21.9718 11.3636 23.0318 10.5853 24.4144C9.80692 25.7868 9.25388 27.4254 8.92616 29.3303C8.6394 31.1738 8.62915 32.7049 8.89543 33.9236C9.17195 35.1424 9.70963 36.0538 10.5085 36.6581C11.3175 37.2623 12.3673 37.5645 13.6577 37.5645C14.518 37.5645 15.3066 37.462 16.0235 37.2572C16.7506 37.0524 17.3958 36.7605 17.9591 36.3816C18.5326 35.9924 19.0191 35.5315 19.4185 34.999C19.8282 34.4562 20.1406 33.857 20.3556 33.2016H28.9585C28.6307 34.533 28.047 35.8951 27.2072 37.2879C26.3674 38.6705 25.2818 39.9456 23.9504 41.1131C22.619 42.2704 21.052 43.2075 19.2496 43.9244C17.4471 44.6413 15.4192 44.9998 13.1661 44.9998C10.2166 44.9998 7.67158 44.3545 5.53111 43.0641C3.40089 41.7737 1.85443 39.8893 0.891729 37.4108C-0.0607269 34.9324 -0.250194 31.9112 0.323328 28.3471C0.89685 24.906 2.02853 22.023 3.71837 19.6982C5.40821 17.3734 7.46163 15.6221 9.87861 14.4444C12.2956 13.2666 14.8662 12.6777 17.5904 12.6777C19.649 12.6777 21.4924 12.9491 23.1208 13.4919C24.7595 14.0347 26.1369 14.8284 27.2533 15.873C28.3798 16.9074 29.2094 18.1825 29.7419 19.6982C30.2745 21.214 30.464 22.9499 30.3103 24.906Z" fill="#12153A"/>
<path fill-rule="evenodd" clip-rule="evenodd" d="M40.0275 28.7359L42.622 13.1078H34.1421L28.9189 44.5696H37.3989L39.5866 31.3916L37.786 30.1912C37.6583 30.106 37.6702 29.9145 37.8075 29.8459L40.0275 28.7359Z" fill="#12153A"/>
<path fill-rule="evenodd" clip-rule="evenodd" d="M44.5323 43.5558C46.1915 44.5185 48.2807 44.9998 50.8001 44.9998C52.9918 44.9998 54.953 44.6721 56.6838 44.0166C58.4249 43.3509 59.8894 42.419 61.0774 41.2207C62.2757 40.0122 63.1513 38.5887 63.7044 36.95H55.9618C55.716 37.4007 55.3883 37.7847 54.9786 38.1022C54.5792 38.4094 54.1184 38.645 53.596 38.8089C53.084 38.9625 52.5412 39.0393 51.9676 39.0393C51.1278 39.0393 50.4417 38.8703 49.9091 38.5323C49.3766 38.1944 49.0027 37.7284 48.7877 37.1344C48.5726 36.5404 48.5265 35.8644 48.6494 35.1066L48.7185 34.7379H64.0731L64.3803 32.7715C64.6875 30.8973 64.6875 29.2177 64.3803 27.7327C64.0833 26.2375 63.5098 24.9624 62.6597 23.9075C61.8097 22.8527 60.7087 22.0487 59.3569 21.4957C58.0152 20.9426 56.4534 20.6661 54.6714 20.6661C52.2339 20.6661 50.032 21.1731 48.0657 22.187C46.1095 23.2009 44.4863 24.6193 43.1958 26.4423C42.7415 27.0893 42.342 27.775 41.9973 28.4994L44.6001 29.8008C44.7061 29.8538 44.7349 29.9758 44.6906 30.0678C44.6704 30.1097 44.6351 30.1453 44.5849 30.1654L43.6597 30.5355L40.9025 31.6383C40.8099 32.028 40.7294 32.4262 40.6611 32.833C40.2309 35.3728 40.3538 37.5543 41.0298 39.3773C41.7057 41.19 42.8732 42.5828 44.5323 43.5558ZM49.5973 30.0678H57.0064C57.1089 29.3918 57.0423 28.7978 56.8067 28.2858C56.5814 27.7634 56.2179 27.3589 55.716 27.0721C55.2244 26.7751 54.6304 26.6266 53.934 26.6266C53.2376 26.6266 52.5821 26.7751 51.9676 27.0721C51.3634 27.3691 50.8462 27.7839 50.4161 28.3165C50.0203 28.8184 49.7474 29.4021 49.5973 30.0678Z" fill="#12153A"/>
<path d="M48.8758 12.1708C48.9174 11.9994 49.1443 11.9618 49.2389 12.1106L50.3784 13.9031C50.4061 13.9468 50.4497 13.978 50.5 13.9902L52.5641 14.491C52.7355 14.5326 52.7731 14.7596 52.6242 14.8542L50.8317 15.9936C50.7881 16.0214 50.7569 16.0649 50.7447 16.1152L50.2438 18.1793C50.2022 18.3507 49.9753 18.3883 49.8807 18.2395L48.7413 16.447C48.7135 16.4033 48.6699 16.3721 48.6196 16.3599L46.5555 15.8591C46.3841 15.8175 46.3465 15.5905 46.4954 15.4959L48.2879 14.3565C48.3315 14.3287 48.3628 14.2851 48.375 14.2349L48.8758 12.1708Z" fill="#12153A"/>
<path d="M55.4201 1.60308C55.4616 1.43168 55.6886 1.3941 55.7832 1.54294L58.3576 5.59285C58.3854 5.63651 58.4289 5.66772 58.4792 5.67991L63.1428 6.81146C63.3142 6.85304 63.3518 7.07999 63.2029 7.1746L59.153 9.749C59.1094 9.77675 59.0782 9.82035 59.066 9.87062L57.9344 14.5342C57.8928 14.7056 57.6659 14.7432 57.5713 14.5943L54.9969 10.5444C54.9691 10.5008 54.9255 10.4695 54.8752 10.4574L50.2117 9.32581C50.0403 9.28422 50.0027 9.05728 50.1515 8.96266L54.2014 6.38827C54.2451 6.36051 54.2763 6.31692 54.2885 6.26664L55.4201 1.60308Z" fill="#12153A"/>
</svg>
