<svg width="28" height="28" viewBox="0 0 28 28" fill="none" xmlns="http://www.w3.org/2000/svg">
<path d="M12.6928 18.0908H9.16702C8.82937 18.0908 8.52013 18.2798 8.36611 18.5803L6.77238 21.6894C6.46538 22.2883 6.90029 22.9999 7.57328 22.9999H21.404C22.077 22.9999 22.5119 22.2883 22.2049 21.6894L20.6112 18.5803C20.4572 18.2798 20.1479 18.0908 19.8103 18.0908H16.2845" stroke="#2B3641" stroke-width="1.5" stroke-linecap="round" stroke-linejoin="round"/>
<path fill-rule="evenodd" clip-rule="evenodd" d="M20.3605 10.7273C20.3605 13.2273 17.423 16.8468 15.7035 18.7514C15.0453 19.4804 13.9324 19.4804 13.2742 18.7514C11.5546 16.8468 8.61719 13.2273 8.61719 10.7273C8.61719 7.10273 11.6512 5 14.4888 5C17.3265 5 20.3605 7.10273 20.3605 10.7273Z" stroke="#2B3641" stroke-width="1.5" stroke-linecap="round" stroke-linejoin="round"/>
<path fill-rule="evenodd" clip-rule="evenodd" d="M12.8105 10.7272C12.8105 9.82309 13.5613 9.09082 14.4882 9.09082C15.415 9.09082 16.1658 9.82309 16.1658 10.7272C16.1658 11.6313 15.415 12.3635 14.4882 12.3635C13.5613 12.3635 12.8105 11.6313 12.8105 10.7272V10.7272Z" stroke="#2B3641" stroke-width="1.5" stroke-linecap="round" stroke-linejoin="round"/>
</svg>
