<svg width="1440" height="624" viewBox="0 0 1440 624" fill="none" xmlns="http://www.w3.org/2000/svg">
<path fill-rule="evenodd" clip-rule="evenodd" d="M787.653 23.3049V457.291L903.04 436.585V53.2931L787.653 23.3049Z" fill="#ECEBEB"/>
<path fill-rule="evenodd" clip-rule="evenodd" d="M720.316 46.8052L787.837 23.3203V457.378L720.316 445.31V46.8052Z" fill="#F7F7F7"/>
<path fill-rule="evenodd" clip-rule="evenodd" d="M-29 76.9478L720.918 202.676V205.473L-29 100.906V76.9478Z" fill="#F7F7F7"/>
<path fill-rule="evenodd" clip-rule="evenodd" d="M-29 76.9478L720.326 202.644V203.535L-29 85.5368V76.9478Z" fill="#ECEBEB"/>
<path fill-rule="evenodd" clip-rule="evenodd" d="M69.9445 114.712L66.5762 427.512H88.0208V117.249L69.9445 114.712Z" fill="#F7F7F7"/>
<path fill-rule="evenodd" clip-rule="evenodd" d="M82.4766 116.252V427.512H88.0206V117.249L82.4766 116.252Z" fill="#ECEBEB"/>
<path fill-rule="evenodd" clip-rule="evenodd" d="M187.704 130.894V414.146H202.092V133.105L187.704 130.894Z" fill="#F7F7F7"/>
<path fill-rule="evenodd" clip-rule="evenodd" d="M197.712 132.319V414.146H202.093V133.105L197.712 132.319Z" fill="#ECEBEB"/>
<path fill-rule="evenodd" clip-rule="evenodd" d="M285.957 144.684V408.638H300.051V146.669L285.957 144.684Z" fill="#F7F7F7"/>
<path fill-rule="evenodd" clip-rule="evenodd" d="M297.704 146.286V408.638H300.051V146.669L297.704 146.286Z" fill="#ECEBEB"/>
<path fill-rule="evenodd" clip-rule="evenodd" d="M10.1406 442.883L721.361 362.668V357.139L10.1406 424.224V442.883Z" fill="#F7F7F7"/>
<path fill-rule="evenodd" clip-rule="evenodd" d="M447.951 166.059V388H456.897V167.08L447.951 166.059Z" fill="#F7F7F7"/>
<path fill-rule="evenodd" clip-rule="evenodd" d="M511.756 175.351L519.222 176.417V381H511.756V175.351Z" fill="#F7F7F7"/>
<path fill-rule="evenodd" clip-rule="evenodd" d="M720.343 331.796H699.585C699.585 331.796 675.605 334.122 672.045 359.435C672.045 359.435 669.15 392.424 699.585 406.061L698.226 413.219L711.934 414.533L713.925 404.405H705.984C705.984 404.405 676.222 388.489 678.228 359.435C678.228 359.435 680.61 339.348 699.585 336.871C699.585 336.871 713.399 336.399 720.306 336.163C720.306 334.34 720.343 331.796 720.343 331.796Z" fill="#E3E3E3"/>
<path fill-rule="evenodd" clip-rule="evenodd" d="M570.243 183.673L572.282 377H578.247L575.625 183.673H570.243Z" fill="#F7F7F7"/>
<path fill-rule="evenodd" clip-rule="evenodd" d="M335.575 113.308V406.933C335.575 406.933 367.126 415.751 398.677 406.933V113.308C398.677 113.308 387.682 105.441 367.126 105.441C346.57 105.441 335.575 113.308 335.575 113.308Z" fill="#F7F7F7"/>
<path fill-rule="evenodd" clip-rule="evenodd" d="M377.053 410.905C384.261 410.272 391.469 408.947 398.677 406.933V113.308C398.677 113.308 386.38 107.084 377.72 106.038C377.053 113.308 377.053 402.735 377.053 410.905Z" fill="#ECEBEB"/>
<path fill-rule="evenodd" clip-rule="evenodd" d="M1361.57 19.3473V502.361C1361.57 502.361 1395.91 524.149 1468 514.123V13.5931C1468 13.5931 1443.73 0.26416 1414.79 0.26416C1385.84 0.26416 1361.57 19.3473 1361.57 19.3473Z" fill="#F4F4F4"/>
<path fill-rule="evenodd" clip-rule="evenodd" d="M1179.93 144.586V405.651L1313.13 414.81V114.622L1179.93 144.586Z" fill="#F7F7F7"/>
<path fill-rule="evenodd" clip-rule="evenodd" d="M902.613 303.925L1180.12 316.564V320.547L902.613 316.564V303.925Z" fill="#E5E5E5"/>
<path fill-rule="evenodd" clip-rule="evenodd" d="M943.61 317.181V416.296L946.506 415.822V317.181H943.61Z" fill="#F1EFEF"/>
<path fill-rule="evenodd" clip-rule="evenodd" d="M1027.61 318.181V401.229L1030.51 400.756V318.181H1027.61Z" fill="#F1EFEF"/>
<path fill-rule="evenodd" clip-rule="evenodd" d="M902.795 423.727L1180.16 373.727V375.883L902.795 427.412V423.727Z" fill="#F1EFEF"/>
<path fill-rule="evenodd" clip-rule="evenodd" d="M568.158 416.582L570.818 404.446L600.241 406.599C600.241 406.599 603.146 410.649 600.241 413.038L568.158 416.582Z" fill="#F2F2F2"/>
<path fill-rule="evenodd" clip-rule="evenodd" d="M554.694 405.105H550.042L545.953 413.923C545.656 414.563 546.099 415.302 546.804 415.342L568.158 416.554L568.73 414.201L554.37 412.675C553.789 412.614 553.385 412.07 553.493 411.496L554.694 405.105Z" fill="#F7F7F7"/>
<path fill-rule="evenodd" clip-rule="evenodd" d="M598.492 417.46L600.55 405.377L631.241 407.598C631.241 407.598 634.146 411.649 631.241 414.038L598.492 417.46Z" fill="#F2F2F2"/>
<path fill-rule="evenodd" clip-rule="evenodd" d="M585.694 406.105H581.042L576.955 414.918C576.658 415.56 577.102 416.3 577.809 416.338L598.504 417.452L598.921 415.024L585.377 413.669C584.794 413.611 584.386 413.066 584.494 412.49L585.694 406.105Z" fill="#F7F7F7"/>
<path fill-rule="evenodd" clip-rule="evenodd" d="M640.272 332.113L555.402 330.929C555.402 330.929 531.422 333.255 527.863 358.568C527.863 358.568 524.967 391.556 555.402 405.194L554.452 410.197C554.233 411.354 555.055 412.449 556.227 412.561L565.948 413.493C566.971 413.591 567.903 412.897 568.101 411.888L569.273 405.924C569.516 404.688 568.57 403.538 567.311 403.538H561.801C561.801 403.538 532.039 387.622 534.045 358.568C534.045 358.568 536.428 338.481 555.402 336.004L640.272 334.286V332.113Z" fill="#E3E3E3"/>
<path fill-rule="evenodd" clip-rule="evenodd" d="M684.875 332.494L586.31 331.796C586.31 331.796 562.33 334.122 558.77 359.435C558.77 359.435 555.875 392.424 586.31 406.061L585.36 411.065C585.14 412.221 585.962 413.316 587.134 413.429L596.855 414.36C597.879 414.458 598.81 413.764 599.008 412.755L600.18 406.791C600.423 405.555 599.477 404.405 598.218 404.405H592.708C592.708 404.405 562.946 388.489 564.953 359.435C564.953 359.435 567.335 339.348 586.31 336.871L684.875 334.666C684.875 334.666 688.886 334.328 691.72 334.666C694.553 335.005 697.685 336.198 697.685 336.198C697.685 336.198 694.931 334.389 691.72 333.461C688.508 332.532 684.875 332.494 684.875 332.494Z" fill="#E3E3E3"/>
<path fill-rule="evenodd" clip-rule="evenodd" d="M545.391 331.796H460.447C460.447 331.796 436.467 334.122 432.908 359.435C432.908 359.435 430.012 392.424 460.447 406.061L459.497 411.065C459.278 412.221 460.1 413.316 461.271 413.429L470.993 414.36C472.016 414.458 472.948 413.764 473.146 412.755L474.318 406.791C474.561 405.555 473.615 404.405 472.356 404.405H466.846C466.846 404.405 437.084 388.489 439.09 359.435C439.09 359.435 441.472 339.348 460.447 336.871L545.391 333.968C545.391 333.968 549.401 333.63 552.235 333.968C555.069 334.307 558.201 335.5 558.201 335.5C558.201 335.5 555.446 333.691 552.235 332.762C549.024 331.834 545.391 331.796 545.391 331.796Z" fill="#E3E3E3"/>
<path fill-rule="evenodd" clip-rule="evenodd" d="M473.158 417.582L475.818 405.446L505.241 407.599C505.241 407.599 508.146 411.649 505.241 414.038L473.158 417.582Z" fill="#F2F2F2"/>
<path fill-rule="evenodd" clip-rule="evenodd" d="M459.694 406.105H455.042L450.953 414.923C450.656 415.563 451.099 416.302 451.804 416.342L473.158 417.554L473.73 415.201L459.37 413.675C458.789 413.614 458.385 413.07 458.493 412.496L459.694 406.105Z" fill="#F7F7F7"/>
<path opacity="0.178404" fill-rule="evenodd" clip-rule="evenodd" d="M977.305 581C812.373 581 1026.69 551.688 859.695 551.688C812.082 551.688 817.047 543.319 812.769 540.532C806.869 536.688 824.238 528.795 869.326 528.795C889.142 528.795 928.224 521.376 943.614 519.751C980.923 515.811 988.633 519.751 1007.01 519.751C1053.38 519.751 1277.24 521.187 1277.24 528.795C1277.24 536.402 1240.47 540.532 1299.35 540.532C1356.28 540.532 1310.63 560.509 1258.63 560.509C1200.85 560.509 1251.64 574.671 1140.94 574.671C1015.09 574.671 1142.24 581 977.305 581Z" fill="#C4CFCF"/>
<path fill-rule="evenodd" clip-rule="evenodd" d="M1113.06 121.7C1113.54 121.831 1115.81 126.928 1124.78 129.254C1133.76 131.58 1133.77 137.884 1134.79 139.673C1135.81 141.461 1135.9 146.347 1134.79 147.605C1133.67 148.863 1134.34 147.165 1134.34 147.165C1134.34 147.165 1134.4 143.44 1131.95 139.673C1131.95 139.673 1133.77 144.912 1129.57 144.912C1125.37 144.912 1128.81 144.736 1128.99 143.15C1129.17 141.565 1128.62 139.187 1128.62 139.187C1128.62 139.187 1128.33 143.431 1126.81 143.686C1125.28 143.942 1124.78 143.686 1124.78 143.686C1124.78 143.686 1123.51 139.896 1121.62 138.545C1119.74 137.194 1117.6 137.88 1116.85 137.67C1116.09 137.461 1115.43 137 1115.43 137C1115.43 137 1113.86 129.269 1113.64 126.949C1113.4 124.346 1113.06 122.524 1113.06 121.7Z" fill="#352E28"/>
<path fill-rule="evenodd" clip-rule="evenodd" d="M1102.06 178.868L1092.9 174.366L1085.66 160.629L1085.16 151.39L1086.76 148.7L1089.75 150.426L1094.64 166.078L1103.01 177.051L1102.06 178.868Z" fill="#20354E"/>
<path fill-rule="evenodd" clip-rule="evenodd" d="M1067.14 119.473C1067.14 119.473 1074.13 140.817 1085.71 148.227C1085.71 148.227 1091.04 152.093 1092.18 153.126C1092.18 153.126 1101.51 155.547 1109.02 139.783C1109.02 139.783 1113.11 130.299 1113.11 121.53C1113.11 121.53 1115.89 122.947 1117.17 119.473C1117.17 119.473 1117.35 115.753 1118.91 111.035C1118.91 111.035 1120.57 102.904 1115.42 101.311H1111.99L1074.73 92L1065.36 107.316L1067.14 119.473Z" fill="#F8CAAB"/>
<path fill-rule="evenodd" clip-rule="evenodd" d="M1076.66 92.2408C1076.66 92.2408 1076.04 95.539 1070.42 100.37C1064.81 105.201 1065.16 108.841 1067.08 118.441C1067.08 118.441 1061.76 116.707 1061.76 104.146C1061.76 104.146 1062.62 90.7428 1072.48 80.1796C1072.48 80.1796 1087.38 69.0705 1102.74 77.9323C1102.74 77.9323 1111.68 83.5341 1115.43 101.261C1115.43 101.261 1109.92 103.231 1111.68 108.281C1111.68 108.281 1109.14 110.972 1106.94 108.281C1106.94 108.281 1106.94 100.37 1101.5 100.37C1096.06 100.37 1093.97 96.2063 1086.98 95.6228C1079.98 95.0393 1080.83 95.3309 1078.97 95.0682C1077.12 94.8055 1076.66 92.2408 1076.66 92.2408Z" fill="#655547"/>
<path fill-rule="evenodd" clip-rule="evenodd" d="M1111.57 404.349C1111.57 404.349 1108.97 413.508 1111.57 419.79C1111.57 419.79 1113.44 423.579 1113.44 429.53C1113.44 429.53 1115.32 438.52 1113.44 443.755C1113.44 443.755 1110.82 445.283 1111.57 454.975C1111.57 454.975 1110.05 469.056 1108.54 471.254C1108.54 471.254 1105.63 480.897 1108.54 487.169C1108.54 487.169 1105.86 504.755 1107.2 509.415C1107.2 509.415 1105.85 518.192 1110.75 521.365C1110.75 521.365 1120.76 522.287 1127.17 529.486C1127.17 529.486 1131.73 526.158 1133.72 518.724C1135.71 511.291 1138.19 500.339 1140.66 495.818C1140.66 495.818 1145.83 475.974 1145.83 466.918C1145.83 466.918 1145.9 442.867 1147.7 435.4C1147.7 435.4 1151.56 408.831 1153.49 406.59V404.349L1113.44 402.5L1111.57 404.349Z" fill="#3B5161"/>
<path fill-rule="evenodd" clip-rule="evenodd" d="M1113.44 443.755C1112.52 445.344 1111.57 442.693 1111.57 454.975C1111.57 454.975 1110.05 469.056 1108.54 471.254C1108.54 471.254 1105.63 480.897 1108.54 487.169C1108.54 487.169 1105.86 504.755 1107.2 509.415C1107.2 509.415 1105.55 522.92 1109.11 527.375C1109.11 527.375 1120.77 522.287 1127.17 529.487C1127.17 529.487 1136.94 527.656 1136.94 517.588C1140.66 513.246 1138.19 500.339 1140.66 495.818C1140.66 495.818 1145.83 475.974 1145.83 466.918C1145.83 466.918 1146.11 449.01 1146.6 443.305C1140.66 442.136 1119.94 445.283 1113.44 443.755Z" fill="#304D63"/>
<path fill-rule="evenodd" clip-rule="evenodd" d="M1113.99 432.714C1114.44 436.886 1113.99 437.321 1113.99 439.766C1113.99 440.756 1112.52 442.424 1112.52 444.977C1112.52 444.977 1128.12 447.671 1134.28 448.131C1146.09 449.012 1146.25 449.516 1146.25 449.516C1146.4 447.028 1146.78 442.268 1147.17 437.271C1147.17 437.271 1139.02 436.869 1128.64 435.787C1118.26 434.706 1113.99 432.714 1113.99 432.714Z" fill="#274156"/>
<path fill-rule="evenodd" clip-rule="evenodd" d="M1113.31 121.608C1113.31 121.608 1115.49 141.251 1119.79 147.29C1119.79 147.29 1121.29 151.11 1119.05 154.981C1119.05 154.981 1114.42 165.674 1108.86 169.25C1108.86 169.25 1105.81 173.328 1105.81 177.812C1105.81 177.812 1099.29 177.228 1094.36 169.745C1094.36 169.745 1090.05 160.978 1088.76 151.967V150.433C1088.76 150.433 1091.46 152.38 1092.68 153.243C1092.68 153.243 1096.45 153.873 1100.23 151.589C1100.23 151.589 1105.63 147.455 1109.26 139.075C1109.26 139.075 1111.75 133.282 1113.02 124.152L1113.1 121.505L1113.31 121.608Z" fill="#EBBFA1"/>
<path fill-rule="evenodd" clip-rule="evenodd" d="M1115.8 137C1115.8 137 1117.24 137.354 1117.71 137.738L1121.56 144.128L1120.98 155.758L1113.87 166.479L1105.93 177.27C1105.93 177.27 1105.28 172.225 1110.59 167.451C1112.95 165.336 1115.34 162.66 1116.76 159.649C1118.54 155.861 1119.07 151.59 1119.28 147.764C1119.28 147.764 1117.86 144.318 1117.26 142.46C1116.7 140.73 1115.8 137 1115.8 137Z" fill="#20354E"/>
<path fill-rule="evenodd" clip-rule="evenodd" d="M1117.71 137C1117.71 137 1123.38 137.616 1124.97 143.601C1124.97 143.601 1132.06 143.868 1134.8 145.367C1134.8 145.367 1152.24 144.815 1156.76 146.7C1156.76 146.7 1174 162.994 1184.48 192.456C1184.48 192.456 1188.49 204.635 1190.39 206.527C1190.39 206.527 1192.59 211.635 1192.59 214.747C1192.59 214.747 1193.08 218.683 1193.97 219.852C1193.97 219.852 1195.36 225.188 1193.97 226.854C1193.97 226.854 1192.74 230.573 1190.39 231.945C1190.39 231.945 1184.94 235.829 1182.82 238.008C1182.82 238.008 1166.81 245.699 1157.55 245.699C1157.55 245.699 1151.19 230.696 1151.62 229.331C1152.05 227.965 1154.19 225.945 1155.48 225.945C1155.48 225.945 1158.09 225.215 1159.04 223.521C1159.04 223.521 1160.86 221.361 1162.91 221.361C1162.91 221.361 1164.82 222.332 1166.09 221.361C1166.09 221.361 1164.56 218.824 1166.81 218.111C1166.81 218.111 1164.51 216.609 1166.44 215.175C1166.44 215.175 1163.8 212.595 1164.57 209.165C1164.57 209.165 1157.5 202.55 1155.48 195.813C1155.48 195.813 1157.5 205.969 1155.48 210.815C1155.48 210.815 1153.93 224.117 1155.22 225.786C1155.22 225.786 1154.22 225.577 1153.95 225.945C1153.69 226.313 1152.89 227.11 1152.89 227.11C1152.89 227.11 1149.34 229.777 1147.51 228.868C1147.51 228.868 1142 206.894 1135.72 196.909L1133.57 195.813C1133.57 195.813 1127.2 195.958 1123.32 196.909C1123.32 196.909 1113.05 198.005 1109.19 196.909C1109.19 196.909 1090.31 198.373 1087.2 200.196C1087.2 200.196 1080.48 202.402 1082.74 200.196C1082.74 200.196 1083.82 197.821 1080.46 199.008C1080.46 199.008 1077.93 200.196 1076.18 200.196L1070.93 201.944C1070.93 201.944 1069.84 203.54 1071.91 206.527C1071.91 206.527 1074.42 212.96 1076.84 220.823C1076.84 220.823 1080.46 229.996 1080.46 234.113C1080.46 238.229 1080.49 250.796 1081.62 252.318C1081.62 252.318 1082.74 273.039 1082.74 279.279L1083.48 286.578C1083.48 286.578 1083.31 287.187 1083.14 287.309C1082.71 287.618 1082.2 287.474 1082.1 287.448C1075.43 285.625 1071.01 287.738 1068.82 293.786C1068.82 293.786 1064.17 295.314 1064.17 289.153C1064.17 289.153 1063.88 282.935 1061.87 277.847C1061.87 277.847 1056.81 270.682 1056.81 263.342C1056.81 263.342 1054.43 251.774 1055.62 244.891C1055.62 244.891 1050.86 224.097 1050.86 214.301C1050.86 214.301 1048.31 196.252 1049.58 184.348C1049.58 184.348 1049.29 180.966 1050.86 179.028C1050.86 179.028 1050.12 175.498 1052.87 174.059C1052.87 174.059 1053.18 171.448 1053.72 170.893C1056.84 167.718 1058.66 167.054 1059.81 167.054C1059.81 167.054 1070.23 161.654 1074.08 159.308L1082.74 155.448C1082.74 155.448 1081.84 149.811 1085.44 148.501C1085.44 148.501 1087.2 148.501 1086.8 151.367C1086.8 151.367 1087.66 167.166 1098.93 176.027C1098.93 176.027 1101.05 176.877 1105.52 177.386C1105.52 177.386 1106.58 169.492 1109.19 169.492C1109.19 169.492 1114.64 164.465 1118.53 157.183C1118.53 157.183 1123.42 144.606 1117.99 139.601C1117.99 139.601 1117.54 139.147 1117.32 138.328C1117.11 137.508 1117.71 137 1117.71 137Z" fill="#4993F3"/>
<path fill-rule="evenodd" clip-rule="evenodd" d="M1156.76 146.7C1156.76 146.7 1174 162.994 1184.48 192.456C1184.48 192.456 1188.49 204.635 1190.39 206.527C1190.39 206.527 1192.59 211.635 1192.59 214.748C1192.59 214.748 1193.08 218.683 1193.97 219.852C1193.97 219.852 1195.36 225.188 1193.97 226.854C1193.97 226.854 1192.74 230.573 1190.39 231.945C1190.39 231.945 1184.94 235.829 1182.82 238.008C1182.82 238.008 1166.81 251.734 1157.64 251.734C1157.64 251.734 1151.19 230.696 1151.62 229.331C1152.05 227.965 1154.19 225.945 1155.48 225.945C1155.48 225.945 1158.09 225.215 1159.04 223.521C1159.04 223.521 1160.86 221.362 1162.91 221.362C1162.91 221.362 1164.82 222.332 1166.09 221.362C1166.09 221.362 1164.56 218.824 1166.81 218.112C1166.81 218.112 1164.51 216.609 1166.44 215.175C1166.44 215.175 1163.8 212.595 1164.57 209.165C1164.57 209.165 1157.5 202.55 1155.48 195.813C1155.48 195.813 1153.92 195.344 1152.91 192.456C1152.2 189.684 1151.17 171.599 1152.91 159.519C1153.91 152.571 1155.65 146.235 1156.76 146.7Z" fill="#579FFD"/>
<path fill-rule="evenodd" clip-rule="evenodd" d="M1070.46 202.387C1070.46 202.387 1069.84 203.382 1071.91 206.368C1071.91 206.368 1074.42 212.802 1076.84 220.664C1076.84 220.664 1080.46 229.837 1080.46 233.954C1080.46 238.071 1080.49 250.637 1081.62 252.159C1081.62 252.159 1082.74 272.88 1082.74 279.12C1082.74 279.12 1083.95 284.063 1083.8 287.589C1083.65 291.115 1082.33 292.804 1082.16 292.927C1081.73 293.235 1082.25 287.615 1082.16 287.589C1075.48 285.766 1073.34 294.151 1071.16 300.199C1071.16 300.199 1064.17 295.351 1064.17 288.994C1064.17 288.994 1063.83 282.834 1061.83 277.747C1061.83 277.747 1056.81 270.523 1056.81 263.183C1056.81 263.183 1054.43 251.615 1055.62 244.732C1055.62 244.732 1050.86 223.938 1050.86 214.142C1050.86 214.142 1048.31 196.093 1049.58 184.189C1049.58 184.189 1049.29 180.807 1050.86 178.869C1050.86 178.869 1050.12 175.339 1052.87 173.9C1052.87 173.9 1056.2 175.286 1060.64 178.869C1063.18 180.917 1063.81 188.774 1066.32 191.5C1068.98 194.394 1068.3 199.01 1068.82 200.653C1069.2 201.842 1070.46 202.387 1070.46 202.387Z" fill="#579FFD"/>
<path fill-rule="evenodd" clip-rule="evenodd" d="M1083.36 182.018C1083.36 182.018 1091.48 181.246 1097.06 178.229C1097.06 178.229 1103.07 177.353 1106.82 177.702C1106.82 177.702 1106.56 177.353 1103.96 177.128C1103.06 177.05 1102.06 176.68 1100.92 176.533C1100.92 176.533 1098.73 177.618 1097.51 176.868C1096.29 176.117 1095.77 175.7 1095.77 175.7L1091.06 176.609L1083.36 181.145V182.018Z" fill="#2E63A6"/>
<path fill-rule="evenodd" clip-rule="evenodd" d="M1048.76 544.521C1048.76 544.521 1050.49 530.684 1046.44 530.684C1045.44 530.684 1038.01 531.728 1035.46 531.214C1030.26 530.166 1026.97 527.032 1025.62 526.697C1024.33 526.377 1014.77 537.033 1013.56 537.777C1012.34 538.52 1007.2 545.119 1005.01 546.117C1005.01 546.117 997.589 550.025 996.399 551.332C996.399 551.332 992.683 556.416 995.41 558.562C995.41 558.562 997.703 561.804 1010.44 560.726C1010.44 560.726 1022.62 558.566 1022.62 555.354C1022.62 555.354 1033.6 548.729 1037.37 548.729L1048.76 544.521Z" fill="#4B4B4B"/>
<path fill-rule="evenodd" clip-rule="evenodd" d="M1149.48 230.268L1151.6 229.811C1151.6 229.811 1152 228.47 1152.47 227.912C1153.7 226.443 1155.34 225.946 1155.34 225.946L1154.07 225.293C1154.07 225.293 1148.17 221.866 1145.46 217.1L1149.48 230.268Z" fill="#3571BD"/>
<path fill-rule="evenodd" clip-rule="evenodd" d="M1083.23 181.974C1083.23 181.974 1081.56 176.338 1081.56 174.16C1081.56 161.333 1082.75 155.355 1082.75 155.355C1082.75 155.355 1081.86 149.794 1085.46 148.484C1085.46 148.484 1087.68 148.7 1087.29 151.566C1087.29 151.566 1087.95 166.512 1099.33 176.15C1099.39 176.2 1100.21 176.479 1101.2 176.792C1101.2 176.792 1099.7 177.585 1098.73 177.465C1097.75 177.344 1096.73 176.494 1096.48 176.313C1096.22 176.133 1096.06 176.262 1095.94 176.313C1088.19 179.7 1084.63 182.371 1083.23 181.974Z" fill="#3571BD"/>
<path fill-rule="evenodd" clip-rule="evenodd" d="M1117.67 168.844C1117.67 168.844 1109.12 167.627 1107.42 170.677C1107.42 170.677 1109.12 169.549 1109.84 169.377C1111.06 169.086 1112.98 169.377 1112.98 169.377C1112.98 169.377 1124.16 174.3 1126.66 171.645C1126.66 171.645 1121.08 170.406 1117.67 168.844Z" fill="#2E63A6"/>
<path fill-rule="evenodd" clip-rule="evenodd" d="M1117.7 136.981C1117.7 136.981 1123.65 137.607 1125.24 143.592C1125.24 143.592 1126.91 147.216 1126.22 149.628C1126.01 150.364 1126.98 159.942 1126.22 165.338C1125.89 167.655 1126.66 171.651 1126.66 171.651C1126.66 171.651 1120.39 170.445 1117.98 170.147C1112.18 169.428 1109.53 169 1109.72 169C1109.72 169 1114.63 164.397 1118.52 157.115C1118.52 157.115 1123.41 144.587 1117.98 139.582C1117.98 139.582 1117.53 139.128 1117.32 138.309C1117.11 137.489 1117.7 136.981 1117.7 136.981Z" fill="#3571BD"/>
<path fill-rule="evenodd" clip-rule="evenodd" d="M1092.95 403.539C1092.95 403.539 1093.04 411.798 1090.2 417.593C1090.2 417.593 1084.35 433.578 1084.35 437.697C1084.35 437.697 1073.4 458.748 1073.4 468.947C1073.4 468.947 1067.15 481.861 1067.15 486.295C1067.15 486.295 1058.45 511.981 1058.45 516.191C1058.45 516.191 1055.76 528.409 1048.28 532.198C1048.28 532.198 1044.05 529.758 1038.53 530.916C1033.01 532.074 1030.47 528.159 1028.4 527.363C1026.88 526.782 1025.33 527.885 1024.32 527.016C1024.32 527.016 1022.62 517.617 1025.95 512.182C1025.95 512.182 1026.46 510.23 1026.46 502.991C1026.46 502.991 1028.21 495.363 1030.78 492.42C1030.78 492.42 1032.31 485.519 1035.02 482.701C1035.02 482.701 1036.82 478.436 1035.02 474.845C1035.02 474.845 1035.06 465.485 1038.53 462.239C1038.53 462.239 1039.78 455.522 1041.91 454.343C1041.91 454.343 1040.91 445.146 1043.01 441.973C1043.01 441.973 1047.31 412.182 1053.46 400.917L1055.04 398L1092.95 400.917V403.539Z" fill="#3B5161"/>
<path fill-rule="evenodd" clip-rule="evenodd" d="M1082.27 441.973C1082.27 441.973 1073.4 458.748 1073.4 468.947C1073.4 468.947 1067.15 481.861 1067.15 486.295C1067.15 486.295 1058.45 511.981 1058.45 516.191C1058.45 516.191 1056.17 529.758 1049.96 532.852C1049.96 532.852 1044.05 529.758 1038.53 530.916C1033.01 532.074 1030.47 528.159 1028.4 527.363C1026.88 526.782 1025.33 527.885 1024.32 527.016C1024.32 527.016 1022.62 517.617 1025.95 512.182C1025.95 512.182 1026.46 510.23 1026.46 502.991C1026.46 502.991 1028.21 495.363 1030.78 492.42C1030.78 492.42 1032.31 485.519 1035.02 482.701C1035.02 482.701 1036.82 478.436 1035.02 474.845C1035.02 474.845 1035.06 465.485 1038.53 462.239C1038.53 462.239 1039.78 455.522 1041.91 454.343C1041.91 454.343 1043.08 440.546 1045.18 437.372C1045.18 437.372 1075.61 441.973 1082.27 441.973Z" fill="#304D63"/>
<path fill-rule="evenodd" clip-rule="evenodd" d="M1045.23 427.7C1044.82 429.376 1044.39 430.893 1043.95 432.253C1043.4 433.954 1042.72 435.98 1041.96 438.215C1041.96 438.215 1060.41 440.214 1069.76 441.47C1079.54 442.785 1081.52 443.651 1081.52 443.651C1082.29 441.386 1084.39 440.788 1084.39 437.869C1084.39 436.885 1084.79 435.03 1085.03 433.189C1085.03 433.189 1074.15 430.552 1067.15 429.523C1060.37 428.527 1045.23 427.7 1045.23 427.7Z" fill="#274156"/>
<path fill-rule="evenodd" clip-rule="evenodd" d="M1083.03 155.265C1083.03 155.265 1082.36 163.614 1080.66 167.155C1080.66 167.155 1080.66 173.545 1080.66 176.766C1080.66 179.986 1076.45 191.232 1076.45 196.21C1076.45 196.21 1075.09 199.112 1076.09 200.195C1076.09 200.195 1085.88 195.592 1082.67 201.015C1082.67 201.015 1090.78 198.556 1097.53 197.871C1104.29 197.185 1112.25 196.21 1120.21 196.826C1120.21 196.826 1125.94 196.835 1127.14 195.324C1127.14 195.324 1128.07 193.609 1128.07 188.524C1128.07 188.524 1127.12 166.176 1126.82 161.743C1126.52 157.309 1126.83 156.721 1126.82 154.856C1126.82 152.733 1127 151.088 1126.23 149.883L1125.25 143.594C1125.25 143.594 1127.14 143.594 1127.89 143.487C1128.63 143.379 1130.19 144.045 1130.19 144.045C1130.19 144.045 1131.23 148.385 1131.48 153.403C1131.73 158.421 1132.49 166.269 1132.49 170.522C1132.49 174.776 1133.86 190.727 1132.49 195.719C1132.49 195.719 1135.34 195.324 1136.87 197.283C1136.87 197.283 1142.57 208.378 1145.01 215.278C1148.45 224.996 1150.93 236.83 1154.92 248.847C1154.92 248.847 1157.81 253.718 1157.81 258.942C1157.81 258.942 1159 263.586 1160.65 265.454C1160.65 265.454 1162.38 269.321 1162.38 274.238C1162.38 274.238 1166.96 281.555 1166.96 289.603C1166.96 289.603 1168.8 309.961 1175.47 329.505C1175.47 329.505 1180.22 340.937 1177.84 354.536C1177.84 354.536 1173.55 392.75 1173.55 400.28C1173.55 400.28 1173.54 406.132 1168.8 406.132C1168.8 406.132 1157.14 406.612 1151.3 404.751C1151.3 404.751 1135.3 406.44 1124.17 403.36C1124.17 403.36 1104.11 401.968 1082.04 403.36C1082.04 403.36 1061.99 402.28 1054.56 400.28C1054.56 400.28 1058.67 353.775 1061.99 341.64C1061.99 341.64 1062.59 328.712 1065.35 324.476C1065.35 324.476 1068.7 324.211 1067.02 317.535C1067.02 317.535 1064.79 314.066 1067.02 310.253C1067.02 310.253 1067.37 301.614 1070.71 299.856C1070.71 299.856 1082.53 293.649 1084.42 289.603C1084.42 289.603 1082.04 278.953 1082.04 276.595C1082.04 276.595 1085.92 268.794 1082.04 262.362L1080.46 243.989L1080.19 233.974C1080.19 233.974 1073.92 209.678 1070.41 203.943C1070.41 203.943 1070.41 201.007 1072.25 192.865C1072.25 192.865 1075.73 179.843 1076.09 174.817C1076.45 169.792 1076.43 161.321 1080.19 156.582L1083.03 155.265Z" fill="#4A6980"/>
<path fill-rule="evenodd" clip-rule="evenodd" d="M1132.41 287.395C1125.06 293.498 1111.74 304.234 1103.68 302.991C1103.68 302.991 1103.86 295.871 1108.2 289.187C1108.2 289.187 1110.86 286.526 1112 285.565C1112 285.565 1107.48 290.815 1107.57 293.57C1107.67 296.325 1128.87 288.857 1139.75 276.906C1139.75 276.906 1139.75 281.293 1132.41 287.395Z" fill="#385469"/>
<path fill-rule="evenodd" clip-rule="evenodd" d="M1117.11 277.015L992.932 563.503L987.424 561.069L1118.5 254.43L1117.11 277.015Z" fill="#E8E8E8"/>
<path opacity="0.795033" fill-rule="evenodd" clip-rule="evenodd" d="M1117 277.288L992.912 563.466L990.494 561.761L1116.44 270.472L1117 277.288Z" fill="#ADACAC"/>
<path fill-rule="evenodd" clip-rule="evenodd" d="M1112.32 268.863C1112.32 268.863 1112.07 267.511 1113.87 263.239L1118.12 252.538H1118.41L1126.54 255.275C1126.54 255.275 1121.81 269.213 1120.78 271.003C1119.76 272.793 1114.51 270.392 1112.32 268.863Z" fill="#061D2C"/>
<path fill-rule="evenodd" clip-rule="evenodd" d="M1152.06 229.7L1145.4 231.152C1145.4 231.152 1135.85 233.62 1132.8 237.107C1132.8 237.107 1125.93 242.931 1123.65 243.873C1123.65 243.873 1118.42 246.21 1116.52 247.154C1114.62 248.098 1114.39 249.924 1113.55 251.242C1113.55 251.242 1111.61 254.783 1110.64 256.195C1109.68 257.607 1110.72 262.849 1109.46 263.628C1109.46 263.628 1113.31 264.862 1114.61 257.59C1114.61 257.59 1116.85 252.889 1118.04 252.889C1118.04 252.889 1117.92 258.794 1116.91 261.093C1116.91 261.093 1115.78 269.368 1116.91 277.431C1116.91 277.431 1118.8 278.313 1119.69 276.525C1119.69 276.525 1120.85 270.701 1120.85 266.015C1120.85 266.015 1123.65 258.491 1123.65 255.69C1123.65 255.69 1125.34 259.985 1123.65 266.015C1123.65 266.015 1123.18 268.685 1126.17 268.685C1126.17 268.685 1127.72 267.926 1129.24 259.551L1128.04 265.602C1128.04 265.602 1131.38 267.32 1132.8 263.248C1132.8 263.248 1135 266.193 1138.66 261.33C1138.66 261.33 1139.3 259.551 1140.05 259.551C1140.05 259.551 1141.56 259.221 1141.19 256.466C1141.19 256.466 1143.2 255.498 1143.2 249.457C1143.2 249.457 1144.26 246.553 1148.17 247.39C1148.17 247.39 1153.39 247.39 1157.86 246.084C1157.86 246.084 1157.86 239.93 1156.01 234.89C1154.26 230.117 1152.06 229.7 1152.06 229.7Z" fill="#FFCEAD"/>
<path fill-rule="evenodd" clip-rule="evenodd" d="M1139.26 236.912C1139.26 236.912 1131.52 241.867 1129.24 242.809C1126.96 243.75 1119.94 248.513 1118.04 249.457C1116.14 250.4 1116.06 250.99 1115.22 252.308C1115.22 252.308 1113.48 255.054 1112.51 256.466C1111.54 257.878 1111.92 262.971 1110.65 263.75C1110.65 263.75 1113.31 264.862 1114.61 257.59C1114.61 257.59 1116.85 252.889 1118.04 252.889C1118.04 252.889 1117.92 258.794 1116.91 261.093C1116.91 261.093 1115.78 269.368 1116.91 277.431C1116.91 277.431 1118.8 278.313 1119.69 276.525C1119.69 276.525 1120.85 270.701 1120.85 266.015C1120.85 266.015 1123.65 258.491 1123.65 255.69C1123.65 255.69 1125.34 259.985 1123.65 266.015C1123.65 266.015 1123.18 268.685 1126.17 268.685C1126.17 268.685 1127.72 267.926 1129.24 259.551L1128.04 265.602C1128.04 265.602 1131.38 267.32 1132.8 263.248C1132.8 263.248 1135 266.193 1138.66 261.33C1138.66 261.33 1139.3 259.551 1140.05 259.551C1140.05 259.551 1141.56 259.221 1141.19 256.466C1141.19 256.466 1143.2 255.498 1143.2 249.457C1143.2 249.457 1144.26 246.553 1148.17 247.39C1148.17 247.39 1153.39 247.39 1157.86 246.084C1157.86 246.084 1157.86 237.256 1154.54 231.628C1149.19 234.384 1142.31 233.426 1139.26 236.912Z" fill="#F5BE98"/>
<path fill-rule="evenodd" clip-rule="evenodd" d="M1128.12 265.639C1128.12 265.639 1128.98 263.965 1128.98 262.628C1128.98 261.621 1130.03 259.406 1130.14 258.573C1130.17 258.301 1129.59 258.772 1129.32 259.174C1129.05 259.577 1128.79 261.241 1128.53 262.628L1127.88 265.516L1128.12 265.639Z" fill="#B48463"/>
<path fill-rule="evenodd" clip-rule="evenodd" d="M1054.53 404.077L1060.68 407.183C1060.68 407.183 1061.81 406.154 1062.4 404.786C1063 403.419 1062.97 401.921 1062.97 401.921L1056.72 398.957C1056.72 398.957 1055.51 400.018 1055.04 401.149C1054.58 402.28 1054.53 404.077 1054.53 404.077Z" fill="#061D2C"/>
<path fill-rule="evenodd" clip-rule="evenodd" d="M1068.96 293.791C1068.96 293.791 1072.43 302.446 1072.43 305.005C1072.43 305.005 1073.53 312.182 1074.54 313.745C1074.54 313.745 1075.8 319.087 1075.8 321.396C1075.8 321.396 1074.43 334.218 1075.8 335.871C1075.8 335.871 1075.42 341.869 1074.54 343.166C1074.54 343.166 1074.93 349.756 1077.22 351.152C1077.22 351.152 1079.51 345.973 1080.58 343.48C1080.58 343.48 1082.66 339.998 1081.98 338.092C1081.98 338.092 1084.27 335.525 1085.31 332.807C1085.31 332.807 1085.28 340.197 1087.4 341.681C1087.4 341.681 1090.99 342.776 1091.79 339.006C1091.79 339.006 1091.81 336.286 1090.98 332.807C1090.98 332.807 1090.6 324.823 1091.79 321.396C1091.79 321.396 1093.48 315.895 1088.25 310.45C1088.25 310.45 1081.08 300.659 1082.23 293.078V287.621C1082.23 287.621 1078 285.438 1073.79 287.321C1069.59 289.204 1068.96 293.791 1068.96 293.791Z" fill="#FFCEAD"/>
<path fill-rule="evenodd" clip-rule="evenodd" d="M1070.02 291.177C1070.02 291.177 1075.76 300.59 1075.76 303.149C1075.76 303.149 1079.64 317.876 1079.64 320.186C1079.64 320.186 1076.89 334.113 1078.26 335.766C1078.26 335.766 1078.09 342.184 1077.22 343.48C1077.22 343.48 1075.97 348.458 1078.26 349.853C1078.26 349.853 1079.51 345.973 1080.58 343.48C1080.58 343.48 1082.66 339.998 1081.98 338.092C1081.98 338.092 1084.27 335.525 1085.31 332.807C1085.31 332.807 1085.28 340.197 1087.4 341.681C1087.4 341.681 1090.99 342.776 1091.79 339.006C1091.79 339.006 1091.81 336.286 1090.98 332.807C1090.98 332.807 1090.6 324.823 1091.79 321.396C1091.79 321.396 1093.48 315.895 1088.25 310.45C1088.25 310.45 1081.08 300.659 1082.23 293.078V287.621C1082.23 287.621 1078 285.438 1073.79 287.321C1069.59 289.204 1070.02 291.177 1070.02 291.177Z" fill="#F5BE98"/>
<path fill-rule="evenodd" clip-rule="evenodd" d="M1096.86 324.215C1096.86 324.215 1118.19 324.805 1139.94 312.933L1143.26 311.036C1143.26 311.036 1144.77 310.318 1144.77 312.105C1144.77 312.105 1127.75 326.085 1108.35 332.255C1108.35 332.255 1099.69 335.373 1095 334.434L1096.86 324.215Z" fill="#385469"/>
<path fill-rule="evenodd" clip-rule="evenodd" d="M1082.46 356.955L1084.58 352.068C1084.58 352.068 1087.2 354.732 1084.85 356.955C1084.43 357.2 1083.91 357.2 1083.52 357.2C1083.05 357.2 1082.46 356.955 1082.46 356.955Z" fill="#F5BE98"/>
<path fill-rule="evenodd" clip-rule="evenodd" d="M1086.35 347.928L1088.96 341.932C1088.96 341.932 1092.47 341.421 1091.57 335.93C1091.57 335.93 1092.43 333.445 1092.86 332.564C1093.33 331.613 1093.87 331.013 1093.93 330.357C1094.13 328.458 1095.35 327.212 1095.88 326.034C1095.88 326.034 1097.35 320.283 1100.29 323.633C1100.29 323.633 1098.69 328.534 1097.72 330.496C1097.72 330.496 1095.88 336.164 1095.88 339.565C1095.88 339.565 1095.52 344.416 1090.75 346.835L1086.35 347.928Z" fill="#F5BE98"/>
<path fill-rule="evenodd" clip-rule="evenodd" d="M1110 548.368C1110 548.368 1110.22 555.592 1116.68 557.528C1116.68 557.528 1131.28 559.952 1136.42 553.293C1136.42 553.293 1137.04 549.899 1135.88 547.874L1110 548.368Z" fill="#D8D8D8"/>
<path fill-rule="evenodd" clip-rule="evenodd" d="M1108.8 535.246C1108.8 535.246 1107.39 550.569 1114.1 552.01C1114.1 552.01 1129.76 555.518 1135.89 547.885C1135.89 547.885 1135.08 545.332 1133.57 540.289C1132.06 535.246 1127.45 529.144 1127.45 529.144C1127.45 529.144 1120.84 522.344 1110.3 527.883L1108.8 535.246Z" fill="#4B4B4B"/>
<path fill-rule="evenodd" clip-rule="evenodd" d="M1048.85 543.877C1048.85 543.877 1050.06 549.593 1048.85 551.94C1048.85 551.94 1038.84 556.265 1035.69 556.265C1035.69 556.265 1032.29 553.987 1029.9 556.265C1029.9 556.265 1026.93 559.838 1025.58 559.838C1025.58 559.838 1010.49 565.963 1001.74 564.92C1001.74 564.92 994.23 563.622 994.23 561.903C994.23 561.903 994.206 558.148 995.513 558.148C995.513 558.148 995.982 560.953 1005.66 560.953C1005.66 560.953 1015.23 560.373 1021.84 555.349C1028.46 550.325 1036.51 547.79 1041.37 546.704C1046.23 545.617 1048.85 543.877 1048.85 543.877Z" fill="#D8D8D8"/>
<path fill-rule="evenodd" clip-rule="evenodd" d="M983.724 594.513C983.724 594.513 999.34 598.547 1005.28 598.547C1005.28 598.547 1022.78 599.411 1026.1 600.541C1026.1 600.541 1036.97 602.789 1041.02 602.789C1041.02 602.789 1043.97 604.247 1046.02 604.247C1046.02 604.247 1051.86 606.005 1049.46 611.18C1049.46 611.18 1045.07 615.556 1041.02 618.467C1041.02 618.467 1033.89 620.411 1033.89 621.945C1033.89 621.945 1031.58 625.06 1028.45 623.045C1028.45 623.045 1027.39 621.182 1026.1 619.825C1024.8 618.467 1022.08 619.825 1019.51 619.825C1019.51 619.825 1015.11 618.834 1013.04 617.371C1010.97 615.907 998.142 615.755 995.758 615.831C993.375 615.907 984.544 615.326 982.001 613.708C979.458 612.09 965.263 611.18 963.258 611.18C961.253 611.18 950.381 608.018 946.21 608.018C942.039 608.018 934.414 604.247 929.631 604.247C924.849 604.247 917.932 601.33 914.537 602.789C911.142 604.247 904.019 602.421 903.161 601.481C902.303 600.541 899.396 598.445 901.279 596.479C903.161 594.513 905.546 594.372 907.383 593.555C909.22 592.738 917.714 589.6 919.277 587.132C920.84 584.664 922.613 582.5 926.122 582.5C929.631 582.5 932.052 585.504 935.41 585.504C938.768 585.504 947.633 588.588 949.052 588.588C950.471 588.588 958.89 590.706 960.003 590.706C961.116 590.706 967.661 592.311 965.459 592.311L972.94 598.547L983.724 594.513Z" fill="#D8D8D8"/>
<path fill-rule="evenodd" clip-rule="evenodd" d="M987.073 560.747C987.073 560.747 987.479 560.213 987.797 560.213C991.062 561.172 992.513 562.214 993.17 562.872C993.333 563.035 993.429 563.298 993.29 563.88C993.29 563.88 988.475 573.162 990.74 574.264C990.74 574.264 983.038 585.6 981.887 590.509C981.887 590.509 983.252 593.938 981.211 595.136C981.211 595.136 974.301 595.619 973.053 594.03C973.053 594.03 971.582 590.793 975.562 587.711C975.562 587.711 980.535 576.4 981.211 570.754C981.211 570.754 983.116 569.635 983.668 568.774C985.22 566.351 987.073 560.747 987.073 560.747Z" fill="#061D2C"/>
<path fill-rule="evenodd" clip-rule="evenodd" d="M910.557 596.866C910.557 596.866 922.617 597.281 929.904 599.404C929.904 599.404 951.797 603.337 956.807 604.212C956.807 604.212 981.401 610.38 984.245 609.413C984.245 609.413 1002.97 611.07 1008.62 612.403C1008.62 612.403 1026.88 616.169 1028.11 616.169C1028.11 616.169 1032.82 617.114 1034.86 614.759C1034.86 614.759 1041.84 608.662 1042.98 607.658C1042.98 607.658 1042.26 607.048 1039.48 605.63C1039.48 605.63 1022.77 602.708 1020.45 601.695C1020.45 601.695 1007.24 599.799 994.528 598.332C994.528 598.332 985.582 594.187 981.418 594.187C981.418 594.187 975.757 596.688 972.874 592.943C972.874 592.943 957.135 590.656 948.557 590.656C948.557 590.656 934.177 589.293 932.04 587.603C932.04 587.603 928.252 586.397 925.164 587.603L910.557 596.866Z" fill="#061D2C"/>
<path fill-rule="evenodd" clip-rule="evenodd" d="M1107.66 178.4C1107.66 178.4 1114.52 179.163 1111.38 193.056C1111.38 193.056 1110.85 194.463 1110.53 194.463C1110.21 194.463 1110.99 186.141 1109.68 182.694C1108.37 179.248 1107.66 178.4 1107.66 178.4Z" fill="#3571BD"/>
<path fill-rule="evenodd" clip-rule="evenodd" d="M1089.17 199.279C1089.17 199.279 1089.47 196.107 1097.38 188.685C1097.38 188.685 1097.54 188.177 1096.85 188.339C1096.85 188.339 1091.13 192.05 1088.56 194.761C1086 197.472 1085.19 199.135 1083.37 200.807C1083.37 200.807 1085.22 200.274 1086.13 200.033C1087.11 199.772 1089.17 199.279 1089.17 199.279Z" fill="#3571BD"/>
<path fill-rule="evenodd" clip-rule="evenodd" d="M1117.57 196.678C1117.57 196.678 1117.31 195.277 1118.45 194.098C1119.58 192.919 1120.37 191 1120.37 191C1120.37 191 1118.47 192.759 1117.35 193.707C1116.33 194.562 1114.98 195.527 1113.95 196.635L1117.57 196.678Z" fill="#3571BD"/>
<path fill-rule="evenodd" clip-rule="evenodd" d="M1133.03 263.531C1133.03 263.531 1133.35 262.023 1133.35 260.545C1133.35 259.181 1134.42 258.298 1134.34 257.92C1134.29 257.728 1133.67 258.271 1133.58 258.526C1133.5 258.781 1133.2 259.343 1133.12 260.76C1133.03 262.176 1132.81 263.255 1132.81 263.255L1133.03 263.531Z" fill="#B48463"/>
<path fill-rule="evenodd" clip-rule="evenodd" d="M1157.86 246.086C1157.86 246.086 1158.32 252.112 1157.64 251.73C1157.64 251.73 1157.31 251.211 1157.2 250.849C1156.78 249.5 1156.05 246.549 1156.05 246.549C1156.05 246.549 1156.56 246.427 1156.99 246.316C1157.42 246.205 1157.86 246.086 1157.86 246.086Z" fill="#2E63A6"/>
<path fill-rule="evenodd" clip-rule="evenodd" d="M1068.97 293.683C1068.97 293.683 1068.52 295.075 1068.42 295.87C1068.32 296.666 1068.32 297.565 1068.42 297.989C1068.42 297.989 1069.13 298.645 1069.5 298.947C1069.89 299.271 1070.7 299.868 1070.7 299.868L1071.15 299.627L1070.3 297.25L1068.97 293.683Z" fill="#2E63A6"/>
<path fill-rule="evenodd" clip-rule="evenodd" d="M1082.24 287.626V292.383C1082.24 292.383 1082.84 291.926 1083.04 291.494C1083.54 290.436 1083.74 289.285 1083.67 288.93C1083.53 288.211 1082.24 287.626 1082.24 287.626Z" fill="#2E63A6"/>
<path fill-rule="evenodd" clip-rule="evenodd" d="M1164.87 221.846C1164.87 221.846 1165.13 222.747 1169.21 221.906C1169.21 221.906 1172.68 221.95 1172.89 222.407C1172.89 222.407 1174.8 223.322 1176.31 223.322C1176.31 223.322 1174.08 221.495 1172.13 220.974C1172.13 220.974 1169.98 221.387 1168.94 220.974C1168.94 220.974 1166.65 221.095 1166.09 221.364C1166.09 221.364 1165.73 221.606 1165.53 221.684C1165.32 221.766 1164.87 221.846 1164.87 221.846Z" fill="#347BD6"/>
<path fill-rule="evenodd" clip-rule="evenodd" d="M1166.21 218.36C1166.21 218.36 1167.2 219.025 1169.85 218.233C1169.85 218.233 1171.08 218.219 1172.53 219.08C1172.53 219.08 1172.92 219.204 1172.39 218.564C1172.39 218.564 1170.77 216.614 1167.59 217.812L1166.57 217.951L1166.81 218.111C1166.81 218.111 1166.7 218.138 1166.53 218.209C1166.35 218.281 1166.21 218.36 1166.21 218.36Z" fill="#347BD6"/>
<path fill-rule="evenodd" clip-rule="evenodd" d="M1082.12 262.564C1082.12 262.564 1092.73 260.606 1099.9 265.538C1099.9 265.538 1102.47 268.054 1099.9 270.105C1099.9 270.105 1090.64 271.423 1088.61 274.114C1088.61 274.114 1086.4 277.301 1082.12 276.804C1082.12 276.804 1084.12 271.622 1084.12 268.897C1084.12 266.476 1082.12 262.564 1082.12 262.564Z" fill="#385469"/>
<path fill-rule="evenodd" clip-rule="evenodd" d="M1067.06 317.549C1067.06 317.549 1073.38 318.627 1075.51 325.151C1075.51 325.151 1076.21 328.26 1070.52 326.49C1070.52 326.49 1067.9 323.876 1065.36 324.517C1065.36 324.517 1067.14 323.415 1067.46 322.189C1067.73 321.138 1067.06 317.549 1067.06 317.549Z" fill="#385469"/>
<path fill-rule="evenodd" clip-rule="evenodd" d="M1113.83 104.421C1113.83 104.421 1114.05 103.991 1115.41 103.991C1116.76 103.991 1117.83 108.749 1117.83 110.961C1117.83 110.961 1118.94 106.636 1116.34 103.199C1116.34 103.199 1115.81 102.712 1115.24 102.871C1114.07 103.199 1113.83 104.421 1113.83 104.421Z" fill="#DFA984"/>
<path fill-rule="evenodd" clip-rule="evenodd" d="M1113.06 108.378C1113.06 108.378 1112.98 105.74 1115.11 106.62C1115.11 106.62 1117.09 108.935 1115.75 111.075C1115.75 111.075 1113.97 111.889 1113.97 114.239C1113.97 114.239 1113.49 115.279 1113.06 114.239C1113.06 114.239 1113.26 111.701 1113.97 110.579C1113.97 110.579 1114.47 109.37 1113.97 108.378H1113.06Z" fill="#DFA984"/>
<path fill-rule="evenodd" clip-rule="evenodd" d="M972.994 590.771C972.994 590.771 971.873 590.117 970.717 590.771C969.561 591.424 969.668 592.953 970.104 594.467C970.541 595.981 976.497 600.165 982.564 596.882C982.564 596.882 984.59 596.102 984.59 594.1C984.59 592.098 982.396 592.262 982.396 592.262C982.396 592.262 982.396 594.525 981.514 594.879C981.514 594.879 975.639 597.172 972.899 593.436C972.899 593.436 972.702 592.752 972.702 592.262C972.702 591.864 972.994 590.771 972.994 590.771Z" fill="#3D6F90"/>
<path fill-rule="evenodd" clip-rule="evenodd" d="M1221.54 603.579H1229.68C1229.68 603.579 1235.03 603.625 1235.03 599.251V591.145L1217.27 597.362L1221.54 603.579Z" fill="#F19B02"/>
<path fill-rule="evenodd" clip-rule="evenodd" d="M1286.63 603.448H1296.78C1296.78 603.448 1301.05 602.387 1300.14 598.513L1284.93 453.309C1284.93 453.309 1279.4 450.091 1278.47 445.823L1281.02 460.403L1283.73 602.41L1286.63 603.448Z" fill="#F19B02"/>
<path fill-rule="evenodd" clip-rule="evenodd" d="M1215.36 430.544V427.953C1215.36 427.953 1216.2 426.099 1218.84 426.099C1218.84 426.099 1246.62 423.588 1275.38 427.214C1275.38 427.214 1278.5 427.958 1278.5 429.251V433.665H1265.73L1264.55 436.99L1229.75 436.296L1217.4 434.733L1215.36 430.544Z" fill="#ECBA0B"/>
<path fill-rule="evenodd" clip-rule="evenodd" d="M1209.11 455.769L1194.13 617.434C1194.13 617.434 1195.25 621.952 1198.43 621.952H1214C1214 621.952 1219.7 621.958 1219.7 619.131L1220.83 604.401C1220.83 604.401 1221.7 599.877 1225.37 599.877C1225.37 599.877 1240.07 597.946 1258.16 601.222C1258.16 601.222 1260.9 603.174 1260.9 606.106V619.131C1260.9 619.131 1261.38 622.545 1265.36 623.582H1281.36C1281.36 623.582 1287.57 623.476 1286.56 617.434L1283.36 455.769C1283.36 455.769 1277.58 449.7 1278.78 441.088H1265.36V443.33H1267.14V455.769H1262.86C1262.86 455.769 1260.32 456.039 1259.24 453.659C1259.24 453.659 1257.01 450.839 1255.09 450.839H1238.51C1238.51 450.839 1233.97 451.699 1231.83 455.769H1226.73V443.33H1229.2V441.088H1216.57C1216.57 441.088 1216.02 446.865 1214 450.839C1211.97 454.814 1209.11 455.769 1209.11 455.769Z" fill="#FEC803"/>
<path fill-rule="evenodd" clip-rule="evenodd" d="M1217.66 458.342L1270.86 459.67C1270.86 459.67 1278.28 459.263 1278.28 466.978L1280.72 593.45C1280.72 593.45 1278.51 598.907 1274.07 597.01C1274.07 597.01 1242.14 586.332 1207.47 595.463C1207.47 595.463 1201.45 595.811 1201.45 591.728L1213.36 463.391C1213.36 463.391 1213.55 460.864 1214.57 459.67C1215.59 458.476 1217.66 458.342 1217.66 458.342Z" fill="#FADD01"/>
<path fill-rule="evenodd" clip-rule="evenodd" d="M1216.12 432.319C1216.12 432.319 1213.31 437.267 1215.59 441.738H1229.39C1229.39 441.738 1231.1 437.622 1230.03 432.319H1216.12Z" fill="#EDAF00"/>
<path fill-rule="evenodd" clip-rule="evenodd" d="M1264.46 441.538C1264.46 441.538 1263.06 437.093 1264.46 432.659H1279.12C1279.12 432.659 1280.95 435.876 1279.12 441.538H1264.46Z" fill="#EDAF00"/>
<path fill-rule="evenodd" clip-rule="evenodd" d="M1231.66 528.63L1232.24 537.794L1238.59 541.856C1238.59 541.856 1240.65 541.745 1240 539.769L1234.69 536.596V532.828L1244.4 537.794L1246.61 539.193L1251.35 546.588C1251.35 546.588 1253.6 547.837 1254.31 545.299L1250.18 538.235L1245.79 534.94C1245.79 534.94 1245.73 533.579 1246.61 532.828L1250.18 530.774L1253.55 534.94C1253.55 534.94 1256.66 535.587 1256.66 533.18L1251.76 527.306C1251.76 527.306 1250.26 526.45 1249.09 527.306L1244.4 530.774C1244.4 530.774 1243.47 531.204 1242.35 530.774L1237.89 527.82C1237.89 527.82 1237.18 526.384 1237.89 525.355L1240 521.458L1237.89 515.301C1237.89 515.301 1235.8 514.367 1235.25 516.333L1237.09 520.943L1234.69 525.355C1234.69 525.355 1234.37 526.734 1233 526.734L1231.66 528.63Z" fill="#3E3E3E"/>
<circle cx="1230.66" cy="527" r="3" fill="#3E3E3E"/>
<path fill-rule="evenodd" clip-rule="evenodd" d="M1238.12 501.645C1239.27 499.735 1242.03 499.709 1243.22 501.596L1272.55 548.086C1273.82 550.101 1272.35 552.722 1269.97 552.686L1213.07 551.822C1210.75 551.786 1209.35 549.252 1210.55 547.27L1238.12 501.645Z" stroke="#3E3E3E" stroke-width="4"/>
<path d="M1227.22 547.552L1254.07 548.011" stroke="#3E3E3E" stroke-width="3" stroke-linecap="round"/>
</svg>
