<svg width="20" height="20" viewBox="0 0 20 20" fill="none" xmlns="http://www.w3.org/2000/svg">
<g id="Interface">
<path id="Vector" d="M1.9458 8.61433C1.68476 8.37293 1.82656 7.93652 2.17964 7.89465L7.18262 7.30148C7.32652 7.28442 7.45151 7.19376 7.51221 7.06217L9.6224 2.48729C9.77132 2.16442 10.2303 2.16438 10.3792 2.48724L12.4894 7.06224C12.5501 7.19382 12.6743 7.28443 12.8182 7.30149L17.8215 7.89465C18.1745 7.93652 18.3162 8.37296 18.0552 8.61436L14.3566 12.035C14.2502 12.1334 14.2027 12.28 14.231 12.4221L15.2126 17.3636C15.2819 17.7124 14.9108 17.9821 14.6005 17.8084L10.2044 15.3476C10.078 15.2769 9.92392 15.2768 9.79747 15.3476L5.40091 17.8084C5.09065 17.9821 4.71912 17.7124 4.78841 17.3637L5.77031 12.4221C5.79855 12.28 5.75111 12.1334 5.64472 12.035L1.9458 8.61433Z" fill="#1B78F2" stroke="#1B78F2" stroke-linecap="round" stroke-linejoin="round"/>
</g>
</svg>
