<svg width="100" height="100" viewBox="0 0 100 100" fill="none" xmlns="http://www.w3.org/2000/svg">
<path fill-rule="evenodd" clip-rule="evenodd" d="M34 20.1429C34 13.4587 39.4828 8 46.1818 8C49.9665 8 53.2575 9.74934 55.5 12.3755C57.7425 9.74934 61.0335 8 64.8182 8C71.5172 8 77 13.4587 77 20.1429C77 23.2057 75.6039 26.532 73.6493 29.7192C71.6807 32.9294 69.0713 36.1164 66.486 38.927C63.897 41.7415 61.3113 44.2008 59.3745 45.9554C58.4055 46.8333 57.5973 47.5361 57.0303 48.0204C56.7468 48.2626 56.5235 48.4502 56.3705 48.5777C56.2939 48.6415 56.2349 48.6903 56.1948 48.7234L56.1488 48.7612L56.1333 48.7739L56.1324 48.7746C56.1321 48.7749 56.1319 48.775 55.5 48C54.8681 48.775 54.8679 48.7749 54.8676 48.7746L54.8667 48.7739L54.8512 48.7612L54.8052 48.7234C54.7651 48.6903 54.7061 48.6415 54.6295 48.5777C54.4765 48.4502 54.2532 48.2626 53.9697 48.0204C53.4027 47.5361 52.5945 46.8333 51.6255 45.9554C49.6887 44.2008 47.103 41.7415 44.514 38.927C41.9287 36.1164 39.3193 32.9294 37.3507 29.7192C35.3961 26.532 34 23.2057 34 20.1429ZM55.5 48L54.8676 48.7746C55.2355 49.0746 55.7645 49.0746 56.1324 48.7746L55.5 48ZM55.5 46.6966C55.5716 46.6358 55.6488 46.5702 55.7314 46.4997C56.2855 46.0264 57.0789 45.3364 58.0317 44.4732C59.9387 42.7456 62.478 40.3299 65.014 37.573C67.5537 34.8121 70.0693 31.7313 71.9444 28.6737C73.8336 25.593 75 22.6515 75 20.1429C75 14.5699 70.4192 10 64.8182 10C61.2695 10 58.208 11.85 56.3231 14.5822C56.1364 14.8527 55.8287 15.0143 55.5 15.0143C55.1713 15.0143 54.8636 14.8527 54.6769 14.5822C52.792 11.85 49.7305 10 46.1818 10C40.5808 10 36 14.5699 36 20.1429C36 22.6515 37.1664 25.593 39.0556 28.6737C40.9307 31.7313 43.4463 34.8121 45.986 37.573C48.522 40.3299 51.0613 42.7456 52.9683 44.4732C53.9211 45.3364 54.7145 46.0264 55.2686 46.4997C55.3512 46.5702 55.4284 46.6358 55.5 46.6966Z" fill="#1A78F2"/>
<path fill-rule="evenodd" clip-rule="evenodd" d="M15.9447 54.6703C15.9447 54.6703 37.7061 53.4048 44.2884 61.7359H64.0634C64.0634 61.7359 68.6159 62.9428 68.6159 66.6873C68.6159 70.1203 67.4953 71.182 64.0634 73.621L89.8179 60.6496C89.8179 60.6496 95.1972 57.7546 97.8881 60.0541C100.579 62.3535 99.8796 66.0671 98.4808 67.597L61.891 88.5703C61.891 88.5703 57.903 91.0833 52.5011 89.8268L14.8691 77.4792L15.9447 54.6703Z" fill="#CFE8FD"/>
<path fill-rule="evenodd" clip-rule="evenodd" d="M16.0528 47.8468L15.9255 46.855C15.3777 46.9253 14.9906 47.4264 15.061 47.9742C15.1313 48.5219 15.6323 48.9089 16.18 48.8387M16.18 48.8387L16.1831 48.8383L16.1956 48.8367L16.2488 48.8302C16.2966 48.8245 16.3688 48.816 16.464 48.8053C16.6545 48.784 16.9371 48.754 17.3004 48.7201C18.0271 48.6523 19.076 48.5686 20.3568 48.5065C22.9214 48.3821 26.4019 48.3445 30.0809 48.688C33.7668 49.0322 37.6073 49.755 40.9141 51.1276C44.2208 52.5001 46.9162 54.4886 48.4478 57.3214L48.7314 57.8458H66.3363C66.3516 57.8484 66.3699 57.8517 66.391 57.8557C66.4738 57.8716 66.599 57.8985 66.7534 57.9408C67.065 58.0264 67.4801 58.1706 67.9017 58.4032C68.7307 58.8607 69.5355 59.6227 69.7274 60.9638C69.9145 62.8997 69.5115 63.9677 69.0441 64.6142C68.6063 65.2198 68.0476 65.5619 67.4615 65.8994H43.4395C42.8872 65.8994 42.4395 66.3471 42.4395 66.8994C42.4395 67.4517 42.8872 67.8994 43.4395 67.8994H67.9955L68.2272 67.766C68.2728 67.7397 68.3213 67.7122 68.3721 67.6833C68.9795 67.3382 69.9352 66.7953 70.6649 65.7859C71.4821 64.6556 71.9439 63.0647 71.7158 60.7476L71.7138 60.7281L71.7112 60.7087C71.4123 58.5468 70.0671 57.3138 68.8679 56.6521C68.2734 56.3241 67.7028 56.1274 67.2827 56.0121C67.0713 55.9541 66.8941 55.9157 66.7661 55.8912C66.7019 55.879 66.6498 55.8702 66.6115 55.8642C66.5923 55.8612 66.5766 55.8588 66.5645 55.8571L66.5491 55.855L66.5435 55.8543L66.5412 55.854L66.5403 55.8539C66.5398 55.8538 66.5393 55.8537 66.4134 56.8458L66.5403 55.8539L66.4766 55.8458H49.9077C48.051 52.7635 45.0543 50.6807 41.6808 49.2804C38.1195 47.8022 34.0607 47.0509 30.2668 46.6967C26.4659 46.3418 22.8859 46.3814 20.2599 46.5088C18.9455 46.5726 17.8667 46.6586 17.1144 46.7288C16.7382 46.7639 16.4435 46.7951 16.2416 46.8177C16.1406 46.829 16.0629 46.8382 16.0097 46.8446L15.9486 46.852L15.9322 46.8541L15.9255 46.855C15.925 46.855 15.9255 46.855 16.0528 47.8468" fill="#1A78F2"/>
<path fill-rule="evenodd" clip-rule="evenodd" d="M6 49.27C6 47.326 7.57596 45.75 9.52 45.75H13.2998C15.2438 45.75 16.8198 47.326 16.8198 49.27V74.88C16.8198 76.824 15.2438 78.4 13.2998 78.4H9.52C7.57596 78.4 6 76.824 6 74.88V49.27Z" fill="#CFE8FD"/>
<path fill-rule="evenodd" clip-rule="evenodd" d="M97.5985 57.6169L97.5949 57.6104C97.5885 57.5988 97.5802 57.5841 97.57 57.5666C97.5498 57.5317 97.5219 57.4854 97.4864 57.4298C97.4155 57.3189 97.313 57.1695 97.1772 56.9987C96.9073 56.6592 96.496 56.2222 95.9283 55.8364C94.7536 55.0379 92.9933 54.5221 90.6754 55.3497L90.6345 55.3642L67.1483 66.1241L67.9814 67.9424L91.3872 57.2193C93.0408 56.6411 94.1257 57.0294 94.8041 57.4905C95.1657 57.7362 95.434 58.0199 95.6115 58.2432C95.6995 58.3538 95.7625 58.4464 95.8013 58.507C95.8206 58.5372 95.8336 58.5591 95.8405 58.5709L95.8442 58.5772L95.8454 58.5795L95.8461 58.5808L95.8496 58.5874L95.8572 58.6007C96.5432 59.802 96.2593 60.8903 95.709 61.7928C95.4312 62.2484 95.0984 62.6277 94.8295 62.8958C94.6966 63.0284 94.583 63.1301 94.5052 63.1966C94.4822 63.2164 94.4624 63.2329 94.4463 63.2462L59.1819 82.8814C57.0986 83.6499 55.0915 83.652 53.5841 83.4518C52.8245 83.3509 52.2008 83.1997 51.7716 83.0755C51.5573 83.0135 51.3925 82.9585 51.2845 82.9203C51.2306 82.9013 51.1909 82.8864 51.1665 82.8771L51.1414 82.8673L51.14 82.8668L51.1389 82.8663L51.1027 82.8515L16.0736 71.6776L15.4658 73.583L50.4238 84.7342C50.432 84.7374 50.4412 84.741 50.4516 84.7449C50.4914 84.7602 50.5471 84.781 50.6179 84.806C50.7594 84.856 50.9611 84.9231 51.2156 84.9967C51.7238 85.1438 52.4462 85.3182 53.3207 85.4344C55.0653 85.6661 57.4518 85.6704 59.9546 84.7278L60.024 84.7017L95.5536 64.9187L95.61 64.8759L95.0053 64.0794C95.61 64.8759 95.6097 64.8762 95.61 64.8759L95.6115 64.8748L95.6133 64.8734L95.6178 64.8699L95.6308 64.8599C95.6411 64.8518 95.6547 64.8411 95.6714 64.8277C95.7047 64.8009 95.7503 64.7635 95.8058 64.716C95.9166 64.6212 96.0681 64.4851 96.2417 64.312C96.5861 63.9686 97.032 63.4649 97.4166 62.8339C98.1905 61.5648 98.7662 59.6691 97.5985 57.6169Z" fill="#1A78F2"/>
<path fill-rule="evenodd" clip-rule="evenodd" d="M13.2998 46.1001H3.52C2.68053 46.1001 2 46.7806 2 47.6201V74.8801C2 75.7196 2.68053 76.4001 3.52 76.4001H13.2998C14.1392 76.4001 14.8198 75.7196 14.8198 74.8801V47.6201C14.8198 46.7806 14.1392 46.1001 13.2998 46.1001ZM3.52 44.1001C1.57596 44.1001 0 45.6761 0 47.6201V74.8801C0 76.8241 1.57596 78.4001 3.52 78.4001H13.2998C15.2438 78.4001 16.8198 76.8241 16.8198 74.8801V47.6201C16.8198 45.6761 15.2438 44.1001 13.2998 44.1001H3.52Z" fill="#1A78F2"/>
</svg>
