<svg width="100" height="100" viewBox="0 0 100 100" fill="none" xmlns="http://www.w3.org/2000/svg">
<path fill-rule="evenodd" clip-rule="evenodd" d="M85.9273 58C82.2618 58 79.12 59.9038 77.2 62.6731C75.28 59.9038 72.1382 58 68.4727 58C62.7127 58 58 62.6731 58 68.3846C58 78.7692 77.2 94.3462 77.2 94.3462C77.2 94.3462 96.4 78.7692 96.4 68.3846C96.4 62.6731 91.6873 58 85.9273 58Z" fill="#CFE8FD"/>
<path fill-rule="evenodd" clip-rule="evenodd" d="M30.2894 6.08965C32.0328 4.36986 35.0577 4.36986 36.8011 6.08965L36.8016 6.09014C37.3112 6.59342 42.5798 11.8378 48.4408 19.0494C54.2794 26.2334 60.8064 35.4899 63.7237 44.0063C63.7977 44.2224 63.8334 44.4841 63.7767 44.7662C63.7202 45.0472 63.5875 45.2711 63.4428 45.4366C63.184 45.7326 62.8519 45.8819 62.6508 45.9602C62.2254 46.1257 61.6441 46.2398 61.0889 46.3434C60.9531 46.3688 60.8126 46.3945 60.6676 46.4211C59.537 46.6283 58.1379 46.8846 56.6228 47.3797C53.2506 48.4815 49.4061 50.7322 47.4223 56.1639C45.5217 61.3676 46.7083 66.222 48.4197 69.8726C49.2735 71.6938 50.2472 73.1901 51.001 74.2436C51.3626 74.7489 51.6717 75.1499 51.8981 75.4436L51.9262 75.4801C52.0347 75.6209 52.1397 75.7572 52.2132 75.8606C52.245 75.9054 52.3027 75.9879 52.3523 76.08C52.3709 76.1146 52.434 76.2318 52.4728 76.3902C52.4917 76.4674 52.5275 76.6417 52.4947 76.861C52.4572 77.1121 52.3202 77.4502 51.9783 77.6818C46.5278 81.3745 39.9948 83.3536 33.5453 83.3536C18.0042 83.3536 1.7998 71.7944 1.7998 52.3388C1.7998 47.7112 3.58424 42.5698 6.16526 37.522C8.75722 32.4529 12.2116 27.3657 15.6804 22.8177C22.6188 13.7206 29.6969 6.67488 30.289 6.09014L30.2894 6.08965ZM31.9749 7.79823C31.4129 8.35334 24.4268 15.3076 17.5887 24.2732C14.1682 28.7578 10.8052 33.7193 8.30212 38.6147C5.7881 43.5314 4.1998 48.2703 4.1998 52.3388C4.1998 70.2114 19.0567 80.9537 33.5453 80.9537C39.1097 80.9537 44.7549 79.3591 49.5868 76.3717C49.4259 76.1582 49.2447 75.9133 49.0492 75.6402C48.2407 74.5102 47.1814 72.8851 46.2467 70.8913C44.3811 66.9119 42.9687 61.3619 45.1679 55.3406C47.4799 49.0103 52.0452 46.3505 55.8774 45.0984C57.5566 44.5497 59.1148 44.2649 60.2407 44.0592C60.3839 44.033 60.5201 44.0081 60.6486 43.9841C60.8341 43.9495 60.9949 43.9182 61.134 43.8895C58.2195 36.0342 52.1727 27.4466 46.5783 20.563C40.7931 13.4448 35.5915 8.26817 35.1151 7.79775C34.3062 7.00036 32.7837 7.00049 31.975 7.79813M61.8184 43.7068C61.819 43.7067 61.815 43.709 61.8052 43.7133C61.8132 43.7089 61.8178 43.7068 61.8184 43.7068Z" fill="#1A78F2"/>
<path fill-rule="evenodd" clip-rule="evenodd" d="M50.6729 61.3844C50.6729 55.0006 55.9324 49.7998 62.3456 49.7998C65.8627 49.7998 68.9331 51.3687 71.0729 53.7437C73.2126 51.3687 76.283 49.7998 79.8001 49.7998C86.2133 49.7998 91.4729 55.0006 91.4729 61.3844C91.4729 64.3147 90.1337 67.4671 88.2944 70.4515C86.438 73.4637 83.9815 76.4481 81.554 79.074C79.1222 81.7046 76.6942 84.0024 74.8763 85.6411C73.9666 86.4612 73.2077 87.1179 72.675 87.5707C72.4086 87.7971 72.1986 87.9726 72.0545 88.0922C71.9824 88.1519 71.9268 88.1977 71.8888 88.2289L71.8452 88.2646L71.8304 88.2766L71.8294 88.2774C71.8291 88.2777 71.8289 88.2778 71.0729 87.346C70.3168 88.2778 70.3166 88.2777 70.3163 88.2774L70.3153 88.2766L70.3005 88.2646L70.2569 88.2289C70.2189 88.1977 70.1633 88.1519 70.0912 88.0922C69.9471 87.9726 69.7371 87.7971 69.4707 87.5707C68.938 87.1179 68.1791 86.4612 67.2694 85.6411C65.4515 84.0024 63.0235 81.7046 60.5917 79.074C58.1642 76.4481 55.7077 73.4637 53.8513 70.4515C52.012 67.4671 50.6729 64.3147 50.6729 61.3844ZM71.0729 87.346L70.3163 88.2774C70.7569 88.6349 71.3888 88.6349 71.8294 88.2774L71.0729 87.346ZM71.0729 85.7826C71.0886 85.7693 71.1045 85.7557 71.1207 85.742C71.638 85.3023 72.3791 84.661 73.2694 83.8585C75.0515 82.252 77.4236 80.0065 79.7917 77.4448C82.1642 74.8784 84.5077 72.0215 86.2513 69.1923C88.012 66.3354 89.0729 63.6465 89.0729 61.3844C89.0729 56.3452 84.907 52.1998 79.8001 52.1998C76.57 52.1998 73.7798 53.8747 72.059 56.3566C71.8348 56.68 71.4663 56.8729 71.0729 56.8729C70.6794 56.8729 70.3109 56.68 70.0867 56.3566C68.3659 53.8747 65.5757 52.1998 62.3456 52.1998C57.2387 52.1998 53.0729 56.3452 53.0729 61.3844C53.0729 63.6465 54.1337 66.3354 55.8944 69.1923C57.638 72.0215 59.9815 74.8784 62.354 77.4448C64.7222 80.0065 67.0942 82.252 68.8763 83.8585C69.7666 84.661 70.5077 85.3023 71.025 85.742C71.0412 85.7557 71.0571 85.7693 71.0729 85.7826Z" fill="#1A78F2"/>
<path fill-rule="evenodd" clip-rule="evenodd" d="M80.6518 62.2701C81.1185 62.7407 81.1153 63.5005 80.6447 63.9671L70.1719 74.3518C69.7041 74.8156 68.9498 74.8156 68.4821 74.3518L63.2457 69.1595C62.7751 68.6928 62.7719 67.933 63.2385 67.4624C63.7052 66.9918 64.465 66.9886 64.9356 67.4552L69.327 71.8097L78.9548 62.2629C79.4254 61.7963 80.1852 61.7995 80.6518 62.2701Z" fill="#1A78F2"/>
</svg>
