<svg width="100" height="100" viewBox="0 0 100 100" fill="none" xmlns="http://www.w3.org/2000/svg">
<path fill-rule="evenodd" clip-rule="evenodd" d="M85.407 63.6863L45.8239 90.8119C44.3688 91.8091 42.3812 91.4407 41.3801 89.9882L37.5416 84.4188C36.5813 83.0256 34.7023 82.6207 33.2535 83.4949L9.47296 97.8442C8.72728 98.2941 7.75867 98.065 7.29358 97.3287L3.29044 90.9908C2.81286 90.2347 3.04779 89.2339 3.81193 88.7693L34.4326 70.1504C35.8451 69.249 37.7114 69.598 38.706 70.9493L43.1913 76.7553C44.216 78.1475 46.1578 78.4692 47.5738 77.4814L79.7394 55.5918L76.2744 50.5006C75.5182 49.3894 76.3861 47.8975 77.7258 48.0056L96.3578 49.509C97.3972 49.5929 98.0799 50.6326 97.7437 51.6197L91.9287 68.692C91.5037 69.9397 89.837 70.1672 89.0932 69.079L85.407 63.6863Z" fill="#CFE8FD"/>
<path fill-rule="evenodd" clip-rule="evenodd" d="M75.9776 43.4103C75.4752 43.3697 75.1497 43.9292 75.4333 44.3459L79.4609 50.2639L46.4781 72.7095C46.4765 72.7106 46.4748 72.7118 46.4731 72.713C44.6152 74.0052 42.0717 73.5841 40.7254 71.766L36.2397 65.9594L36.2328 65.95C35.5496 65.0217 34.2704 64.7838 33.3027 65.4013L33.2936 65.4072L2.66365 84.0317C2.3771 84.2059 2.289 84.5812 2.46809 84.8647L6.47123 91.2026C6.64564 91.4788 7.00887 91.5647 7.2885 91.3959L31.0691 77.0467C32.9706 75.8993 35.4368 76.4306 36.6971 78.2593L40.5357 83.8287C41.2239 84.8272 42.5904 85.0805 43.5908 84.395L83.9998 56.7034L88.251 62.9227C88.5299 63.3307 89.1549 63.2454 89.3143 62.7775L95.1293 45.7052C95.2554 45.3351 94.9994 44.9451 94.6096 44.9137L75.9776 43.4103ZM73.7799 45.4712C72.551 43.6655 73.9613 41.2411 76.1384 41.4167L94.7705 42.9202C96.4594 43.0565 97.5688 44.7461 97.0225 46.35L91.2074 63.4224C90.5169 65.4498 87.8085 65.8195 86.5998 64.0513L83.4786 59.4851L44.7213 86.0448C42.8115 87.3535 40.2028 86.87 38.8889 84.9637L35.0504 79.3943C34.3902 78.4364 33.0984 78.1581 32.1023 78.7591L8.32177 93.1083C7.11004 93.8395 5.53605 93.4672 4.78029 92.2707L0.777146 85.9328C0.00107807 84.7041 0.382828 83.0778 1.62456 82.3228L32.2366 63.7092C34.0892 62.534 36.5306 62.9914 37.8362 64.7545L42.3219 70.5611L42.3288 70.5704C43.0327 71.5268 44.3636 71.7461 45.3338 71.0692L45.3433 71.0626L76.6822 49.7357L73.7799 45.4712Z" fill="#1A78F2"/>
<path fill-rule="evenodd" clip-rule="evenodd" d="M27.1881 39.313L27.6104 39.7921C31.3636 44.0506 36.8208 46.7456 42.9023 46.7456C48.9839 46.7456 54.4411 44.0506 58.1943 39.7921L58.5492 39.3894L59.081 39.4626C64.8824 40.2616 69.8066 44.8761 72.0574 49.5389L72.4397 50.3309L71.703 50.8113C70.1317 51.8359 53.2752 63.1788 46.9032 67.4677C45.1038 68.6789 42.6845 68.3176 41.3122 66.6424L36.9488 61.3154C36.2488 60.4609 35.0237 60.2579 34.0855 60.841L20.3025 69.4074L19.8018 69.1562L20.2504 68.2624C19.8018 69.1562 19.8022 69.1564 19.8018 69.1562L19.8 69.1552L19.7976 69.1541L19.7914 69.1509L19.7729 69.1414C19.758 69.1336 19.7379 69.123 19.7129 69.1095C19.663 69.0826 19.5935 69.0441 19.5068 68.9936C19.3335 68.8928 19.0913 68.7439 18.7997 68.5442C18.2171 68.1451 17.4333 67.5397 16.6079 66.7035C14.9553 65.0292 13.1265 62.4181 12.4348 58.6918L12.418 58.6013V55.8184C12.418 51.2986 13.9286 47.7813 16.5053 45.1016C19.058 42.4469 22.5979 40.6742 26.5759 39.4945L27.1881 39.313ZM20.2341 67.0951L33.0298 59.1424C34.8209 58.0292 37.1597 58.4167 38.496 60.0481L42.8594 65.375C43.5799 66.2547 44.8461 66.4415 45.7864 65.8085C51.5864 61.9046 66.1388 52.112 69.8557 49.636C67.7525 45.8443 63.7841 42.3536 59.3222 41.527C55.2258 45.9532 49.3909 48.7456 42.9023 48.7456C36.4473 48.7456 30.6391 45.982 26.5461 41.5954C23.0196 42.7115 20.0552 44.2954 17.947 46.4879C15.7446 48.7782 14.418 51.7918 14.418 55.8184V58.4157C15.0331 61.6157 16.6046 63.8531 18.0313 65.2986C18.7522 66.0289 19.4337 66.5542 19.93 66.8942C20.0415 66.9706 20.1435 67.0375 20.2341 67.0951Z" fill="#1A78F2"/>
<path fill-rule="evenodd" clip-rule="evenodd" d="M25.8203 18.1455C25.8203 8.67919 33.4639 1 42.9027 1C52.3415 1 59.9851 8.67919 59.9851 18.1455V26.2182C59.9851 35.6844 52.3415 43.3636 42.9027 43.3636C33.4639 43.3636 25.8203 35.6844 25.8203 26.2182V18.1455ZM42.9027 3C34.5758 3 27.8203 9.77637 27.8203 18.1455V26.2182C27.8203 34.5873 34.5758 41.3636 42.9027 41.3636C51.2296 41.3636 57.9851 34.5873 57.9851 26.2182V18.1455C57.9851 9.77637 51.2296 3 42.9027 3Z" fill="#1A78F2"/>
</svg>
