<svg width="1440" height="393" viewBox="0 0 1440 393" fill="none" xmlns="http://www.w3.org/2000/svg">
<rect width="1440" height="393" fill="#D3D8DD"/>
<mask id="mask0_166_668" style="mask-type:luminance" maskUnits="userSpaceOnUse" x="0" y="0" width="1440" height="393">
<rect width="1440" height="393" fill="white"/>
</mask>
<g mask="url(#mask0_166_668)">
<path fill-rule="evenodd" clip-rule="evenodd" d="M599.058 163.123C599.058 164.304 598.106 165.262 596.931 165.262C595.757 165.262 594.805 164.304 594.805 163.123C594.805 161.942 595.757 160.984 596.931 160.984C598.106 160.984 599.058 161.942 599.058 163.123ZM607.988 166.973C609.162 166.973 610.114 166.015 610.114 164.834C610.114 163.653 609.162 162.695 607.988 162.695C606.813 162.695 605.861 163.653 605.861 164.834C605.861 166.015 606.813 166.973 607.988 166.973ZM615.643 172.962C615.643 174.616 614.31 175.957 612.666 175.957C611.022 175.957 609.689 174.616 609.689 172.962C609.689 171.309 611.022 169.968 612.666 169.968C614.31 169.968 615.643 171.309 615.643 172.962ZM591.828 177.668C593.472 177.668 594.805 176.328 594.805 174.674C594.805 173.02 593.472 171.679 591.828 171.679C590.183 171.679 588.851 173.02 588.851 174.674C588.851 176.328 590.183 177.668 591.828 177.668ZM579.494 185.797C581.138 185.797 582.471 184.456 582.471 182.802C582.471 181.148 581.138 179.807 579.494 179.807C577.849 179.807 576.517 181.148 576.517 182.802C576.517 184.456 577.849 185.797 579.494 185.797ZM569.287 204.62C570.931 204.62 572.264 203.279 572.264 201.626C572.264 199.972 570.931 198.631 569.287 198.631C567.642 198.631 566.31 199.972 566.31 201.626C566.31 203.279 567.642 204.62 569.287 204.62ZM588.851 195.209C588.851 196.862 587.518 198.203 585.873 198.203C584.229 198.203 582.896 196.862 582.896 195.209C582.896 193.555 584.229 192.214 585.873 192.214C587.518 192.214 588.851 193.555 588.851 195.209ZM591.402 187.508C592.576 187.508 593.528 186.55 593.528 185.369C593.528 184.188 592.576 183.23 591.402 183.23C590.228 183.23 589.275 184.188 589.275 185.369C589.275 186.55 590.228 187.508 591.402 187.508ZM578.643 191.786C578.643 192.967 577.691 193.925 576.517 193.925C575.342 193.925 574.39 192.967 574.39 191.786C574.39 190.605 575.342 189.647 576.517 189.647C577.691 189.647 578.643 190.605 578.643 191.786ZM581.195 205.904C582.369 205.904 583.321 204.946 583.321 203.765C583.321 202.583 582.369 201.626 581.195 201.626C580.021 201.626 579.069 202.583 579.069 203.765C579.069 204.946 580.021 205.904 581.195 205.904ZM564.184 194.353C564.184 195.534 563.231 196.492 562.057 196.492C560.883 196.492 559.931 195.534 559.931 194.353C559.931 193.172 560.883 192.214 562.057 192.214C563.231 192.214 564.184 193.172 564.184 194.353ZM604.585 183.658C605.76 183.658 606.712 182.7 606.712 181.519C606.712 180.337 605.76 179.38 604.585 179.38C603.411 179.38 602.459 180.337 602.459 181.519C602.459 182.7 603.411 183.658 604.585 183.658Z" fill="white"/>
<path fill-rule="evenodd" clip-rule="evenodd" d="M560.607 211.371C554.26 206.295 549.529 198.148 552.303 191.631C555.078 185.113 566.976 180.787 574.819 174.512C582.662 168.237 587.448 155.566 594.808 153.128C602.167 150.689 611.044 153.982 616.611 159.341C622.178 164.7 627.14 170.991 623.529 178.436C619.917 185.88 608.143 187.877 600.89 194.907C593.637 201.938 588.523 213.718 582.181 216.151C575.838 218.584 566.954 216.446 560.607 211.371Z" stroke="white" stroke-width="2.5"/>
<path d="M551.322 211.684C551.322 211.684 554.101 221.48 561.31 226.416C568.519 231.352 573.65 233.146 581.525 230.679C589.401 228.213 593.277 216.212 599.76 210.676C609.805 202.099 625.895 197.452 624.758 187.313" stroke="white" stroke-width="2.5" stroke-linecap="round"/>
<path d="M843.758 86.9655L826.316 38.1337C825.413 35.6058 826.694 32.8193 829.2 31.8576V31.8576C831.773 30.8701 834.657 32.1785 835.608 34.7653L839.32 44.8545" stroke="white" stroke-width="2.5" stroke-linecap="round"/>
<path d="M839.465 45.2587L832.364 25.7011C831.446 23.1739 832.722 20.3773 835.232 19.414V19.414C837.798 18.4292 840.674 19.7326 841.625 22.3114L846.918 36.6604" stroke="white" stroke-width="2.5" stroke-linecap="round"/>
<path d="M845.42 32.092L841.125 20.2631C840.209 17.7399 841.483 14.9477 843.989 13.9859V13.9859C846.557 13.0005 849.434 14.3097 850.378 16.893L857.113 35.329" stroke="white" stroke-width="2.5" stroke-linecap="round"/>
<path d="M854.179 26.8808L851.318 19.0024C850.403 16.4827 851.676 13.6944 854.178 12.734V12.734C856.747 11.7481 859.625 13.0625 860.563 15.6498L889.285 94.9427" stroke="white" stroke-width="2.5" stroke-linecap="round"/>
<path d="M866.532 79.0369L848.211 52.3536C846.536 49.9142 846.921 46.6123 849.113 44.6246V44.6246C851.327 42.617 854.691 42.5765 856.953 44.5303L865.989 52.3369" stroke="white" stroke-width="2.5" stroke-linecap="round"/>
<path d="M876.25 38.2596L888.649 23.7948C890.414 21.7364 893.507 21.485 895.581 23.2316V23.2316C897.654 24.9771 897.933 28.0664 896.207 30.1553L881.638 47.7905" stroke="white" stroke-width="2.5" stroke-linecap="round"/>
<path d="M894.084 32.9956L895.073 31.8421C896.81 29.8152 899.859 29.5725 901.895 31.2991V31.2991C903.925 33.0205 904.19 36.0561 902.488 38.1027L889.211 54.0686" stroke="white" stroke-width="2.5" stroke-linecap="round"/>
<path d="M895.632 46.3489L896.616 45.2006C898.356 43.1708 901.409 42.9278 903.448 44.6568V44.6568C905.477 46.3771 905.745 49.4092 904.05 51.4594L888.355 70.4428" stroke="white" stroke-width="2.5" stroke-linecap="round"/>
<path d="M872.544 27.3396L880.057 18.7849C881.752 16.8556 884.676 16.6314 886.645 18.2797V18.2797C888.637 19.9481 888.91 22.9122 887.255 24.9158L881.872 31.4307" stroke="white" stroke-width="2.5" stroke-linecap="round"/>
<path d="M843.758 391.426L826.316 342.595C825.413 340.067 826.694 337.28 829.2 336.319V336.319C831.773 335.331 834.657 336.639 835.608 339.226L839.32 349.315" stroke="white" stroke-width="2.5" stroke-linecap="round"/>
<path d="M839.465 349.72L832.364 330.162C831.446 327.635 832.722 324.838 835.232 323.875V323.875C837.798 322.89 840.674 324.194 841.625 326.772L846.918 341.121" stroke="white" stroke-width="2.5" stroke-linecap="round"/>
<path d="M845.42 336.553L841.125 324.724C840.209 322.201 841.483 319.409 843.989 318.447V318.447C846.557 317.461 849.434 318.771 850.378 321.354L857.113 339.79" stroke="white" stroke-width="2.5" stroke-linecap="round"/>
<path d="M854.179 331.342L851.318 323.463C850.403 320.944 851.676 318.155 854.178 317.195V317.195C856.747 316.209 859.625 317.523 860.563 320.111L889.285 399.404" stroke="white" stroke-width="2.5" stroke-linecap="round"/>
<path d="M866.532 383.498L848.211 356.815C846.536 354.375 846.921 351.073 849.113 349.086V349.086C851.327 347.078 854.691 347.037 856.953 348.991L865.989 356.798" stroke="white" stroke-width="2.5" stroke-linecap="round"/>
<path d="M876.25 342.721L888.649 328.256C890.414 326.197 893.507 325.946 895.581 327.692V327.692C897.654 329.438 897.933 332.527 896.207 334.616L881.638 352.251" stroke="white" stroke-width="2.5" stroke-linecap="round"/>
<path d="M894.084 337.457L895.073 336.303C896.81 334.276 899.859 334.033 901.895 335.76V335.76C903.925 337.481 904.19 340.517 902.488 342.564L889.211 358.53" stroke="white" stroke-width="2.5" stroke-linecap="round"/>
<path d="M895.632 350.81L896.616 349.661C898.356 347.632 901.409 347.389 903.448 349.118V349.118C905.477 350.838 905.745 353.87 904.05 355.92L888.355 374.904" stroke="white" stroke-width="2.5" stroke-linecap="round"/>
<path d="M872.544 331.801L880.057 323.246C881.752 321.317 884.676 321.092 886.645 322.741V322.741C888.637 324.409 888.91 327.373 887.255 329.377L881.872 335.892" stroke="white" stroke-width="2.5" stroke-linecap="round"/>
<path d="M59.667 232.292C59.667 232.292 69.619 232.454 70.8234 223.728H115.683L112.979 250.519" stroke="white" stroke-width="2.5" stroke-linecap="round" stroke-linejoin="round"/>
<path d="M114.696 236.998C114.696 236.998 126.775 251.579 118.571 257.285C115.173 259.647 108.095 258.586 98.4785 252.527C92.3382 248.659 76.79 234.971 76.79 234.971" stroke="white" stroke-width="2.5" stroke-linecap="round" stroke-linejoin="round"/>
<path d="M63.8027 232.201L68.5861 275.758H110.25L112.275 258.524" stroke="white" stroke-width="2.5" stroke-linecap="round" stroke-linejoin="round"/>
<path d="M74.9381 217.774C74.9381 217.774 72.5819 209.453 78.6777 206.397C84.7736 203.341 90.6925 210.599 90.6925 210.599" stroke="white" stroke-width="2.5" stroke-linecap="round" stroke-linejoin="round"/>
<path d="M85.9863 206.181C85.9863 206.181 88.4337 199.555 94.1558 199.408C99.8779 199.262 102.19 205.055 102.19 205.055C102.19 205.055 107.262 203.007 110.286 204.835C113.311 206.663 113.164 210.735 113.164 210.735C113.164 210.735 119.402 211.473 120.201 216.408C120.999 221.344 115.891 223.827 115.891 223.827" stroke="white" stroke-width="2.5" stroke-linecap="round" stroke-linejoin="round"/>
<path d="M64.638 241.515C64.638 241.515 56.0179 244.564 52.707 239.4C49.3961 234.235 54.2968 229.161 54.2968 229.161C54.2968 229.161 51.3649 224.076 53.3985 219.799C55.4321 215.522 61.3634 213.564 66.0571 216.354" stroke="white" stroke-width="2.5" stroke-linecap="round" stroke-linejoin="round"/>
<path d="M60.6655 214.896C60.6655 214.896 59.9781 209.266 62.8099 206.48C65.6417 203.694 70.6893 204.681 70.6893 204.681" stroke="white" stroke-width="2.5" stroke-linecap="round" stroke-linejoin="round"/>
<path fill-rule="evenodd" clip-rule="evenodd" d="M264.966 49.4184C265.857 49.9328 266.994 49.6314 267.506 48.7452C268.018 47.8591 267.71 46.7237 266.819 46.2093C265.928 45.6949 264.791 45.9963 264.28 46.8825C263.768 47.7687 264.075 48.904 264.966 49.4184ZM257.402 47.6184C258.293 48.1328 259.43 47.8314 259.942 46.9452C260.453 46.059 260.146 44.9236 259.255 44.4093C258.364 43.8949 257.227 44.1963 256.715 45.0824C256.204 45.9686 256.511 47.104 257.402 47.6184ZM254.437 52.7529C255.328 53.2673 256.465 52.9659 256.977 52.0797C257.488 51.1936 257.181 50.0582 256.29 49.5438C255.399 49.0294 254.262 49.3308 253.75 50.217C253.239 51.1032 253.546 52.2385 254.437 52.7529ZM253.827 57.5353C253.316 58.4215 252.179 58.7229 251.288 58.2085C250.397 57.6941 250.089 56.5587 250.601 55.6725C251.113 54.7864 252.25 54.485 253.14 54.9993C254.031 55.5137 254.339 56.6491 253.827 57.5353ZM263.43 55.8053C262.918 56.6915 261.781 56.9929 260.89 56.4785C259.999 55.9641 259.692 54.8287 260.203 53.9426C260.715 53.0564 261.852 52.755 262.743 53.2694C263.634 53.7837 263.941 54.9191 263.43 55.8053ZM256.628 63.8594C257.519 64.3738 258.656 64.0724 259.168 63.1862C259.68 62.3 259.372 61.1647 258.481 60.6503C257.59 60.1359 256.453 60.4373 255.942 61.3235C255.43 62.2097 255.738 63.345 256.628 63.8594Z" fill="white"/>
<path d="M217.72 44.8185L226.754 50.0342" stroke="white" stroke-width="2.5" stroke-linecap="round"/>
<path d="M213.274 52.5206L222.308 57.7363" stroke="white" stroke-width="2.5" stroke-linecap="round"/>
<path fill-rule="evenodd" clip-rule="evenodd" d="M212.847 52.2906L217.14 44.8538L210.236 40.8675L209.078 35.9436L222.848 30.331C224.553 29.636 226.484 29.7681 228.079 30.6887L249.484 43.047C250.018 43.3557 250.202 44.0392 249.893 44.5738L246.638 50.2117C246.329 50.7462 245.646 50.9294 245.111 50.6208L238.641 46.8851C234.899 44.7247 230.114 46.0068 227.954 49.7487L219.289 64.7563C218.17 66.6947 217.892 69.0063 218.52 71.1546L221.359 80.8617C221.987 83.0099 221.709 85.3216 220.59 87.26L213.48 99.5744L185.626 83.4928C185.626 83.4928 191.657 71.202 198.103 63.8131C204.549 56.4242 212.847 52.2906 212.847 52.2906Z" stroke="white" stroke-width="2.5" stroke-linecap="round" stroke-linejoin="round"/>
<path d="M242.845 40.9255C237.244 49.7309 235.454 56.4466 237.474 61.0728" stroke="white" stroke-width="2.5" stroke-linecap="round"/>
<path fill-rule="evenodd" clip-rule="evenodd" d="M264.966 353.879C265.857 354.394 266.994 354.092 267.506 353.206C268.018 352.32 267.71 351.185 266.819 350.67C265.928 350.156 264.791 350.457 264.28 351.343C263.768 352.23 264.075 353.365 264.966 353.879ZM257.402 352.079C258.293 352.594 259.43 352.292 259.942 351.406C260.453 350.52 260.146 349.385 259.255 348.87C258.364 348.356 257.227 348.657 256.715 349.543C256.204 350.43 256.511 351.565 257.402 352.079ZM254.437 357.214C255.328 357.728 256.465 357.427 256.977 356.541C257.488 355.654 257.181 354.519 256.29 354.005C255.399 353.49 254.262 353.792 253.75 354.678C253.239 355.564 253.546 356.699 254.437 357.214ZM253.827 361.996C253.316 362.882 252.179 363.184 251.288 362.669C250.397 362.155 250.089 361.02 250.601 360.133C251.113 359.247 252.25 358.946 253.14 359.46C254.031 359.975 254.339 361.11 253.827 361.996ZM263.43 360.266C262.918 361.152 261.781 361.454 260.89 360.939C259.999 360.425 259.692 359.29 260.203 358.403C260.715 357.517 261.852 357.216 262.743 357.73C263.634 358.245 263.941 359.38 263.43 360.266ZM256.628 368.32C257.519 368.835 258.656 368.533 259.168 367.647C259.68 366.761 259.372 365.626 258.481 365.111C257.59 364.597 256.453 364.898 255.942 365.784C255.43 366.671 255.738 367.806 256.628 368.32Z" fill="white"/>
<path d="M217.72 349.279L226.754 354.495" stroke="white" stroke-width="2.5" stroke-linecap="round"/>
<path d="M213.274 356.982L222.308 362.197" stroke="white" stroke-width="2.5" stroke-linecap="round"/>
<path fill-rule="evenodd" clip-rule="evenodd" d="M212.847 356.752L217.14 349.315L210.236 345.328L209.078 340.405L222.848 334.792C224.553 334.097 226.484 334.229 228.079 335.15L249.484 347.508C250.018 347.817 250.202 348.5 249.893 349.035L246.638 354.673C246.329 355.207 245.646 355.39 245.111 355.082L238.641 351.346C234.899 349.186 230.114 350.468 227.954 354.21L219.289 369.217C218.17 371.156 217.892 373.467 218.52 375.616L221.359 385.323C221.987 387.471 221.709 389.783 220.59 391.721L213.48 404.035L185.626 387.954C185.626 387.954 191.657 375.663 198.103 368.274C204.549 360.885 212.847 356.752 212.847 356.752Z" stroke="white" stroke-width="2.5" stroke-linecap="round" stroke-linejoin="round"/>
<path d="M242.845 345.386C237.244 354.192 235.454 360.908 237.474 365.534" stroke="white" stroke-width="2.5" stroke-linecap="round"/>
<path d="M1199.22 174.443L1227.77 203.393L1244.41 186.924L1262.04 191.436L1293 222.667L1300.94 214.625L1270.25 183.694L1265.68 165.358L1281.93 149.08L1253.21 120.041" stroke="white" stroke-width="2.5" stroke-linecap="round" stroke-linejoin="round"/>
<path d="M1217.07 190.939L1270.19 137.878" stroke="white" stroke-width="2.5" stroke-linecap="round" stroke-linejoin="round"/>
<path d="M1244.94 187.108L1240.7 182.917L1261.73 161.786L1265.66 165.928" stroke="white" stroke-width="2.5" stroke-linecap="round" stroke-linejoin="round"/>
<path d="M1262.37 191.953L1270.14 184.305" stroke="white" stroke-width="2.5" stroke-linecap="round" stroke-linejoin="round"/>
<path d="M1284.69 213.834L1292.46 206.186" stroke="white" stroke-width="2.5" stroke-linecap="round" stroke-linejoin="round"/>
<path d="M1274.06 203.16L1281.83 195.512" stroke="white" stroke-width="2.5" stroke-linecap="round" stroke-linejoin="round"/>
<path d="M1220.61 211.216L1231.92 222.669" stroke="white" stroke-width="2.5" stroke-linecap="round" stroke-linejoin="round"/>
<path d="M1236.02 211.216L1247.33 222.669" stroke="white" stroke-width="2.5" stroke-linecap="round" stroke-linejoin="round"/>
<path d="M1282.23 164.786L1293.55 176.238" stroke="white" stroke-width="2.5" stroke-linecap="round" stroke-linejoin="round"/>
<path d="M1282.23 133.832L1293.55 145.285" stroke="white" stroke-width="2.5" stroke-linecap="round" stroke-linejoin="round"/>
<path d="M1367.32 63.2357L1342.27 54.1178C1340.35 53.4207 1339.36 51.3027 1340.06 49.3872V49.3872C1340.76 47.4717 1342.88 46.4841 1344.79 47.1813L1366.26 54.9938C1372.73 57.3487 1376.06 64.5027 1373.71 70.9728V70.9728C1373.21 72.3315 1371.71 73.032 1370.35 72.5375L1336.16 60.0941" stroke="white" stroke-width="2.5" stroke-linecap="round"/>
<path d="M1339.87 49.9172L1348.57 26.0091C1349.46 23.5557 1352.18 22.2908 1354.63 23.1837L1379.06 32.0762C1383.36 33.6389 1385.57 38.3861 1384.01 42.6795L1375.33 66.5272" stroke="white" stroke-width="2.5"/>
<path d="M1367.32 367.697L1342.27 358.579C1340.35 357.882 1339.36 355.764 1340.06 353.849V353.849C1340.76 351.933 1342.88 350.946 1344.79 351.643L1366.26 359.455C1372.73 361.81 1376.06 368.964 1373.71 375.434V375.434C1373.21 376.793 1371.71 377.493 1370.35 376.999L1336.16 364.556" stroke="white" stroke-width="2.5" stroke-linecap="round"/>
<path d="M1339.87 354.379L1348.57 330.471C1349.46 328.017 1352.18 326.752 1354.63 327.645L1379.06 336.538C1383.36 338.1 1385.57 342.848 1384.01 347.141L1375.33 370.989" stroke="white" stroke-width="2.5"/>
<path fill-rule="evenodd" clip-rule="evenodd" d="M510.889 55.8599C510.889 55.8599 490.683 62.6611 487.19 79.957C487.19 79.957 481.326 59.6475 463 55.8599C463 55.8599 482.521 49.7168 487.19 32C487.19 32 490.255 41.8337 496.35 47.752C501.29 52.5483 510.889 55.8599 510.889 55.8599Z" stroke="white" stroke-width="2.5" stroke-linecap="round" stroke-linejoin="round"/>
<path fill-rule="evenodd" clip-rule="evenodd" d="M510.889 360.321C510.889 360.321 490.683 367.122 487.19 384.418C487.19 384.418 481.326 364.108 463 360.321C463 360.321 482.521 354.178 487.19 336.461C487.19 336.461 490.255 346.295 496.35 352.213C501.29 357.009 510.889 360.321 510.889 360.321Z" stroke="white" stroke-width="2.5" stroke-linecap="round" stroke-linejoin="round"/>
<path fill-rule="evenodd" clip-rule="evenodd" d="M1157 40.8961C1157 40.8961 1139.28 46.8525 1136.22 62C1136.22 62 1131.07 44.2132 1115 40.8961C1115 40.8961 1132.12 35.5161 1136.22 20C1136.22 20 1138.9 28.6122 1144.25 33.7953C1148.58 37.9959 1157 40.8961 1157 40.8961Z" stroke="white" stroke-width="2.5" stroke-linecap="round" stroke-linejoin="round"/>
<path fill-rule="evenodd" clip-rule="evenodd" d="M1157 345.357C1157 345.357 1139.28 351.313 1136.22 366.461C1136.22 366.461 1131.07 348.674 1115 345.357C1115 345.357 1132.12 339.977 1136.22 324.461C1136.22 324.461 1138.9 333.073 1144.25 338.256C1148.58 342.457 1157 345.357 1157 345.357Z" stroke="white" stroke-width="2.5" stroke-linecap="round" stroke-linejoin="round"/>
<path fill-rule="evenodd" clip-rule="evenodd" d="M272 217.931C272 217.931 260.186 221.902 258.143 232C258.143 232 254.715 220.142 244 217.931C244 217.931 255.414 214.344 258.143 204C258.143 204 259.935 209.741 263.499 213.197C266.388 215.997 272 217.931 272 217.931Z" stroke="white" stroke-width="2.5" stroke-linecap="round" stroke-linejoin="round"/>
<path fill-rule="evenodd" clip-rule="evenodd" d="M881 232.941C881 232.941 870.874 236.344 869.123 245C869.123 245 866.184 234.836 857 232.941C857 232.941 866.783 229.866 869.123 221C869.123 221 870.659 225.921 873.714 228.883C876.189 231.283 881 232.941 881 232.941Z" stroke="white" stroke-width="2.5" stroke-linecap="round" stroke-linejoin="round"/>
<path fill-rule="evenodd" clip-rule="evenodd" d="M1369 143.965C1369 143.965 1363.09 145.951 1362.07 151C1362.07 151 1360.36 145.071 1355 143.965C1355 143.965 1360.71 142.172 1362.07 137C1362.07 137 1362.97 139.871 1364.75 141.598C1366.19 142.999 1369 143.965 1369 143.965Z" stroke="white" stroke-width="2.5" stroke-linecap="round" stroke-linejoin="round"/>
<path fill-rule="evenodd" clip-rule="evenodd" d="M729 286.965C729 286.965 723.093 288.951 722.072 294C722.072 294 720.357 288.071 715 286.965C715 286.965 720.707 285.172 722.072 280C722.072 280 722.968 282.871 724.75 284.598C726.194 285.999 729 286.965 729 286.965Z" stroke="white" stroke-width="2.5" stroke-linecap="round" stroke-linejoin="round"/>
<path d="M646 48.8647H651.754" stroke="white" stroke-width="3" stroke-linecap="round" stroke-linejoin="round"/>
<path d="M648.877 46V51.7297" stroke="white" stroke-width="3" stroke-linecap="round" stroke-linejoin="round"/>
<path d="M646 353.326H651.754" stroke="white" stroke-width="3" stroke-linecap="round" stroke-linejoin="round"/>
<path d="M648.877 350.461V356.191" stroke="white" stroke-width="3" stroke-linecap="round" stroke-linejoin="round"/>
<path d="M1016 48.8647H1021.75" stroke="white" stroke-width="3" stroke-linecap="round" stroke-linejoin="round"/>
<path d="M1018.88 46V51.7297" stroke="white" stroke-width="3" stroke-linecap="round" stroke-linejoin="round"/>
<path d="M1018.88 350.461V356.191" stroke="white" stroke-width="3" stroke-linecap="round" stroke-linejoin="round"/>
<path d="M1234 282.865H1239.75" stroke="white" stroke-width="3" stroke-linecap="round" stroke-linejoin="round"/>
<path d="M1236.88 280V285.73" stroke="white" stroke-width="3" stroke-linecap="round" stroke-linejoin="round"/>
<path d="M1394 98.7749H1403.59" stroke="white" stroke-width="3" stroke-linecap="round" stroke-linejoin="round"/>
<path d="M1398.79 94V103.55" stroke="white" stroke-width="3" stroke-linecap="round" stroke-linejoin="round"/>
<path d="M1256 38.8647H1261.75" stroke="white" stroke-width="3" stroke-linecap="round" stroke-linejoin="round"/>
<path d="M1258.88 36V41.7297" stroke="white" stroke-width="3" stroke-linecap="round" stroke-linejoin="round"/>
<path d="M1256 343.326H1261.75" stroke="white" stroke-width="3" stroke-linecap="round" stroke-linejoin="round"/>
<path d="M1258.88 340.461V346.191" stroke="white" stroke-width="3" stroke-linecap="round" stroke-linejoin="round"/>
<path d="M1153 237.729H1164.51" stroke="white" stroke-width="3" stroke-linecap="round" stroke-linejoin="round"/>
<path d="M1158.75 232V243.459" stroke="white" stroke-width="3" stroke-linecap="round" stroke-linejoin="round"/>
<path d="M776 208.865H781.754" stroke="white" stroke-width="3" stroke-linecap="round" stroke-linejoin="round"/>
<path d="M778.877 206V211.73" stroke="white" stroke-width="3" stroke-linecap="round" stroke-linejoin="round"/>
<path d="M425 228.82H432.673" stroke="white" stroke-width="3" stroke-linecap="round" stroke-linejoin="round"/>
<path d="M428.836 225V232.64" stroke="white" stroke-width="3" stroke-linecap="round" stroke-linejoin="round"/>
<path d="M356 78.8647H361.754" stroke="white" stroke-width="3" stroke-linecap="round" stroke-linejoin="round"/>
<path d="M358.877 76V81.7297" stroke="white" stroke-width="3" stroke-linecap="round" stroke-linejoin="round"/>
<path d="M356 383.326H361.754" stroke="white" stroke-width="3" stroke-linecap="round" stroke-linejoin="round"/>
<path d="M358.877 380.461V386.191" stroke="white" stroke-width="3" stroke-linecap="round" stroke-linejoin="round"/>
<path d="M63 49H75" stroke="white" stroke-width="3" stroke-linecap="round" stroke-linejoin="round"/>
<path d="M69 43V55" stroke="white" stroke-width="3" stroke-linecap="round" stroke-linejoin="round"/>
<path d="M63 332H75" stroke="white" stroke-width="3" stroke-linecap="round" stroke-linejoin="round"/>
<path d="M69 326V338" stroke="white" stroke-width="3" stroke-linecap="round" stroke-linejoin="round"/>
<path d="M126 138.865H131.754" stroke="white" stroke-width="3" stroke-linecap="round" stroke-linejoin="round"/>
<path d="M128.877 136V141.73" stroke="white" stroke-width="3" stroke-linecap="round" stroke-linejoin="round"/>
<ellipse cx="720" cy="46.6104" rx="14" ry="20.3897" stroke="white" stroke-width="2.5"/>
<path d="M713.786 47.877C713.786 47.877 711.137 52.0335 712.373 55.7456C713.608 59.4578 716.449 60.926 716.449 60.926" stroke="white" stroke-width="2.5" stroke-linecap="round"/>
<ellipse cx="720" cy="351.071" rx="14" ry="20.3897" stroke="white" stroke-width="2.5"/>
<path d="M713.786 352.338C713.786 352.338 711.137 356.494 712.373 360.207C713.608 363.919 716.449 365.387 716.449 365.387" stroke="white" stroke-width="2.5" stroke-linecap="round"/>
<ellipse cx="46" cy="114.578" rx="10" ry="14.422" stroke="white" stroke-width="2.5"/>
<path d="M42.561 115.474C42.561 115.474 40.8642 118.684 41.5518 121.04C42.2394 123.395 44.2696 124.106 44.2696 124.106" stroke="white" stroke-width="2.5" stroke-linecap="round"/>
<ellipse cx="386" cy="265.578" rx="10" ry="14.422" stroke="white" stroke-width="2.5"/>
<path d="M382.561 266.474C382.561 266.474 380.864 269.684 381.552 272.04C382.239 274.395 384.27 275.106 384.27 275.106" stroke="white" stroke-width="2.5" stroke-linecap="round"/>
<ellipse cx="1385" cy="210.086" rx="11" ry="15.9139" stroke="white" stroke-width="2.5"/>
<path d="M1380.12 211.075C1380.12 211.075 1378.04 214.319 1379.01 217.217C1379.98 220.114 1382.21 221.26 1382.21 221.26" stroke="white" stroke-width="2.5" stroke-linecap="round"/>
<path d="M1008.3 206.428C1016.41 206.428 1015.23 211.935 1022.96 211.935C1030.7 211.935 1030.95 206.428 1039.2 206.428C1047.44 206.428 1047.75 211.935 1055.92 211.935C1064.09 211.935 1063.78 206.428 1071.91 206.428C1080.03 206.428 1080.44 211.935 1088.4 211.935C1096.35 211.935 1095.62 206.428 1103.78 206.428" stroke="white" stroke-width="2.5"/>
<path d="M1008.3 222.285C1016.41 222.285 1015.23 227.792 1022.96 227.792C1030.7 227.792 1030.95 222.285 1039.2 222.285C1047.44 222.285 1047.75 227.792 1055.92 227.792C1064.09 227.792 1063.78 222.285 1071.91 222.285C1080.03 222.285 1080.44 227.792 1088.4 227.792C1096.35 227.792 1095.62 222.285 1103.78 222.285" stroke="white" stroke-width="2.5"/>
<path d="M1008.3 237.261C1016.41 237.261 1015.23 242.768 1022.96 242.768C1030.7 242.768 1030.95 237.261 1039.2 237.261C1047.44 237.261 1047.75 242.768 1055.92 242.768C1064.09 242.768 1063.78 237.261 1071.91 237.261C1080.03 237.261 1080.44 242.768 1088.4 242.768C1096.35 242.768 1095.62 237.261 1103.78 237.261" stroke="white" stroke-width="2.5"/>
</g>
</svg>
