<svg width="100" height="100" viewBox="0 0 100 100" fill="none" xmlns="http://www.w3.org/2000/svg">
<path fill-rule="evenodd" clip-rule="evenodd" d="M15.9447 59.6703C15.9447 59.6703 37.7061 58.4048 44.2884 66.7359H64.0634C64.0634 66.7359 68.6159 67.9428 68.6159 71.6873C68.6159 75.1203 67.4953 76.182 64.0634 78.621L89.8179 65.6496C89.8179 65.6496 95.1972 62.7546 97.8881 65.0541C100.579 67.3535 99.8796 71.0671 98.4808 72.597L61.891 93.5703C61.891 93.5703 57.903 96.0833 52.5011 94.8268L14.8691 82.4792L15.9447 59.6703Z" fill="#CFE8FD"/>
<path fill-rule="evenodd" clip-rule="evenodd" d="M16.0528 52.8468L15.9255 51.855C15.3777 51.9253 14.9906 52.4264 15.061 52.9742C15.1313 53.5219 15.6323 53.9089 16.18 53.8387M16.18 53.8387L16.1831 53.8383L16.1956 53.8367L16.2488 53.8302C16.2966 53.8245 16.3688 53.816 16.464 53.8053C16.6545 53.784 16.9371 53.754 17.3004 53.7201C18.0271 53.6523 19.076 53.5686 20.3568 53.5065C22.9214 53.3821 26.4019 53.3445 30.0809 53.688C33.7668 54.0322 37.6073 54.755 40.9141 56.1276C44.2208 57.5001 46.9162 59.4886 48.4478 62.3214L48.7314 62.8458H66.3363C66.3516 62.8484 66.3699 62.8517 66.391 62.8557C66.4738 62.8716 66.599 62.8985 66.7534 62.9408C67.065 63.0264 67.4801 63.1706 67.9017 63.4032C68.7307 63.8607 69.5355 64.6227 69.7274 65.9638C69.9145 67.8997 69.5115 68.9677 69.0441 69.6142C68.6063 70.2198 68.0476 70.5619 67.4615 70.8994H43.4395C42.8872 70.8994 42.4395 71.3471 42.4395 71.8994C42.4395 72.4517 42.8872 72.8994 43.4395 72.8994H67.9955L68.2272 72.766C68.2728 72.7397 68.3213 72.7122 68.3721 72.6833C68.9795 72.3382 69.9352 71.7953 70.6649 70.7859C71.4821 69.6556 71.9439 68.0647 71.7158 65.7476L71.7138 65.7281L71.7112 65.7087C71.4123 63.5468 70.0671 62.3138 68.8679 61.6521C68.2734 61.3241 67.7028 61.1274 67.2827 61.0121C67.0713 60.9541 66.8941 60.9157 66.7661 60.8912C66.7019 60.879 66.6498 60.8702 66.6115 60.8642C66.5923 60.8612 66.5766 60.8588 66.5645 60.8571L66.5491 60.855L66.5435 60.8543L66.5412 60.854L66.5403 60.8539C66.5398 60.8538 66.5393 60.8537 66.4134 61.8458L66.5403 60.8539L66.4766 60.8458H49.9077C48.051 57.7635 45.0543 55.6807 41.6808 54.2804C38.1195 52.8022 34.0607 52.0509 30.2668 51.6967C26.4659 51.3418 22.8859 51.3814 20.2599 51.5088C18.9455 51.5726 17.8667 51.6586 17.1144 51.7288C16.7382 51.7639 16.4435 51.7951 16.2416 51.8177C16.1406 51.829 16.0629 51.8382 16.0097 51.8446L15.9486 51.852L15.9322 51.8541L15.9255 51.855C15.925 51.855 15.9255 51.855 16.0528 52.8468" fill="#1A78F2"/>
<path fill-rule="evenodd" clip-rule="evenodd" d="M6 54.27C6 52.326 7.57596 50.75 9.52 50.75H13.2998C15.2438 50.75 16.8198 52.326 16.8198 54.27V79.88C16.8198 81.824 15.2438 83.4 13.2998 83.4H9.52C7.57596 83.4 6 81.824 6 79.88V54.27Z" fill="#CFE8FD"/>
<path fill-rule="evenodd" clip-rule="evenodd" d="M97.5985 62.6169L97.5949 62.6104C97.5885 62.5988 97.5802 62.5841 97.57 62.5666C97.5498 62.5317 97.5219 62.4854 97.4864 62.4298C97.4155 62.3189 97.313 62.1695 97.1772 61.9987C96.9073 61.6592 96.496 61.2222 95.9283 60.8364C94.7536 60.0379 92.9933 59.5221 90.6754 60.3497L90.6345 60.3642L67.1483 71.1241L67.9814 72.9424L91.3872 62.2193C93.0408 61.6411 94.1257 62.0294 94.8041 62.4905C95.1657 62.7362 95.434 63.0199 95.6115 63.2432C95.6995 63.3538 95.7625 63.4464 95.8013 63.507C95.8206 63.5372 95.8336 63.5591 95.8405 63.5709L95.8442 63.5772L95.8454 63.5795L95.8461 63.5808L95.8496 63.5874L95.8572 63.6007C96.5432 64.802 96.2593 65.8903 95.709 66.7928C95.4312 67.2484 95.0984 67.6277 94.8295 67.8958C94.6966 68.0284 94.583 68.1301 94.5052 68.1966C94.4822 68.2164 94.4624 68.2329 94.4463 68.2462L59.1819 87.8814C57.0986 88.6499 55.0915 88.652 53.5841 88.4518C52.8245 88.3509 52.2008 88.1997 51.7716 88.0755C51.5573 88.0135 51.3925 87.9585 51.2845 87.9203C51.2306 87.9013 51.1909 87.8864 51.1665 87.8771L51.1414 87.8673L51.14 87.8668L51.1389 87.8663L51.1027 87.8515L16.0736 76.6776L15.4658 78.583L50.4238 89.7342C50.432 89.7374 50.4412 89.741 50.4516 89.7449C50.4914 89.7602 50.5471 89.781 50.6179 89.806C50.7594 89.856 50.9611 89.9231 51.2156 89.9967C51.7238 90.1438 52.4462 90.3182 53.3207 90.4344C55.0653 90.6661 57.4518 90.6704 59.9546 89.7278L60.024 89.7017L95.5536 69.9187L95.61 69.8759L95.0053 69.0794C95.61 69.8759 95.6097 69.8762 95.61 69.8759L95.6115 69.8748L95.6133 69.8734L95.6178 69.8699L95.6308 69.8599C95.6411 69.8518 95.6547 69.8411 95.6714 69.8277C95.7047 69.8009 95.7503 69.7635 95.8058 69.716C95.9166 69.6212 96.0681 69.4851 96.2417 69.312C96.5861 68.9686 97.032 68.4649 97.4166 67.8339C98.1905 66.5648 98.7662 64.6691 97.5985 62.6169Z" fill="#1A78F2"/>
<path fill-rule="evenodd" clip-rule="evenodd" d="M13.2998 51.1001H3.52C2.68053 51.1001 2 51.7806 2 52.6201V79.8801C2 80.7196 2.68053 81.4001 3.52 81.4001H13.2998C14.1392 81.4001 14.8198 80.7196 14.8198 79.8801V52.6201C14.8198 51.7806 14.1392 51.1001 13.2998 51.1001ZM3.52 49.1001C1.57596 49.1001 0 50.6761 0 52.6201V79.8801C0 81.8241 1.57596 83.4001 3.52 83.4001H13.2998C15.2438 83.4001 16.8198 81.8241 16.8198 79.8801V52.6201C16.8198 50.6761 15.2438 49.1001 13.2998 49.1001H3.52Z" fill="#1A78F2"/>
<path fill-rule="evenodd" clip-rule="evenodd" d="M49.9701 4.91304C49.9701 4.91298 49.9702 4.9131 49.9701 4.91304L62.642 21.4367C62.642 21.4366 62.6421 21.4368 62.642 21.4367C63.1985 22.1602 63.2873 23.1322 62.8742 23.9426L62.8731 23.9447C62.4591 24.752 61.6242 25.25 60.7229 25.25H56.1957V55.6944C56.1957 56.7327 55.354 57.5744 54.3157 57.5744H50.7263L50.4264 57.191L50.4233 57.1871L50.4097 57.17C50.3972 57.1542 50.3775 57.1298 50.3513 57.0975C50.2987 57.0328 50.2195 56.9369 50.1165 56.8159C49.9103 56.5737 49.61 56.2327 49.2377 55.8431C48.4877 55.0579 47.4707 54.1015 46.3632 53.3539C44.6818 52.2189 42.3564 51.2672 41.2646 50.8523C40.5378 50.576 40.0321 49.8778 40.0321 49.0751V25.25H35.3756C34.4743 25.25 33.6394 24.752 33.2254 23.9447L33.2243 23.9426C32.8113 23.1323 32.8998 22.1607 33.456 21.4373C33.4559 21.4375 33.4562 21.4371 33.456 21.4373L46.1284 4.91304C46.1282 4.9133 46.1286 4.91278 46.1284 4.91304C46.1285 4.91296 46.1291 4.9121 46.1292 4.91202C46.6182 4.27343 47.3689 4 48.0493 4C48.7299 4 49.4811 4.27385 49.9701 4.91304ZM51.6861 55.5744H54.1957V23.25H60.7229C60.8886 23.25 61.0278 23.1591 61.0928 23.0333C61.1551 22.9103 61.1422 22.7671 61.0569 22.6563L48.3815 6.1281C48.3396 6.07332 48.2296 6 48.0493 6C47.8689 6 47.7589 6.07332 47.717 6.1281L35.0416 22.6563C34.9563 22.7671 34.9434 22.9102 35.0056 23.0332C35.0707 23.1591 35.2099 23.25 35.3756 23.25H42.0321V49.0044C43.1671 49.438 45.6271 50.444 47.4822 51.6963C48.7551 52.5555 49.8836 53.6238 50.6839 54.4616C51.0869 54.8834 51.4129 55.2534 51.6394 55.5195C51.6555 55.5383 51.671 55.5566 51.6861 55.5744Z" fill="#1A78F2"/>
<path fill-rule="evenodd" clip-rule="evenodd" d="M74.6137 25.913C74.6136 25.913 74.6137 25.9131 74.6137 25.913L87.2856 42.4367C87.2855 42.4366 87.2857 42.4368 87.2856 42.4367C87.8421 43.1602 87.9308 44.1322 87.5177 44.9426L87.5167 44.9447C87.1027 45.752 86.2678 46.25 85.3665 46.25H80.8392V61.6552C80.8392 62.3904 80.4108 63.058 79.7425 63.3643L74.2983 65.8593L74.0439 64.6317L74.0437 64.6307L74.0431 64.6278L74.038 64.6051C74.0332 64.5835 74.0252 64.5491 74.014 64.5034C73.9915 64.4117 73.956 64.2751 73.906 64.1045C73.8056 63.762 73.6486 63.2892 73.4241 62.7721C72.9627 61.7097 72.2711 60.5894 71.3151 59.944C69.8705 58.9688 67.7131 58.6336 66.4639 58.529C65.4989 58.4482 64.6757 57.6495 64.6757 56.6109V46.25H60.0191C59.1179 46.25 58.2829 45.752 57.869 44.9447L57.8679 44.9426C57.4548 44.1323 57.5433 43.1607 58.0996 42.4373C58.0994 42.4375 58.0997 42.4371 58.0996 42.4373L70.772 25.913C70.7718 25.9133 70.7722 25.9128 70.772 25.913C70.772 25.913 70.7727 25.9121 70.7727 25.912C71.2618 25.2734 72.0124 25 72.6928 25C73.3735 25 74.1247 25.2739 74.6137 25.913ZM75.6649 63.033L78.8392 61.5782V44.25H85.3665C85.5321 44.25 85.6713 44.1591 85.7364 44.0333C85.7986 43.9103 85.7857 43.7671 85.7005 43.6563L73.0251 27.1281C72.9832 27.0733 72.8732 27 72.6928 27C72.5125 27 72.4025 27.0733 72.3606 27.1281L59.6851 43.6563C59.5999 43.7671 59.587 43.9102 59.6492 44.0332C59.7143 44.1591 59.8535 44.25 60.0191 44.25H66.6757V56.5398C67.9782 56.6521 70.5528 57.0164 72.4341 58.2863C73.8583 59.2478 74.7409 60.7835 75.2585 61.9754C75.4246 62.3578 75.5588 62.7182 75.6649 63.033Z" fill="#1A78F2"/>
</svg>
