<svg width="180" height="180" viewBox="0 0 180 180" fill="none" xmlns="http://www.w3.org/2000/svg">
<g id="Image">
<g id="BG" filter="url(#filter0_d_1150_2978)">
<path fill-rule="evenodd" clip-rule="evenodd" d="M90 170C134.183 170 170 134.183 170 90C170 45.8172 134.183 10 90 10C45.8172 10 10 45.8172 10 90C10 134.183 45.8172 170 90 170Z" fill="#ECECEE"/>
</g>
<path id="Mask" fill-rule="evenodd" clip-rule="evenodd" d="M113.563 111.6H66.4375C65.091 111.6 64 110.526 64 109.2V79.7838C64 78.4588 65.091 77.3839 66.4375 77.3839H76.8477L80.7515 70.9571C81.1966 70.379 81.8941 70 82.6876 70H97.3125C97.9972 70 98.6129 70.2804 99.0565 70.7274L99.0582 70.725L103.198 77.3839H113.563C114.909 77.3839 116 78.4588 116 79.7838V109.2C116 110.526 114.909 111.6 113.563 111.6ZM90.0005 82.3064C82.8894 82.3064 77.125 87.9828 77.125 94.9838C77.125 101.986 82.8894 107.661 90.0005 107.661C97.1116 107.661 102.876 101.986 102.876 94.9838C102.876 87.9828 97.1116 82.3064 90.0005 82.3064ZM82.5488 94.9839C82.5488 99.0355 85.8852 102.321 90.0002 102.321C94.1158 102.321 97.4516 99.0355 97.4516 94.9839C97.4516 90.9315 94.1158 87.6471 90.0002 87.6471C85.8852 87.6471 82.5488 90.9315 82.5488 94.9839Z" fill="#414141"/>
<mask id="mask0_1150_2978" style="mask-type:luminance" maskUnits="userSpaceOnUse" x="64" y="70" width="52" height="42">
<path id="Mask_2" fill-rule="evenodd" clip-rule="evenodd" d="M113.563 111.6H66.4375C65.091 111.6 64 110.526 64 109.2V79.7838C64 78.4588 65.091 77.3839 66.4375 77.3839H76.8477L80.7515 70.9571C81.1966 70.379 81.8941 70 82.6876 70H97.3125C97.9972 70 98.6129 70.2804 99.0565 70.7274L99.0582 70.725L103.198 77.3839H113.563C114.909 77.3839 116 78.4588 116 79.7838V109.2C116 110.526 114.909 111.6 113.563 111.6ZM90.0005 82.3064C82.8894 82.3064 77.125 87.9828 77.125 94.9838C77.125 101.986 82.8894 107.661 90.0005 107.661C97.1116 107.661 102.876 101.986 102.876 94.9838C102.876 87.9828 97.1116 82.3064 90.0005 82.3064ZM82.5488 94.9839C82.5488 99.0355 85.8852 102.321 90.0002 102.321C94.1158 102.321 97.4516 99.0355 97.4516 94.9839C97.4516 90.9315 94.1158 87.6471 90.0002 87.6471C85.8852 87.6471 82.5488 90.9315 82.5488 94.9839Z" fill="white"/>
</mask>
<g mask="url(#mask0_1150_2978)">
</g>
</g>
<defs>
<filter id="filter0_d_1150_2978" x="0" y="0" width="180" height="180" filterUnits="userSpaceOnUse" color-interpolation-filters="sRGB">
<feFlood flood-opacity="0" result="BackgroundImageFix"/>
<feColorMatrix in="SourceAlpha" type="matrix" values="0 0 0 0 0 0 0 0 0 0 0 0 0 0 0 0 0 0 127 0" result="hardAlpha"/>
<feOffset/>
<feGaussianBlur stdDeviation="5"/>
<feColorMatrix type="matrix" values="0 0 0 0 0 0 0 0 0 0 0 0 0 0 0 0 0 0 0.01 0"/>
<feBlend mode="normal" in2="BackgroundImageFix" result="effect1_dropShadow_1150_2978"/>
<feBlend mode="normal" in="SourceGraphic" in2="effect1_dropShadow_1150_2978" result="shape"/>
</filter>
</defs>
</svg>
