<svg width="38" height="46" viewBox="0 0 38 46" fill="none" xmlns="http://www.w3.org/2000/svg">
<g id="Group 9 Copy">
<g id="Group 34">
<path id="Rectangle 18" fill-rule="evenodd" clip-rule="evenodd" d="M1 4.99999C1 2.79086 2.79086 1 5 1H33C35.2091 1 37 2.79086 37 5V38.8C37 41.0091 35.2091 42.8 33 42.8H5C2.79086 42.8 1 41.0091 1 38.8V4.99999Z" stroke="#1A78F2" stroke-width="2"/>
<path id="Line 7" d="M7.0791 43.5713V44.3145" stroke="#1A78F2" stroke-width="2" stroke-linecap="round"/>
<path id="Line 7_2" d="M30.9209 43.5713V44.3145" stroke="#1A78F2" stroke-width="2" stroke-linecap="round"/>
</g>
<path id="Rectangle 31" fill-rule="evenodd" clip-rule="evenodd" d="M4 8C4 5.79086 5.79086 4 8 4H30C32.2091 4 34 5.79086 34 8V36C34 38.2091 32.2091 40 30 40H8C5.79086 40 4 38.2091 4 36V8Z" fill="#1A78F2"/>
<path id="Path 393" fill-rule="evenodd" clip-rule="evenodd" d="M29 18.0522C29 18.0522 29.5581 18.3019 29.5581 18.6169V24.7232C29.5581 24.7232 29.3771 25.1511 29 25.1511C29 25.1511 30.6398 25.5288 31.392 24.9432C31.5477 24.822 31.598 24.618 31.598 24.4207V19.055C31.598 18.7757 31.483 18.5047 31.2449 18.3587C31.0427 18.2348 30.7688 18.1024 30.4634 18.0522C29.828 17.9478 29 18.0522 29 18.0522Z" fill="white"/>
</g>    
</svg>
