<svg width="56" height="56" viewBox="0 0 56 56" fill="none" xmlns="http://www.w3.org/2000/svg">
<g id="Group 3810">
<g id="Group 33">
<path id="Path" d="M16 19.4674V7.58777C16 6.71211 16.6918 6 17.5421 6H38.1383C38.989 6 39.6804 6.71211 39.6804 7.58743V19.4674" stroke="#1A78F2" stroke-width="1.5"/>
<path id="Line" d="M20.371 10.9382V15.9098" stroke="#1A78F2" stroke-width="1.5" stroke-linecap="round"/>
<path id="Line_2" d="M20.371 26.6172V35.7954" stroke="#1A78F2" stroke-width="1.5" stroke-linecap="round"/>
<path id="Line Copy" d="M20.371 48.47V49.9997" stroke="#1A78F2" stroke-width="1.5" stroke-linecap="round"/>
<path id="Line Copy 2" d="M35.6678 48.47V49.9997" stroke="#1A78F2" stroke-width="1.5" stroke-linecap="round"/>
<path id="Path_2" fill-rule="evenodd" clip-rule="evenodd" d="M38.1383 47.8933H17.5421C16.6915 47.8933 16 47.1819 16 46.3063V19.3513H39.6804V46.3063C39.6804 47.1819 38.989 47.8933 38.1383 47.8933Z" stroke="#1A78F2" stroke-width="1.5"/>
<path id="Path 335" d="M16 22.2194H19.9074C20.9838 22.2194 21.8715 21.4371 22.3586 20.4772C22.6654 19.8726 23.0928 19.3433 23.6485 19.3433" stroke="#1A78F2" stroke-width="1.5"/>
</g>
</g>
</svg>
