<svg width="56" height="56" viewBox="0 0 56 56" fill="none" xmlns="http://www.w3.org/2000/svg">
<g id="Group 3810">
<g id="Group 40">
<circle id="Oval 16" cx="12.7096" cy="16.734" r="1.65" fill="#1A78F2"/>
<circle id="Oval 16 Copy" cx="17.11" cy="16.734" r="1.65" fill="#1A78F2"/>
<circle id="Oval 16 Copy 2" cx="21.5104" cy="16.734" r="1.65" fill="#1A78F2"/>
<circle id="Oval 16 Copy 3" cx="42.4098" cy="16.734" r="1.65" fill="#1A78F2"/>
<path id="Rectangle 30" fill-rule="evenodd" clip-rule="evenodd" d="M10.6201 25.2037C10.6201 24.7177 11.0141 24.3237 11.5001 24.3237H44.5001C44.9861 24.3237 45.3801 24.7177 45.3801 25.2037V37.0837C45.3801 39.5138 43.4102 41.4837 40.9801 41.4837H11.5001C11.0141 41.4837 10.6201 41.0897 10.6201 40.6037V25.2037Z" fill="#1A78F2"/>
<path id="Rectangle 29" d="M6.75 14.4233C6.75 12.8935 7.99017 11.6533 9.52 11.6533H46.48C48.0098 11.6533 49.25 12.8935 49.25 14.4233V42.5833C49.25 44.1131 48.0098 45.3533 46.48 45.3533H9.52C7.99017 45.3533 6.75 44.1131 6.75 42.5833V14.4233Z" stroke="#1A78F2" stroke-width="1.5"/>
<path id="Path 391" d="M7.6377 21.1095H48.9401" stroke="#1A78F2" stroke-width="1.5"/>
<path id="Path 392" d="M13.4805 12.3514C13.4805 12.3514 13.4805 10.6452 14.7982 10.376H24.7598C24.7598 10.376 26.2856 10.6456 26.2856 12.3514" stroke="#1A78F2" stroke-width="1.5"/>
<path id="Path 392 Copy" d="M35.4805 12.3514C35.4805 12.3514 35.4805 10.6452 36.7982 10.376H41.2598C41.2598 10.376 42.7856 10.6456 42.7856 12.3514" stroke="#1A78F2" stroke-width="1.5"/>
</g>
</g>
</svg>
