<svg width="16" height="18" viewBox="0 0 16 18" fill="none" xmlns="http://www.w3.org/2000/svg">
<path d="M2.24314 16.4853L2.69713 15.5943L2.69713 15.5943L2.24314 16.4853ZM1.51497 15.757L0.623962 16.211L0.623962 16.211L1.51497 15.757ZM14.4852 15.757L13.5942 15.303L14.4852 15.757ZM13.7565 16.4853L13.3025 15.5943L13.7565 16.4853ZM13.7565 3.51531L14.2105 2.62431L14.2105 2.62431L13.7565 3.51531ZM14.4852 4.24369L13.5942 4.69768L13.5942 4.69768L14.4852 4.24369ZM2.24314 3.51531L2.69713 4.40632L2.24314 3.51531ZM1.51497 4.24369L2.40598 4.69768L1.51497 4.24369ZM11.3333 13.3337V12.3337C10.781 12.3337 10.3333 12.7814 10.3333 13.3337H11.3333ZM11.335 13.3337L12.3347 13.357C12.341 13.0878 12.2385 12.8275 12.0503 12.6349C11.8621 12.4422 11.6042 12.3337 11.335 12.3337V13.3337ZM11.3349 13.3353L11.311 14.335C11.5763 14.3414 11.8331 14.2421 12.0251 14.0589C12.2171 13.8758 12.3285 13.6239 12.3347 13.3587L11.3349 13.3353ZM11.3333 13.3353H10.3333C10.3333 13.8783 10.7666 14.322 11.3094 14.335L11.3333 13.3353ZM7.99998 13.3337V12.3337C7.44769 12.3337 6.99998 12.7814 6.99998 13.3337H7.99998ZM8.00165 13.3337L9.00137 13.357C9.00766 13.0878 8.90513 12.8275 8.71696 12.6349C8.5288 12.4422 8.27091 12.3337 8.00165 12.3337V13.3337ZM8.00161 13.3353L7.97769 14.335C8.24293 14.3414 8.49981 14.2421 8.6918 14.0589C8.88379 13.8758 8.99514 13.6239 9.00133 13.3587L8.00161 13.3353ZM7.99998 13.3353H6.99998C6.99998 13.8783 7.43325 14.322 7.97606 14.335L7.99998 13.3353ZM4.66665 13.3337V12.3337C4.11436 12.3337 3.66665 12.7814 3.66665 13.3337H4.66665ZM4.66831 13.3337L5.66804 13.357C5.67433 13.0878 5.57179 12.8275 5.38363 12.6349C5.19547 12.4422 4.93758 12.3337 4.66831 12.3337V13.3337ZM4.66827 13.3353L4.64435 14.335C4.90959 14.3414 5.16648 14.2421 5.35847 14.0589C5.55045 13.8758 5.6618 13.6239 5.668 13.3587L4.66827 13.3353ZM4.66665 13.3353H3.66665C3.66665 13.8783 4.09992 14.322 4.64273 14.335L4.66665 13.3353ZM11.3349 10.0003H12.3349C12.3349 9.44804 11.8872 9.00032 11.3349 9.00032V10.0003ZM11.3349 10.002L11.311 11.0017C11.5803 11.0081 11.8408 10.9057 12.0335 10.7175C12.2263 10.5293 12.3349 10.2714 12.3349 10.002H11.3349ZM11.3333 10.002H10.3333C10.3333 10.5449 10.7666 10.9887 11.3094 11.0017L11.3333 10.002ZM11.3333 10.0003V9.00032C10.781 9.00032 10.3333 9.44804 10.3333 10.0003H11.3333ZM7.99998 10.0003V9.00032C7.44769 9.00032 6.99998 9.44804 6.99998 10.0003H7.99998ZM8.00165 10.0003L9.00137 10.0237C9.00766 9.75449 8.90513 9.49414 8.71696 9.30153C8.5288 9.10891 8.27091 9.00032 8.00165 9.00032V10.0003ZM8.00161 10.002L7.97769 11.0017C8.24293 11.0081 8.49981 10.9087 8.6918 10.7256C8.88379 10.5425 8.99514 10.2906 9.00133 10.0254L8.00161 10.002ZM7.99998 10.002H6.99998C6.99998 10.5449 7.43325 10.9887 7.97606 11.0017L7.99998 10.002ZM4.66665 10.0003V9.00032C4.11436 9.00032 3.66665 9.44804 3.66665 10.0003H4.66665ZM4.66831 10.0003L5.66804 10.0237C5.67433 9.75449 5.57179 9.49414 5.38363 9.30153C5.19547 9.10891 4.93758 9.00032 4.66831 9.00032V10.0003ZM4.66827 10.002L4.64435 11.0017C4.90959 11.0081 5.16648 10.9087 5.35847 10.7256C5.55045 10.5425 5.6618 10.2906 5.668 10.0254L4.66827 10.002ZM4.66665 10.002H3.66665C3.66665 10.5449 4.09992 10.9887 4.64273 11.0017L4.66665 10.002ZM1.33331 5.66699C0.781028 5.66699 0.333313 6.11471 0.333313 6.66699C0.333313 7.21928 0.781028 7.66699 1.33331 7.66699V5.66699ZM14.6666 7.66699C15.2189 7.66699 15.6666 7.21928 15.6666 6.66699C15.6666 6.11471 15.2189 5.66699 14.6666 5.66699V7.66699ZM12.3333 1.66699C12.3333 1.11471 11.8856 0.666992 11.3333 0.666992C10.781 0.666992 10.3333 1.11471 10.3333 1.66699H12.3333ZM10.3333 3.33366C10.3333 3.88594 10.781 4.33366 11.3333 4.33366C11.8856 4.33366 12.3333 3.88594 12.3333 3.33366H10.3333ZM5.66665 1.66699C5.66665 1.11471 5.21893 0.666992 4.66665 0.666992C4.11436 0.666992 3.66665 1.11471 3.66665 1.66699H5.66665ZM3.66665 3.33366C3.66665 3.88594 4.11436 4.33366 4.66665 4.33366C5.21893 4.33366 5.66665 3.88594 5.66665 3.33366H3.66665ZM4.00014 4.33366H12.0001V2.33366H4.00014V4.33366ZM13.6666 6.00028V14.0003H15.6666V6.00028H13.6666ZM12.0001 15.667H4.00014V17.667H12.0001V15.667ZM2.33331 14.0003V6.00028H0.333313V14.0003H2.33331ZM4.00014 15.667C3.51696 15.667 3.21458 15.6662 2.98673 15.6476C2.77049 15.6299 2.71088 15.6013 2.69713 15.5943L1.78915 17.3763C2.13192 17.551 2.4841 17.6132 2.82388 17.641C3.15204 17.6678 3.54991 17.667 4.00014 17.667V15.667ZM0.333313 14.0003C0.333313 14.4505 0.332535 14.8483 0.359341 15.1764C0.387098 15.5162 0.449327 15.8683 0.623962 16.211L2.40598 15.303C2.39895 15.2892 2.37036 15.2297 2.3527 15.0136C2.33409 14.7858 2.33331 14.4835 2.33331 14.0003H0.333313ZM2.69713 15.5943C2.57184 15.5305 2.46997 15.4286 2.40598 15.303L0.623962 16.211C0.879547 16.7126 1.28724 17.1206 1.78915 17.3763L2.69713 15.5943ZM13.6666 14.0003C13.6666 14.4836 13.6659 14.7859 13.6473 15.0137C13.6297 15.2299 13.6011 15.2894 13.5942 15.303L15.3762 16.211C15.5509 15.8682 15.613 15.516 15.6407 15.1763C15.6675 14.8482 15.6666 14.4504 15.6666 14.0003H13.6666ZM12.0001 17.667C12.4504 17.667 12.8481 17.6678 13.1761 17.6409C13.5159 17.6132 13.8678 17.5509 14.2105 17.3763L13.3025 15.5943C13.2886 15.6014 13.2291 15.6299 13.0132 15.6476C12.7855 15.6662 12.4833 15.667 12.0001 15.667V17.667ZM13.5942 15.303C13.5305 15.4279 13.4284 15.5301 13.3025 15.5943L14.2105 17.3763C14.7117 17.1209 15.1202 16.7133 15.3762 16.211L13.5942 15.303ZM12.0001 4.33366C12.4834 4.33366 12.7855 4.33444 13.0132 4.35304C13.2291 4.37069 13.2886 4.39927 13.3025 4.40632L14.2105 2.62431C13.8678 2.44971 13.5159 2.38746 13.1761 2.35969C12.8481 2.33288 12.4503 2.33366 12.0001 2.33366V4.33366ZM15.6666 6.00028C15.6666 5.55018 15.6675 5.15238 15.6407 4.82437C15.613 4.48467 15.5509 4.13253 15.3762 3.7897L13.5942 4.69768C13.6011 4.71137 13.6297 4.77082 13.6473 4.98693C13.6659 5.21473 13.6666 5.51697 13.6666 6.00028H15.6666ZM13.3025 4.40632C13.4283 4.47045 13.5305 4.57265 13.5942 4.69768L15.3762 3.7897C15.1203 3.28753 14.7118 2.87976 14.2105 2.62431L13.3025 4.40632ZM4.00014 2.33366C3.54992 2.33366 3.15206 2.33288 2.8239 2.35968C2.48413 2.38744 2.13194 2.44965 1.78915 2.62431L2.69713 4.40632C2.71087 4.39932 2.77046 4.37071 2.98671 4.35305C3.21457 4.33444 3.51694 4.33366 4.00014 4.33366V2.33366ZM2.33331 6.00028C2.33331 5.51707 2.33409 5.21482 2.3527 4.98709C2.37035 4.77104 2.39894 4.71149 2.40598 4.69768L0.623962 3.7897C0.449339 4.13242 0.387102 4.48445 0.359341 4.82421C0.332535 5.15229 0.333313 5.55008 0.333313 6.00028H2.33331ZM1.78915 2.62431C1.28713 2.8801 0.879493 3.2882 0.623962 3.7897L2.40598 4.69768C2.47002 4.57198 2.57195 4.47011 2.69713 4.40632L1.78915 2.62431ZM11.3333 14.3337H11.335V12.3337H11.3333V14.3337ZM10.3353 13.3103L10.3352 13.312L12.3347 13.3587L12.3347 13.357L10.3353 13.3103ZM11.3589 12.3356L11.3572 12.3356L11.3094 14.335L11.311 14.335L11.3589 12.3356ZM12.3333 13.3353V13.3337H10.3333V13.3353H12.3333ZM7.99998 14.3337H8.00165V12.3337H7.99998V14.3337ZM7.00192 13.3103L7.00188 13.312L9.00133 13.3587L9.00137 13.357L7.00192 13.3103ZM8.02553 12.3356L8.0239 12.3356L7.97606 14.335L7.97769 14.335L8.02553 12.3356ZM8.99998 13.3353V13.3337H6.99998V13.3353H8.99998ZM4.66665 14.3337H4.66831V12.3337H4.66665V14.3337ZM3.66859 13.3103L3.66855 13.312L5.668 13.3587L5.66804 13.357L3.66859 13.3103ZM4.69219 12.3356L4.69057 12.3356L4.64273 14.335L4.64435 14.335L4.69219 12.3356ZM5.66665 13.3353V13.3337H3.66665V13.3353H5.66665ZM10.3349 10.0003V10.002H12.3349V10.0003H10.3349ZM11.3589 9.00228L11.3572 9.00224L11.3094 11.0017L11.311 11.0017L11.3589 9.00228ZM12.3333 10.002V10.0003H10.3333V10.002H12.3333ZM11.3333 11.0003H11.3349V9.00032H11.3333V11.0003ZM7.99998 11.0003H8.00165V9.00032H7.99998V11.0003ZM7.00192 9.97696L7.00188 9.97863L9.00133 10.0254L9.00137 10.0237L7.00192 9.97696ZM8.02553 9.00228L8.0239 9.00224L7.97606 11.0017L7.97769 11.0017L8.02553 9.00228ZM8.99998 10.002V10.0003H6.99998V10.002H8.99998ZM4.66665 11.0003H4.66831V9.00032H4.66665V11.0003ZM3.66859 9.97696L3.66855 9.97863L5.668 10.0254L5.66804 10.0237L3.66859 9.97696ZM4.69219 9.00228L4.69057 9.00224L4.64273 11.0017L4.64435 11.0017L4.69219 9.00228ZM5.66665 10.002V10.0003H3.66665V10.002H5.66665ZM1.33331 7.66699H14.6666V5.66699H1.33331V7.66699ZM10.3333 1.66699V3.33366H12.3333V1.66699H10.3333ZM3.66665 1.66699V3.33366H5.66665V1.66699H3.66665Z" fill="white"/>
</svg>
