<svg width="20" height="20" viewBox="0 0 20 20" fill="none" xmlns="http://www.w3.org/2000/svg">
<path d="M17.5002 16.6665H5.16683C4.23341 16.6665 3.76635 16.6665 3.40983 16.4848C3.09623 16.325 2.84144 16.0701 2.68166 15.7565C2.5 15.4 2.5 14.9333 2.5 13.9998V4.1665M17.5 5.83317L12.6286 10.0956C12.0452 10.6061 11.7534 10.8614 11.4339 10.9674C11.0571 11.0924 10.6479 11.0787 10.2803 10.9289C9.96857 10.8019 9.69463 10.5279 9.14647 9.97974C8.61021 9.44349 8.34208 9.17536 8.0363 9.0485C7.67559 8.89887 7.27396 8.88056 6.90119 8.99693C6.58517 9.09558 6.29377 9.33835 5.71116 9.82385L2.5 12.4998" stroke="white" stroke-width="2" stroke-linecap="round" stroke-linejoin="round"/>
</svg>
