<svg width="15" height="14" viewBox="0 0 15 14" fill="none" xmlns="http://www.w3.org/2000/svg">
<path d="M7.5 1.375C10.6066 1.375 13.125 3.8934 13.125 7C13.125 10.1066 10.6066 12.625 7.5 12.625C4.3934 12.625 1.875 10.1066 1.875 7C1.875 3.8934 4.3934 1.375 7.5 1.375Z" fill="#1A78F2"/>
<path d="M9.375 6.375L7.5 8.25L5.625 6.375M13.125 7C13.125 3.8934 10.6066 1.375 7.5 1.375C4.3934 1.375 1.875 3.8934 1.875 7C1.875 10.1066 4.3934 12.625 7.5 12.625C10.6066 12.625 13.125 10.1066 13.125 7Z" stroke="white" stroke-width="2" stroke-linecap="round" stroke-linejoin="round"/>
</svg>
