<svg width="20" height="20" viewBox="0 0 20 20" fill="none" xmlns="http://www.w3.org/2000/svg">
<path d="M3.33333 4.99984L10.1905 9.99984L16.6666 4.99984M17.5 6.83313V13.1665C17.5 14.0999 17.5002 14.5667 17.3185 14.9232C17.1587 15.2368 16.9034 15.4917 16.5898 15.6515C16.2333 15.8331 15.7669 15.8332 14.8335 15.8332H5.16683C4.23341 15.8332 3.76635 15.8331 3.40983 15.6515C3.09623 15.4917 2.84144 15.2368 2.68166 14.9232C2.5 14.5667 2.5 14.0999 2.5 13.1665V6.83313C2.5 5.89971 2.5 5.43306 2.68166 5.07654C2.84144 4.76293 3.09623 4.50795 3.40983 4.34816C3.76635 4.1665 4.23341 4.1665 5.16683 4.1665H14.8335C15.7669 4.1665 16.2333 4.1665 16.5898 4.34816C16.9034 4.50795 17.1587 4.76293 17.3185 5.07654C17.5002 5.43306 17.5 5.89971 17.5 6.83313Z" stroke="white" stroke-width="2" stroke-linecap="round" stroke-linejoin="round"/>
</svg>
