<svg width="20" height="20" viewBox="0 0 20 20" fill="none" xmlns="http://www.w3.org/2000/svg">
<path d="M14.1667 16.6665C14.1667 15.2858 12.3012 14.1665 10 14.1665C7.69881 14.1665 5.83333 15.2858 5.83333 16.6665M17.5 14.1664C17.5 13.1412 16.4716 12.2602 15 11.8744M2.5 14.1664C2.5 13.1412 3.52841 12.2602 5 11.8744M15 8.52993C15.5115 8.07216 15.8333 7.40692 15.8333 6.6665C15.8333 5.28579 14.714 4.1665 13.3333 4.1665C12.693 4.1665 12.109 4.40722 11.6667 4.80308M5 8.52993C4.48854 8.07216 4.16667 7.40692 4.16667 6.6665C4.16667 5.28579 5.28595 4.1665 6.66667 4.1665C7.30696 4.1665 7.89104 4.40722 8.33333 4.80308M10 11.6665C8.61929 11.6665 7.5 10.5472 7.5 9.1665C7.5 7.78579 8.61929 6.6665 10 6.6665C11.3807 6.6665 12.5 7.78579 12.5 9.1665C12.5 10.5472 11.3807 11.6665 10 11.6665Z" stroke="#050505" stroke-width="2" stroke-linecap="round" stroke-linejoin="round"/>
</svg>
