<svg width="15" height="14" viewBox="0 0 15 14" fill="none" xmlns="http://www.w3.org/2000/svg">
<path d="M7.5 1.375C10.6066 1.375 13.125 3.8934 13.125 7C13.125 10.1066 10.6066 12.625 7.5 12.625C4.3934 12.625 1.875 10.1066 1.875 7C1.875 3.8934 4.3934 1.375 7.5 1.375Z" fill="white"/>
<path d="M5.625 7.625L7.5 5.75L9.375 7.625M13.125 7C13.125 3.8934 10.6066 1.375 7.5 1.375C4.3934 1.375 1.875 3.8934 1.875 7C1.875 10.1066 4.3934 12.625 7.5 12.625C10.6066 12.625 13.125 10.1066 13.125 7Z" stroke="#5B5454" stroke-width="2" stroke-linecap="round" stroke-linejoin="round"/>
</svg>
