<svg width="20" height="20" viewBox="0 0 20 20" fill="none" xmlns="http://www.w3.org/2000/svg">
<path d="M2.68166 5.91003L3.57266 6.36402L2.68166 5.91003ZM3.40983 5.18166L3.86382 6.07266L3.40983 5.18166ZM3.40983 14.8183L3.86382 13.9273H3.86382L3.40983 14.8183ZM2.68166 14.09L1.79065 14.544L2.68166 14.09ZM17.3185 14.09L16.4275 13.636L17.3185 14.09ZM16.5898 14.8183L16.1358 13.9273L16.5898 14.8183ZM17.3185 5.91003L16.4275 6.36402L17.3185 5.91003ZM16.5898 5.18166L17.0438 4.29065L16.5898 5.18166ZM9 15C9 15.5523 9.44772 16 10 16C10.5523 16 11 15.5523 11 15H9ZM4 15C4 15.5523 4.44772 16 5 16C5.55228 16 6 15.5523 6 15H4ZM15 12.6667C15.5523 12.6667 16 12.219 16 11.6667C16 11.1144 15.5523 10.6667 15 10.6667L15 12.6667ZM11.6667 10.6667C11.1144 10.6667 10.6667 11.1144 10.6667 11.6667C10.6667 12.219 11.1144 12.6667 11.6667 12.6667L11.6667 10.6667ZM15 10.1667C15.5523 10.1667 16 9.71895 16 9.16667C16 8.61438 15.5523 8.16667 15 8.16667V10.1667ZM12.5 8.16667C11.9477 8.16667 11.5 8.61438 11.5 9.16667C11.5 9.71895 11.9477 10.1667 12.5 10.1667V8.16667ZM7.5 9.83333C7.13181 9.83333 6.83333 9.53486 6.83333 9.16667H4.83333C4.83333 10.6394 6.02724 11.8333 7.5 11.8333V9.83333ZM6.83333 9.16667C6.83333 8.79848 7.13181 8.5 7.5 8.5V6.5C6.02724 6.5 4.83333 7.69391 4.83333 9.16667H6.83333ZM7.5 8.5C7.86819 8.5 8.16667 8.79848 8.16667 9.16667H10.1667C10.1667 7.69391 8.97276 6.5 7.5 6.5V8.5ZM8.16667 9.16667C8.16667 9.53486 7.86819 9.83333 7.5 9.83333V11.8333C8.97276 11.8333 10.1667 10.6394 10.1667 9.16667H8.16667ZM16.5 7.66663V12.3333H18.5V7.66663H16.5ZM14.8335 14H5.16683V16H14.8335V14ZM3.5 12.3333V7.66663H1.5V12.3333H3.5ZM5.16683 6H14.8335V4H5.16683V6ZM3.5 7.66663C3.5 7.18341 3.50078 6.88116 3.51939 6.65343C3.53704 6.43738 3.56563 6.37783 3.57266 6.36402L1.79065 5.45604C1.61603 5.79876 1.55379 6.1508 1.52603 6.49056C1.49922 6.81863 1.5 7.21642 1.5 7.66663H3.5ZM5.16683 4C4.71661 4 4.31874 3.99922 3.99059 4.02603C3.65082 4.05378 3.29863 4.11599 2.95584 4.29065L3.86382 6.07266C3.87755 6.06567 3.93715 6.03705 4.1534 6.01939C4.38126 6.00078 4.68363 6 5.16683 6V4ZM3.57266 6.36402C3.63671 6.23832 3.73864 6.13645 3.86382 6.07266L2.95584 4.29065C2.45382 4.54644 2.04618 4.95454 1.79065 5.45604L3.57266 6.36402ZM5.16683 14C4.68364 14 4.38127 13.9992 4.15342 13.9806C3.93718 13.9629 3.87757 13.9343 3.86382 13.9273L2.95584 15.7093C3.29861 15.884 3.65079 15.9462 3.99056 15.974C4.31873 16.0008 4.7166 16 5.16683 16V14ZM1.5 12.3333C1.5 12.7835 1.49922 13.1813 1.52603 13.5094C1.55379 13.8492 1.61601 14.2013 1.79065 14.544L3.57266 13.636C3.56564 13.6223 3.53704 13.5627 3.51939 13.3466C3.50078 13.1188 3.5 12.8165 3.5 12.3333H1.5ZM3.86382 13.9273C3.73853 13.8635 3.63666 13.7616 3.57266 13.636L1.79065 14.544C2.04623 15.0456 2.45392 15.4536 2.95584 15.7093L3.86382 13.9273ZM16.5 12.3333C16.5 12.8166 16.4993 13.1189 16.4807 13.3467C16.4631 13.5629 16.4345 13.6224 16.4275 13.636L18.2095 14.544C18.3842 14.2012 18.4464 13.849 18.4741 13.5093C18.5008 13.1812 18.5 12.7834 18.5 12.3333H16.5ZM14.8335 16C15.2837 16 15.6814 16.0008 16.0095 15.974C16.3492 15.9462 16.7012 15.8839 17.0438 15.7093L16.1358 13.9273C16.122 13.9344 16.0624 13.963 15.8465 13.9806C15.6189 13.9992 15.3167 14 14.8335 14V16ZM16.4275 13.636C16.3639 13.761 16.2618 13.8631 16.1358 13.9273L17.0438 15.7093C17.5451 15.4539 17.9536 15.0463 18.2095 14.544L16.4275 13.636ZM18.5 7.66663C18.5 7.21652 18.5008 6.81872 18.4741 6.49071C18.4464 6.15101 18.3842 5.79887 18.2095 5.45604L16.4275 6.36402C16.4345 6.37771 16.4631 6.43717 16.4807 6.65327C16.4993 6.88107 16.5 7.18331 16.5 7.66663H18.5ZM14.8335 6C15.3167 6 15.6189 6.00078 15.8465 6.01938C16.0625 6.03703 16.122 6.06561 16.1358 6.07266L17.0438 4.29065C16.7011 4.11605 16.3492 4.0538 16.0095 4.02603C15.6814 3.99922 15.2837 4 14.8335 4V6ZM18.2095 5.45604C17.9537 4.95387 17.5452 4.5461 17.0438 4.29065L16.1358 6.07266C16.2617 6.13679 16.3638 6.23899 16.4275 6.36402L18.2095 5.45604ZM11 15C11 14.1014 10.4537 13.4102 9.82247 12.9894C9.18428 12.564 8.36024 12.3333 7.5 12.3333V14.3333C8.02047 14.3333 8.44643 14.4758 8.71307 14.6535C8.98669 14.836 9 14.9781 9 15H11ZM7.5 12.3333C6.63976 12.3333 5.81572 12.564 5.17753 12.9894C4.54634 13.4102 4 14.1014 4 15H6C6 14.9781 6.01331 14.836 6.28693 14.6535C6.55357 14.4758 6.97953 14.3333 7.5 14.3333V12.3333ZM15 10.6667L11.6667 10.6667L11.6667 12.6667L15 12.6667L15 10.6667ZM15 8.16667L12.5 8.16667V10.1667L15 10.1667V8.16667Z" fill="#050505"/>
</svg>
