<svg width="18" height="18" viewBox="0 0 18 18" fill="none" xmlns="http://www.w3.org/2000/svg">
<path d="M9.0415 11.875H10.0415C10.0415 11.3227 9.59379 10.875 9.0415 10.875V11.875ZM9.0415 11.9583L9.04125 12.9583C9.30651 12.9584 9.56093 12.853 9.74852 12.6655C9.93611 12.4779 10.0415 12.2236 10.0415 11.9583H9.0415ZM8.9585 11.9583H7.9585C7.9585 12.5105 8.40606 12.9581 8.95825 12.9583L8.9585 11.9583ZM8.9585 11.875V10.875C8.40621 10.875 7.9585 11.3227 7.9585 11.875H8.9585ZM10 6.04163C10 5.48934 9.55228 5.04163 9 5.04163C8.44772 5.04163 8 5.48934 8 6.04163H10ZM8 9.37496C8 9.92724 8.44772 10.375 9 10.375C9.55228 10.375 10 9.92724 10 9.37496H8ZM9 15.5C5.41015 15.5 2.5 12.5899 2.5 9H0.5C0.5 13.6944 4.30558 17.5 9 17.5V15.5ZM2.5 9C2.5 5.41015 5.41015 2.5 9 2.5V0.5C4.30558 0.5 0.5 4.30558 0.5 9H2.5ZM9 2.5C12.5899 2.5 15.5 5.41015 15.5 9H17.5C17.5 4.30558 13.6944 0.5 9 0.5V2.5ZM15.5 9C15.5 12.5899 12.5899 15.5 9 15.5V17.5C13.6944 17.5 17.5 13.6944 17.5 9H15.5ZM8.0415 11.875V11.9583H10.0415V11.875H8.0415ZM9.04175 10.9583L8.95875 10.9583L8.95825 12.9583L9.04125 12.9583L9.04175 10.9583ZM9.9585 11.9583V11.875H7.9585V11.9583H9.9585ZM8.9585 12.875H9.0415V10.875H8.9585V12.875ZM8 6.04163V9.37496H10V6.04163H8Z" fill="#050505"/>
</svg>
