<svg width="12" height="15" viewBox="0 0 12 15" fill="none" xmlns="http://www.w3.org/2000/svg">
<path d="M7.9 14.5L5.46 9.98H4.18V14.5H0.6V0.499999H6.2C7.62667 0.499999 8.82 0.959999 9.78 1.88C10.7533 2.78667 11.24 3.94 11.24 5.34C11.24 6.18 11.0267 6.95333 10.6 7.66C10.1733 8.35333 9.59333 8.90667 8.86 9.32L11.74 14.5H7.9ZM4.18 3.8V6.94H6.16C6.6 6.95333 6.96 6.81333 7.24 6.52C7.52 6.22667 7.66 5.84667 7.66 5.38C7.66 4.91333 7.52 4.53333 7.24 4.24C6.96 3.94667 6.6 3.8 6.16 3.8H4.18Z" fill="#5B5454"/>
</svg>
