<svg width="20" height="20" viewBox="0 0 20 20" fill="none" xmlns="http://www.w3.org/2000/svg">
<path d="M14.1665 14.9998C14.1665 15.4601 14.5396 15.8332 14.9998 15.8332C15.4601 15.8332 15.8332 15.4601 15.8332 14.9998C15.8332 14.5396 15.4601 14.1665 14.9998 14.1665C14.5396 14.1665 14.1665 14.5396 14.1665 14.9998Z" stroke="#050505" stroke-width="2" stroke-linecap="round" stroke-linejoin="round"/>
<path d="M9.1665 14.9998C9.1665 15.4601 9.5396 15.8332 9.99984 15.8332C10.4601 15.8332 10.8332 15.4601 10.8332 14.9998C10.8332 14.5396 10.4601 14.1665 9.99984 14.1665C9.5396 14.1665 9.1665 14.5396 9.1665 14.9998Z" stroke="#050505" stroke-width="2" stroke-linecap="round" stroke-linejoin="round"/>
<path d="M4.1665 14.9998C4.1665 15.4601 4.5396 15.8332 4.99984 15.8332C5.46007 15.8332 5.83317 15.4601 5.83317 14.9998C5.83317 14.5396 5.46007 14.1665 4.99984 14.1665C4.5396 14.1665 4.1665 14.5396 4.1665 14.9998Z" stroke="#050505" stroke-width="2" stroke-linecap="round" stroke-linejoin="round"/>
<path d="M14.1665 9.99984C14.1665 10.4601 14.5396 10.8332 14.9998 10.8332C15.4601 10.8332 15.8332 10.4601 15.8332 9.99984C15.8332 9.5396 15.4601 9.1665 14.9998 9.1665C14.5396 9.1665 14.1665 9.5396 14.1665 9.99984Z" stroke="#050505" stroke-width="2" stroke-linecap="round" stroke-linejoin="round"/>
<path d="M9.1665 9.99984C9.1665 10.4601 9.5396 10.8332 9.99984 10.8332C10.4601 10.8332 10.8332 10.4601 10.8332 9.99984C10.8332 9.5396 10.4601 9.1665 9.99984 9.1665C9.5396 9.1665 9.1665 9.5396 9.1665 9.99984Z" stroke="#050505" stroke-width="2" stroke-linecap="round" stroke-linejoin="round"/>
<path d="M4.1665 9.99984C4.1665 10.4601 4.5396 10.8332 4.99984 10.8332C5.46007 10.8332 5.83317 10.4601 5.83317 9.99984C5.83317 9.5396 5.46007 9.1665 4.99984 9.1665C4.5396 9.1665 4.1665 9.5396 4.1665 9.99984Z" stroke="#050505" stroke-width="2" stroke-linecap="round" stroke-linejoin="round"/>
<path d="M14.1665 4.99984C14.1665 5.46007 14.5396 5.83317 14.9998 5.83317C15.4601 5.83317 15.8332 5.46007 15.8332 4.99984C15.8332 4.5396 15.4601 4.1665 14.9998 4.1665C14.5396 4.1665 14.1665 4.5396 14.1665 4.99984Z" stroke="#050505" stroke-width="2" stroke-linecap="round" stroke-linejoin="round"/>
<path d="M9.1665 4.99984C9.1665 5.46007 9.5396 5.83317 9.99984 5.83317C10.4601 5.83317 10.8332 5.46007 10.8332 4.99984C10.8332 4.5396 10.4601 4.1665 9.99984 4.1665C9.5396 4.1665 9.1665 4.5396 9.1665 4.99984Z" stroke="#050505" stroke-width="2" stroke-linecap="round" stroke-linejoin="round"/>
<path d="M4.1665 4.99984C4.1665 5.46007 4.5396 5.83317 4.99984 5.83317C5.46007 5.83317 5.83317 5.46007 5.83317 4.99984C5.83317 4.5396 5.46007 4.1665 4.99984 4.1665C4.5396 4.1665 4.1665 4.5396 4.1665 4.99984Z" stroke="#050505" stroke-width="2" stroke-linecap="round" stroke-linejoin="round"/>
</svg>
