<svg width="14" height="15" viewBox="0 0 14 15" fill="none" xmlns="http://www.w3.org/2000/svg">
<path d="M7.36 14.8C5.25333 14.8 3.50667 14.1067 2.12 12.72C0.746667 11.32 0.06 9.58 0.06 7.5C0.06 5.42 0.746667 3.68667 2.12 2.3C3.50667 0.899999 5.25333 0.199999 7.36 0.199999C8.62667 0.199999 9.8 0.499999 10.88 1.1C11.96 1.7 12.8067 2.50667 13.42 3.52L10.32 5.3C10.0533 4.80667 9.65333 4.42 9.12 4.14C8.6 3.84667 8.01333 3.7 7.36 3.7C6.24 3.7 5.33333 4.05333 4.64 4.76C3.96 5.45333 3.62 6.36667 3.62 7.5C3.62 8.63333 3.96 9.55333 4.64 10.26C5.33333 10.9533 6.24 11.3 7.36 11.3C8.01333 11.3 8.6 11.16 9.12 10.88C9.65333 10.5867 10.0533 10.1867 10.32 9.68L13.42 11.48C12.8067 12.5067 11.96 13.32 10.88 13.92C9.81333 14.5067 8.64 14.8 7.36 14.8Z" fill="#5B5454"/>
</svg>
