<svg width="128" height="50" viewBox="0 0 128 50" fill="none" xmlns="http://www.w3.org/2000/svg">
<path d="M109.672 34.7728L107.214 49.5206H97.792L102.162 23.3023H111.106L110.287 28.2865H110.56C111.39 26.6137 112.602 25.3108 114.195 24.3777C115.8 23.4332 117.569 22.9609 119.504 22.9609C121.359 22.9609 122.901 23.382 124.13 24.2241C125.359 25.0661 126.229 26.2268 126.741 27.7062C127.253 29.1855 127.344 30.881 127.014 32.7928L124.215 49.5206H114.793L117.251 34.7728C117.467 33.4755 117.308 32.4571 116.773 31.7174C116.249 30.9778 115.385 30.6079 114.178 30.6079C113.416 30.6079 112.716 30.7786 112.079 31.12C111.453 31.45 110.93 31.9279 110.509 32.5538C110.099 33.1683 109.82 33.908 109.672 34.7728Z" fill="#12153A"/>
<path d="M78.9657 49.9302C77.3043 49.9302 75.8762 49.6571 74.6813 49.1109C73.4979 48.5533 72.633 47.7112 72.0868 46.5847C71.552 45.4467 71.4325 44.0129 71.7284 42.2832C71.9673 40.8494 72.4168 39.6261 73.0768 38.6134C73.7369 37.6006 74.5562 36.7699 75.5348 36.1213C76.5134 35.4726 77.6116 34.9776 78.8292 34.6362C80.0581 34.2835 81.3554 34.0559 82.7209 33.9535C84.2002 33.8397 85.4008 33.6974 86.3225 33.5267C87.2443 33.3561 87.9327 33.1228 88.3879 32.8269C88.8431 32.531 89.1162 32.1328 89.2072 31.6321V31.5638C89.3096 30.881 89.1275 30.3576 88.661 29.9934C88.2058 29.6293 87.5686 29.4472 86.7492 29.4472C85.8616 29.4472 85.0935 29.6407 84.4449 30.0276C83.8077 30.4145 83.3696 31.0176 83.1306 31.8369H74.4594C74.8236 30.2438 75.5689 28.7758 76.6955 27.4331C77.8334 26.0789 79.3412 24.9979 81.2188 24.1899C83.1078 23.3706 85.3609 22.9609 87.9782 22.9609C89.8444 22.9609 91.4831 23.1828 92.8941 23.6266C94.3052 24.0591 95.4716 24.6679 96.3933 25.453C97.3264 26.2268 97.9808 27.1372 98.3563 28.1841C98.7432 29.2196 98.8342 30.3462 98.6294 31.5638L95.6252 49.5206H86.8175L87.432 45.8336H87.2272C86.5444 46.8122 85.7763 47.6031 84.9228 48.2062C84.0808 48.8093 83.159 49.2474 82.1576 49.5206C81.1676 49.7937 80.1036 49.9302 78.9657 49.9302ZM83.0623 43.9901C83.7678 43.9901 84.462 43.8422 85.1447 43.5463C85.8275 43.2505 86.4136 42.8238 86.9029 42.2662C87.3922 41.7086 87.7051 41.0315 87.8417 40.2349L88.183 38.0501C87.9327 38.1525 87.6539 38.2492 87.3467 38.3403C87.0508 38.4199 86.7379 38.4996 86.4079 38.5792C86.0892 38.6589 85.7479 38.7328 85.3837 38.8011C85.0309 38.8694 84.6668 38.9377 84.2913 39.006C83.5402 39.1197 82.9087 39.3075 82.3966 39.5692C81.8845 39.8196 81.4862 40.1325 81.2018 40.508C80.9173 40.8722 80.7409 41.2818 80.6726 41.737C80.5702 42.4539 80.7352 43.0115 81.1676 43.4098C81.6114 43.7967 82.243 43.9901 83.0623 43.9901Z" fill="#12153A"/>
<path d="M34.6143 27.672H25.1238C25.1921 26.8641 25.1466 26.1358 24.9873 25.4872C24.828 24.8385 24.5549 24.2809 24.168 23.8144C23.7811 23.3364 23.2747 22.9723 22.6488 22.722C22.0229 22.4716 21.2776 22.3464 20.4128 22.3464C18.7514 22.3464 17.2663 22.7618 15.9577 23.5925C14.6491 24.4118 13.5623 25.5896 12.6975 27.1258C11.8327 28.6506 11.2182 30.4714 10.854 32.5879C10.5354 34.6362 10.524 36.3375 10.8199 37.6916C11.1271 39.0458 11.7245 40.0585 12.6121 40.7299C13.5111 41.4013 14.6775 41.737 16.1113 41.737C17.0672 41.737 17.9434 41.6232 18.74 41.3956C19.5479 41.168 20.2648 40.8437 20.8907 40.4227C21.5279 39.9903 22.0685 39.4782 22.5123 38.8865C22.9674 38.2833 23.3145 37.6176 23.5535 36.8894H33.1122C32.7481 38.3687 32.0994 39.8822 31.1663 41.4298C30.2332 42.966 29.027 44.3827 27.5477 45.68C26.0683 46.9659 24.3273 48.0071 22.3245 48.8036C20.3217 49.6002 18.0686 49.9985 15.5651 49.9985C12.2878 49.9985 9.46004 49.2816 7.08174 47.8478C4.71481 46.414 2.99652 44.3201 1.92685 41.5663C0.868561 38.8125 0.658041 35.4556 1.29529 31.4955C1.93254 27.672 3.18997 24.4687 5.06757 21.8856C6.94518 19.3024 9.22676 17.3566 11.9123 16.0479C14.5979 14.7393 17.4541 14.085 20.481 14.085C22.7683 14.085 24.8166 14.3865 26.6259 14.9896C28.4466 15.5927 29.9772 16.4746 31.2175 17.6353C32.4693 18.7847 33.391 20.2014 33.9827 21.8856C34.5745 23.5697 34.785 25.4985 34.6143 27.672Z" fill="#12153A"/>
<path fill-rule="evenodd" clip-rule="evenodd" d="M45.4118 31.9277L48.2945 14.5635H38.8724L33.0688 49.5211H42.491L44.922 34.8782L42.8896 33.5233C42.7619 33.4382 42.7738 33.2467 42.9111 33.178L45.4118 31.9277Z" fill="#12153A"/>
<path fill-rule="evenodd" clip-rule="evenodd" d="M50.4181 48.395C52.2616 49.4646 54.583 49.9995 57.3823 49.9995C59.8175 49.9995 61.9967 49.6353 63.9198 48.907C65.8543 48.1674 67.4816 47.1319 68.8016 45.8005C70.133 44.4577 71.1059 42.8759 71.7204 41.0552H63.1176C62.8445 41.5559 62.4803 41.9827 62.0252 42.3354C61.5814 42.6768 61.0693 42.9385 60.4889 43.1206C59.92 43.2913 59.3168 43.3766 58.6796 43.3766C57.7465 43.3766 56.9841 43.1889 56.3923 42.8134C55.8006 42.4378 55.3852 41.9201 55.1463 41.2601C54.9073 40.6001 54.8561 39.849 54.9927 39.0069L55.0695 38.5973H72.1301L72.4715 36.4124C72.8129 34.33 72.8129 32.4637 72.4715 30.8137C72.1415 29.1523 71.5042 27.7356 70.5597 26.5635C69.6152 25.3914 68.3919 24.4981 66.8899 23.8837C65.3992 23.2692 63.6638 22.9619 61.6838 22.9619C58.9755 22.9619 56.5289 23.5252 54.344 24.6518C52.1706 25.7783 50.3669 27.3544 48.9331 29.3799C48.4282 30.0989 47.9842 30.8609 47.6012 31.6659L50.5377 33.1341C50.6465 33.1885 50.674 33.3156 50.6246 33.4082C50.6039 33.447 50.5698 33.4798 50.5225 33.4987L49.4484 33.9284L46.3849 35.1538C46.282 35.5866 46.1926 36.0289 46.1167 36.4807C45.6388 39.3028 45.7753 41.7266 46.5263 43.7522C47.2774 45.7663 48.5746 47.3139 50.4181 48.395ZM56.0458 33.4082H64.2783C64.3921 32.6572 64.3181 31.9972 64.0564 31.4282C63.806 30.8479 63.4021 30.3984 62.8445 30.0798C62.2983 29.7498 61.6382 29.5848 60.8644 29.5848C60.0906 29.5848 59.3624 29.7498 58.6796 30.0798C58.0082 30.4098 57.4335 30.8706 56.9556 31.4624C56.5159 32.02 56.2127 32.6687 56.0458 33.4082Z" fill="#12153A"/>
<path d="M55.2526 13.4715C55.2942 13.3001 55.5211 13.2625 55.6157 13.4114L56.9146 15.4547C56.9423 15.4984 56.9859 15.5296 57.0362 15.5418L59.3892 16.1127C59.5606 16.1543 59.5981 16.3812 59.4493 16.4758L57.406 17.7747C57.3623 17.8025 57.3311 17.8461 57.3189 17.8963L56.748 20.2493C56.7064 20.4207 56.4795 20.4583 56.3848 20.3094L55.086 18.2661C55.0582 18.2224 55.0146 18.1912 54.9643 18.179L52.6114 17.6081C52.44 17.5665 52.4024 17.3396 52.5513 17.245L54.5946 15.9461C54.6383 15.9183 54.6695 15.8747 54.6817 15.8245L55.2526 13.4715Z" fill="#12153A"/>
<path d="M62.5281 1.73019C62.5697 1.5588 62.7967 1.52122 62.8913 1.67006L65.7846 6.22162C65.8123 6.26529 65.8559 6.29649 65.9062 6.30869L71.1474 7.5804C71.3188 7.62199 71.3564 7.84893 71.2076 7.94355L66.656 10.8368C66.6123 10.8646 66.5811 10.9082 66.5689 10.9585L65.2972 16.1997C65.2556 16.3711 65.0287 16.4087 64.9341 16.2598L62.0408 11.7083C62.013 11.6646 61.9694 11.6334 61.9192 11.6212L56.6779 10.3495C56.5065 10.3079 56.4689 10.081 56.6178 9.98635L61.1693 7.09306C61.213 7.06531 61.2442 7.02171 61.2564 6.97143L62.5281 1.73019Z" fill="#12153A"/>
</svg>
